<svg width="265" height="140" viewBox="0 0 265 140" fill="none" xmlns="http://www.w3.org/2000/svg">
<path d="M48.1689 7.76375C53.6883 5.81219 64.0149 -0.607283 86.6894 0.0635509C101.25 1.37849 127.204 22.1152 131.989 30.17C133.02 31.8989 133.905 33.7144 134.664 35.5987C135.117 36.1843 135.495 36.727 135.788 37.2198C144.612 52.0176 142.11 73.5565 141.08 89.4337C140.159 103.624 111.492 140.598 85.8457 139.45C85.0009 139.413 83.796 139.251 82.3174 138.991C81.1393 139.083 79.9647 139.106 78.7959 139.054C71.1193 138.715 35.5035 128.863 29.4736 124.667C26.4573 122.565 7.25853 91.8471 4.86913 86.8018C-11.4844 52.3266 15.9875 19.1861 48.1689 7.76375ZM86.4941 3.05867C75.5244 2.74461 67.6175 4.13943 61.8291 5.81257C58.9176 6.65415 56.5103 7.57547 54.4726 8.41609C52.5371 9.21462 50.6441 10.0694 49.1728 10.5899V10.5909C33.634 16.1061 19.2989 26.8552 10.8555 40.2384C2.46774 53.5334 -0.0908144 69.3494 7.57812 85.5167L7.57909 85.5177C8.67469 87.8312 13.9527 96.5958 19.4639 105.225C22.1914 109.495 24.9251 113.654 27.1553 116.863C28.2726 118.471 29.2454 119.813 30.0156 120.802C30.4015 121.297 30.7151 121.678 30.957 121.947C31.1135 122.121 31.2027 122.206 31.2314 122.233C32.3408 122.986 35.1172 124.194 39.1953 125.648C35.4917 122.025 18.6014 94.967 16.4346 90.3917C11.7704 80.5589 10.9025 70.8417 12.8027 61.7764C12.9064 60.5928 13.0549 59.4086 13.2529 58.2257C15.1734 46.7528 21.5557 35.6358 33.2344 26.3526C44.0893 17.7243 56.3959 13.012 68.5312 11.8223C74.3205 10.086 82.2341 8.62616 93.2559 8.95222C101.43 9.69009 113.429 16.9493 122.717 24.2833C119.515 21.3251 115.538 18.0824 111.262 15.0313C106.902 11.9204 102.282 9.04397 97.9062 6.878C93.5173 4.70571 89.5821 3.35323 86.4941 3.05867ZM129.555 56.2608C131.545 69.8689 129.391 84.2398 123.527 96.2618C117.635 108.343 107.898 118.203 94.7441 122.374C123.256 117.445 136.479 83.7463 129.555 56.2608ZM121.104 40.1749C103.94 19.4333 70.213 15.6574 44.8213 35.8399C8.9214 64.3761 30.4912 110.673 69.7334 120.973C74.3295 121.591 79.1015 121.755 84.0019 121.393C118.543 118.827 134.21 78.2054 124.396 47.0733C123.457 44.6503 122.353 42.3498 121.104 40.1749ZM183.962 22.2794C208.035 3.49272 246.65 5.55808 258.329 36.9093C268.535 64.3375 262.621 88.9779 246.986 100.655C235.213 112.022 215.857 114.345 193.137 100.899C180.735 93.5648 172.331 82.8627 169.198 71.3848C162.56 54.8689 166.289 36.075 183.962 22.2794ZM194.878 86.3204C203.096 93.5601 215.332 97.3974 226.367 95.9024C224.785 96.0174 223.193 96.043 221.605 95.9805C212.035 95.6038 202.323 92.1042 194.878 86.3204ZM226.719 42.6231C194.346 40.7151 182.129 47.6557 182.193 59.4737C183.896 66.1157 188.29 73.7993 194.476 82.0684C208.006 94.3862 232.354 97.833 245.899 84.4141C258.845 66.5671 251.2 44.0664 226.719 42.6231ZM42.6016 38.2442C52.9777 26.2591 71.0487 30.8428 80.7998 41.0548C81.4871 41.7762 82.2702 42.4048 83.2803 43.6231C84.8966 44.7627 86.3946 46.0446 87.7266 47.4395C89.2939 49.085 91.4064 50.2039 95.7588 60.0382C97.8487 70.9302 94.2657 77.8809 92.1416 80.8516C87.991 86.6767 80.4439 90.5975 73.1562 91.6563C66.1224 91.8578 57.3597 90.617 51.2519 86.7042C44.0888 84.9104 37.6182 81.2994 35.1269 74.9464C33.9666 71.9937 29.6899 63.8579 32.3213 53.9151C36.9098 42.1531 41.0827 39.9962 42.6016 38.2442ZM61.5439 34.2999C55.3086 33.4807 49.2743 35.1206 44.8691 40.2091H44.8682C44.3511 40.8055 43.5558 41.495 43.0478 41.9698C42.4355 42.5421 41.7328 43.2413 40.9434 44.2149C39.3804 46.1426 37.3584 49.2999 35.1787 54.8497C32.9409 63.57 36.6467 70.6149 37.918 73.8497L37.9189 73.8516C39.2654 77.2854 42.1702 79.8907 46.125 81.7511C45.6227 80.9757 45.1912 80.1469 44.8437 79.2608C43.7541 76.4882 39.739 68.849 42.21 59.5137C46.518 48.4708 50.4361 46.4467 51.8623 44.8018C57.6779 38.0841 66.0678 36.9112 73.834 39.0958C70.1286 36.5918 65.8305 34.8631 61.5439 34.2999ZM225.354 13.7598C212.078 11.7983 197.225 15.7345 185.808 24.6446C176.137 32.1939 170.996 41.2015 169.55 50.3741C171.926 42.9591 176.824 35.8718 184.587 29.8116C207.189 12.1724 243.446 14.1109 254.411 43.5469C255.182 45.6183 255.853 47.6736 256.431 49.7061C256.672 50.2366 256.897 50.7758 257.104 51.3233C258.43 54.833 259.019 58.6021 258.876 62.4591C259.441 68.3102 259.184 73.8568 258.195 78.9581C261.652 67.6462 261.261 53.3923 255.517 37.9542L255.518 37.9532C250.104 23.423 238.526 15.7061 225.354 13.7598ZM227.275 51.1026C231.16 46.6165 237.608 48.4012 241.259 52.2237C241.884 52.8803 244.613 56.5247 244.777 57.1768C245.127 58.5633 244.182 64.2905 243.335 65.4757C242.773 66.264 242.053 66.9621 241.236 67.5606C240.974 68.819 240.647 69.9268 240.332 70.3673C238.778 72.5479 235.953 74.0167 233.225 74.4132C229.35 74.5241 224.074 73.4663 222.626 69.7725C222.218 68.7344 220.715 65.8751 221.64 62.3809C222.154 61.0634 222.653 60.089 223.112 59.3526C223.116 58.6011 223.206 57.8013 223.427 56.9678C225.144 52.5662 226.706 51.7583 227.275 51.1026ZM233.932 51.5177C232.223 51.2748 230.716 51.7126 229.543 53.0675L229.541 53.0684C229.262 53.3902 228.808 53.79 228.724 53.8692C228.534 54.046 228.336 54.2437 228.111 54.5206C228.007 54.6489 227.89 54.8023 227.764 54.9874C231.278 53.4302 235.66 55.0744 238.383 57.9259C238.854 58.4207 240.6 60.7273 241.349 61.9327C241.418 61.6023 241.486 61.2537 241.547 60.8975C241.683 60.0958 241.782 59.3131 241.826 58.6817C241.847 58.3891 241.85 58.1819 241.851 58.0479C241.816 57.9921 241.778 57.9265 241.731 57.8555C241.482 57.472 241.138 56.9814 240.764 56.4659C240.392 55.9543 240.007 55.4432 239.683 55.0274C239.521 54.8196 239.38 54.6424 239.267 54.505C239.21 54.4364 239.164 54.3819 239.13 54.3419C239.109 54.3175 239.095 54.3029 239.089 54.296C237.671 52.8114 235.741 51.775 233.932 51.5177Z" fill="black"/>
</svg>
