<svg width="221" height="117" viewBox="0 0 221 117" fill="none" xmlns="http://www.w3.org/2000/svg">
<path d="M40.9869 7.00612C45.5972 5.3764 54.2234 0.0168093 73.1617 0.569594C85.3224 1.66165 106.993 18.9553 110.988 25.6741C118.832 38.8202 116.599 57.9602 115.677 72.0686C114.854 84.6776 89.3415 117.543 66.5279 116.532C60.117 116.252 30.3722 108.043 25.3375 104.544C22.8196 102.793 6.79262 77.1699 4.79842 72.9612C-8.84969 44.2036 14.1051 16.5455 40.9869 7.00612ZM104.647 39.7825C93.7927 11.7996 56.7568 3.29228 30.0611 24.4856C-7.23413 54.0951 25.1388 105.183 70.8824 101.791C99.7372 99.6405 112.835 65.7491 104.647 39.7825ZM154.431 19.1214C174.543 3.44018 206.794 5.15192 216.539 31.3049C231.972 72.7708 203.193 106.621 162.013 82.2864C137.214 67.6436 130.399 37.8639 154.431 19.1214ZM191.913 30.5071C145.347 27.7856 145.633 45.5723 163.187 68.9915C175.102 79.8138 197.068 82.4129 207.918 68.9856C220.881 52.9384 214.335 31.8181 191.913 30.5071ZM36.3199 32.4505C44.9926 22.4533 60.0924 26.2725 68.2379 34.7864C69.6323 36.2473 71.5118 37.2412 75.3824 45.9739C77.2397 55.6475 74.0488 61.822 72.1578 64.4612C68.4626 69.6359 61.7461 73.1216 55.2603 74.0637C46.0499 74.3296 33.5073 71.8233 30.066 63.0598C29.0969 60.5974 25.5262 53.8135 27.7271 45.5217C31.5639 35.7118 35.0505 33.9118 36.3199 32.4505ZM190.603 43.1672C193.85 39.4247 199.238 40.9127 202.288 44.0999C202.81 44.6475 205.09 47.6872 205.226 48.2297C205.518 49.3863 204.728 54.1624 204.02 55.1506C202.637 57.0875 200.122 58.3916 197.694 58.7444C194.246 58.8439 189.552 57.9057 188.263 54.6253C187.901 53.7037 186.562 51.1641 187.386 48.0598C188.822 44.3883 190.128 43.7142 190.603 43.1672Z" fill="black"/>
</svg>
