<svg width="458" height="322" viewBox="0 0 458 322" fill="none" xmlns="http://www.w3.org/2000/svg">
<path d="M190.836 168.929C195.426 167.818 198.706 170.739 201.036 174.463C202.639 176.361 203.465 178.591 203.987 180.751C204.22 181.123 204.286 181.394 204.384 181.799C204.613 182.744 204.367 184.09 204.354 185.808C204.295 189.109 204.674 192.447 205.426 195.552L205.654 196.497C207.105 200.719 211.656 204.763 216.005 204.425C219.012 203.268 222.089 201.809 224.933 199.978C227.273 197.839 229.945 196.478 232.919 195.186C233.901 194.52 235.019 193.821 236.099 193.56C236.336 193.359 236.606 193.294 236.876 193.228C237.281 193.131 237.584 193.2 238.562 193.106C239.94 193.487 241.327 192.723 243.04 193.309C249.131 194.264 252.897 199.784 253.779 203.429C254.041 204.509 254.828 207.176 252.88 210.935C251.406 214.292 248.595 216.259 246.3 216.814C245.625 216.978 245.085 217.109 244.513 217.104C240.328 218.117 237.93 218.84 237.524 218.938C235.5 219.429 233.544 219.616 231.626 219.366C229.904 219.926 228.316 220.453 226.561 220.878C225.616 221.107 225.043 221.102 224.503 221.232C222.613 221.69 220.756 222.283 219.099 223.112C213.644 227.148 213.594 229.304 212.871 235.767C213.022 238.16 212.805 240.214 212.89 242.337C212.983 243.314 213.18 244.124 213.408 245.069L213.899 247.095C214.16 248.175 214.286 249.287 214.277 250.433C214.543 250.94 214.674 251.48 214.772 251.885C214.935 252.56 215.029 253.538 214.778 255.456C214.667 256.769 214.659 257.915 214.953 259.13C215.051 259.535 215.513 260.853 216.301 263.519C217.131 265.176 218.337 266.028 218.827 268.053C219.187 269.538 220.426 270.524 220.688 271.604C220.753 271.874 220.818 272.145 220.748 272.447C220.711 272.885 220.777 273.155 220.875 273.56C220.973 273.965 221.104 274.505 221.771 275.487C221.938 275.59 222.004 275.859 222.036 275.994C222.265 276.939 221.721 277.643 221.949 278.588C221.982 278.723 222.047 278.992 222.215 279.095C223.38 280.956 224.648 282.651 225.612 284.275C226.078 285.02 226.409 285.797 226.638 286.742C226.866 287.687 226.919 289.675 227 292.371C227.764 293.758 228.533 294.573 228.794 295.652L228.925 296.192C229.681 298.725 230.142 300.043 230.175 300.178C230.436 301.258 230.428 302.403 230.284 303.581C230.463 306.682 230.498 310.96 227.385 312.857C226.538 313.491 225.858 314.227 225.281 314.796L223.374 317.544C222.862 318.382 221.982 318.882 221.037 319.11L220.633 319.208C219.218 319.265 217.834 319.456 216.484 319.783C216.08 319.881 215.708 320.115 215.572 320.147C214.087 320.507 212.672 320.563 211.158 320.215C209.673 320.574 209.031 320.873 208.896 320.905C208.221 321.069 207.648 321.064 207.01 320.79C200.723 319.025 193.803 316.412 192.104 309.392C191.777 308.042 191.688 306.491 191.733 304.908C191.918 302.72 191.801 300.462 192.223 298.073C192.9 293.193 194.722 288.322 196.004 283.581C196.725 281.835 198.283 280.599 198.533 278.681C198.955 276.292 199.141 274.103 198.925 271.44C198.566 269.955 198.709 268.777 198.755 267.194L198.233 265.034C198.069 264.359 197.738 263.582 197.44 262.939C196.165 257.674 196.912 252.492 196.275 247.501C196.293 245.21 195.639 242.51 195.378 241.43C194.463 237.65 192.056 230.658 187.675 230.86L187.27 230.959C186.325 231.188 185.78 231.89 184.868 232.254C184.328 232.385 183.718 232.818 183.043 232.981C175.446 235.249 170.888 236.495 169.673 236.789C166.298 237.606 162.992 238.12 159.589 238.229C156.255 238.036 152.345 238.411 149.154 237.039C145.019 235.896 142.656 232.037 140.121 228.649C139.953 228.547 139.79 227.872 139.496 226.657C139.648 224.334 139.297 221.704 140.292 219.319C140.673 217.941 141.623 217.139 142.973 216.812C142.985 216.813 143.556 216.814 144.49 216.588C145.435 216.359 146.38 216.131 147.157 215.8C149.317 215.277 151.478 214.754 153.601 214.669C154.681 214.408 155.663 213.741 156.743 213.479C158.228 213.12 159.472 213.534 160.957 213.175C162.205 213.016 163.555 212.689 164.77 212.394C165.985 212.1 168.382 211.377 172.162 210.462C173.512 210.135 174.998 209.776 176.348 209.449C177.931 209.495 179.313 209.303 180.663 208.977C181.203 208.846 182.959 208.421 186.101 207.231C189.443 206.279 192.443 201.552 191.594 198.042C191.23 197.13 190.969 196.049 190.74 195.104L190.316 193.35C190.021 192.135 189.457 190.985 188.521 190.068C187.887 189.221 187.491 188.174 187.262 187.228C187.164 186.824 187.298 186.791 187.2 186.386C186.972 185.441 186.608 184.528 185.975 183.682C184.875 182.09 184.212 180.535 183.983 179.59C183.853 179.05 183.722 178.51 183.727 177.937L183.744 175.646C183.716 174.939 183.925 174.031 184.134 173.123C184.854 171.377 186.716 170.211 188.471 169.786C189.215 169.32 190.026 169.125 190.836 168.929ZM371.49 157.219C372.705 156.925 374.019 157.036 375.295 157.585C377.046 157.733 378.629 157.778 379.663 159.1C383.241 162.664 385.13 166.923 387.288 171.117C391.323 176.571 394.986 182.259 398.072 188.515C400.096 192.741 403.134 196.436 405.767 200.229C406.261 201.682 406.555 202.897 407.491 203.813C408.06 204.39 408.694 205.238 409.327 206.085L409.491 206.76C409.72 207.705 409.58 208.311 409.711 208.851C409.809 209.255 410.009 209.493 410.377 209.832C411.845 211.763 412.433 214.194 414.068 216.228C415.103 217.549 415.798 219.239 416.628 220.896C418.699 227.684 420.603 234.369 423.484 240.96C425.344 244.511 427.54 248.267 429.907 251.553C430.704 253.075 431.943 254.062 432.204 255.142C432.27 255.412 432.335 255.682 432.266 255.984L432.462 256.794C433.736 262.059 431.927 265.212 427.066 266.389C426.391 266.552 425.851 266.683 425.144 266.711C423.491 266.968 422.554 266.052 421.344 265.773C420.571 265.532 419.83 265.425 419.327 265.118C416.379 262.974 413.058 261.062 412.47 258.632C412.372 258.227 412.306 257.956 412.343 257.519C412.201 253.98 411.744 252.09 411.646 251.685C411.319 250.335 410.722 249.05 409.99 247.798C409.291 246.681 408.76 245.666 408.499 244.586C407.976 242.426 407.388 239.996 405.817 238.232C404.313 236.739 401.924 236.317 400.844 236.578C400.439 236.676 399.932 236.942 399.56 237.175C397.493 238.675 396.87 240.827 395.074 242.262C393.818 243.566 392.742 243.255 390.811 244.723C388.474 246.288 387.312 248.571 386.382 251.226C385.698 252.534 384.708 254.346 384.294 255.59C383.979 257.238 384.301 259.161 384.726 260.916C385.329 265.772 385.164 269.813 380.495 272.372C378.732 273.942 377.144 274.469 376.334 274.665C373.769 275.286 367.67 275.476 365.351 274.751C363.627 274.186 362.71 272.985 361.916 271.654C361.131 273.602 360.192 275.396 359.03 277.139C358.486 277.842 357.676 278.038 356.861 278.807C356.489 279.04 355.981 279.305 355.576 279.403C355.441 279.436 355.2 279.636 352.108 279.242C351.535 279.238 350.962 279.234 350.422 279.364C348.127 279.92 346.004 280.005 343.886 279.518C343.718 279.415 343.415 279.345 343.01 279.443C342.74 279.509 342.47 279.575 342.098 279.808C341.018 280.069 339.774 279.655 338.596 279.512C336.878 279.499 335.36 279.722 333.707 279.979C330.337 280.224 327.134 280.571 323.931 280.917C320.151 281.832 318.158 282.457 317.483 282.62C316.132 282.947 314.615 283.171 313.065 283.261C310.499 283.881 308.283 282.99 305.587 283.07L305.182 283.168C303.967 283.462 303.581 285.413 302.898 286.722C301.624 290.317 302.6 294.94 300.083 298.122C298.957 299.966 296.862 300.759 295.782 301.02C293.892 301.478 290.629 300.982 289.631 299.223C288.867 297.836 288.131 297.156 287.366 295.769C286.439 293.706 286.242 292.897 285.347 290.97C284.992 288.913 284.866 287.8 284.768 287.394C284.572 286.584 284.24 285.807 283.909 285.029L282.178 277.874C280.882 275.472 280.392 273.447 280.163 272.502C279.934 271.557 279.673 270.477 279.579 269.499L279.351 268.555C278.959 266.935 279.106 265.184 278.551 262.889C277.721 261.232 277.427 260.016 277.264 259.341C277.1 258.666 276.97 258.126 276.941 257.418C275.376 255.082 273.065 253.212 271.974 250.475L271.745 249.529C271.059 246.694 272.598 243.606 272.791 240.272C272.17 237.708 271.709 236.391 271.61 235.985C271.349 234.905 271.223 233.792 271.232 232.646C270.741 230.621 268.906 228.35 268.346 226.628C268.047 225.985 267.553 224.533 266.998 222.238C267.035 221.801 266.937 221.396 266.839 220.991C266.447 219.371 265.244 217.946 264.819 216.191L264.623 215.382C264.505 213.124 263.811 211.433 264.806 209.049C264.777 208.341 264.884 207.601 265.126 206.828C265.54 205.585 266.591 204.615 266.637 203.032C266.473 202.357 266.176 201.715 266.143 201.58C266.045 201.175 266.114 200.872 266.184 200.569C266.36 199.527 266.802 198.991 267.379 198.423C269.175 196.988 270.358 196.558 270.763 196.46C271.438 196.297 272.146 196.268 272.919 196.51C275.913 197.071 278.773 197.665 281.701 197.957C283.35 198.273 284.597 198.114 286.213 198.295C287.257 198.471 295.069 198.867 295.879 198.671C299.017 198.054 305.395 196.653 314.71 194.398C316.968 194.281 319.026 193.926 321.41 194.921C322.179 195.735 323.832 195.478 324.769 196.394C326.776 198.195 326.964 200.15 327.192 201.096C328.238 205.416 327.137 208.541 322.477 209.955C322.374 210.123 322.104 210.188 321.969 210.221C321.564 210.319 320.991 210.314 320.354 210.04C318.067 209.45 315.943 209.535 313.28 209.751C311.362 209.501 309.206 209.45 307.288 209.2C306.515 208.959 305.705 209.155 304.76 209.384C301.655 210.135 298.591 209.877 295.793 210.125C293.735 210.48 292.017 210.467 291.477 210.598C290.532 210.826 289.819 211.427 289.308 212.266C287.989 217.444 290.899 224.743 291.027 230L291.191 230.675C291.355 231.35 291.653 231.992 291.951 232.635C292.618 233.617 293.117 234.496 294.062 234.268C294.197 234.235 294.466 234.169 294.568 234.002C294.736 234.104 295.006 234.038 295.411 233.94C295.816 233.842 296.459 233.544 297.236 233.213C297.846 232.78 298.623 232.448 299.298 232.285C299.973 232.122 301.691 232.135 303.884 231.747C304.526 231.449 305.337 231.252 306.012 231.089C306.822 230.893 307.631 230.697 308.339 230.669C309.922 230.715 311.366 231.365 313.015 231.681C315.939 232.545 316.765 234.775 317.124 236.26C317.255 236.8 317.25 237.373 317.278 238.081C317.224 240.809 315.89 243.561 313.73 244.084C313.46 244.149 313.19 244.215 312.752 244.178C310.834 243.927 308.575 244.046 306.215 244.331C304.297 244.081 302.071 244.334 299.948 244.419C299.646 244.349 299.375 244.414 299.106 244.479C298.566 244.61 298.091 245.011 297.551 245.142C297.146 245.24 296.875 245.306 296.438 245.269C296 245.232 295.562 245.194 295.157 245.292C294.752 245.39 294.515 245.59 294.143 245.823C291.839 247.524 289.764 250.17 289.57 253.504C289.438 257.68 290.14 262.942 294.267 265.23C295.44 265.946 296.52 265.685 297.465 265.456C298.005 265.325 300.202 264.365 301.148 264.137C301.552 264.039 301.822 263.973 302.125 264.043C303.643 263.819 305.087 264.469 306.605 264.245C307.685 263.984 308.761 264.295 309.939 264.438C310.646 264.41 311.321 264.246 311.996 264.083L314.156 263.561C314.831 263.397 315.506 263.233 316.214 263.205C318.607 263.055 320.832 262.802 323.127 262.247C325.152 261.757 327.28 261.099 329.207 260.204C333.392 259.191 337.279 257.535 341.105 255.037C341.952 254.403 342.631 253.668 343.711 253.406C344.656 253.177 345.663 253.792 346.436 254.033C346.738 254.103 347.008 254.038 347.278 253.973C347.683 253.875 347.921 253.674 348.056 253.642C348.326 253.576 348.596 253.51 348.899 253.58C350.989 253.933 353.583 255.059 355.744 256.414C355.127 249.541 353.878 242.841 355.13 236.065C355.004 234.953 354.575 233.77 354.751 232.728C354.797 231.145 355.275 230.171 355.419 228.993C355.817 225.324 355.07 221.646 355.939 218.148C356.345 213.334 356.347 208.617 357.359 203.942C357.799 199.263 359.146 194.792 358.678 189.903C359.542 186.979 359.052 184.953 358.804 182.155C358.841 181.718 358.743 181.312 358.645 180.907C358.35 179.691 355.899 174.283 355.899 174.283C355.735 173.608 355.674 172.765 355.883 171.857C355.994 170.544 355.536 168.655 355.717 167.039C355.967 165.121 357.191 163.681 358.415 162.241C359.671 160.937 361.063 159.6 362.72 158.77L362.957 158.569C363.329 158.336 363.87 158.206 364.274 158.108C365.76 157.749 367.506 158.469 369.126 158.077C369.531 157.979 369.801 157.914 370.038 157.714C370.545 157.448 371.085 157.317 371.49 157.219ZM380.107 198.723C377.406 199.376 375.035 205.524 375.786 208.629L375.885 209.034C376.231 212.237 375.265 215.329 376.049 218.569C377.103 221.744 382.842 220.069 384.598 219.644L388.243 218.762C389.053 218.566 389.728 218.403 390.301 218.407C390.739 218.444 391.278 218.313 391.818 218.183C392.358 218.052 393.606 217.893 394.56 216.519C394.973 215.275 395.387 214.032 395.126 212.952C395.061 212.682 394.995 212.412 394.795 212.175C394.529 211.667 390.625 206.752 390.289 206.548C389.083 205.696 388.486 204.412 388.09 203.364C387.195 201.437 385.583 200.684 383.701 199.996C382.593 199.55 381.689 198.768 380.107 198.723ZM174.774 59.9052C175.878 59.7834 176.645 60.3976 177.811 60.8281C180.08 61.1368 181.874 62.1961 183.177 63.8691C184.192 65.3537 185.427 66.6529 186.271 68.3261C187.751 67.111 189.769 66.5523 191.611 66.0136C195.891 65.5417 199.22 66.5724 201.843 66.2832C202.671 66.1918 203.484 65.9618 204.297 65.7324L205.816 65.5654C206.231 65.5198 206.798 65.5971 207.228 65.6894C208.47 65.5526 209.098 66.1816 210.065 66.0752C212.903 65.2032 215.665 64.8982 218.549 64.4404C222.875 64.3827 226.787 64.3706 230.652 63.9443L231.204 63.8838C232.999 63.6858 234.978 63.8866 237.125 64.3486C240.621 65.64 243.103 69.1396 243.469 72.4531L243.56 73.2822C242.744 76.027 240.564 79.0617 237.879 80.0566L237.603 80.0879C237.204 80.2716 236.927 80.302 236.513 80.3476C234.856 80.5301 233.216 79.5927 230.547 79.4677C229.703 79.421 228.875 79.5125 227.908 79.6191C227.218 79.6953 225.438 80.0311 222.816 80.3203C222.401 80.366 221.68 80.1658 220.515 79.7353C219.089 79.4734 217.693 79.488 216.45 79.625C216.036 79.6706 215.913 79.8244 215.499 79.8701C214.118 80.0223 212.707 79.8977 211.28 79.6357C209.992 79.3586 208.734 79.3579 207.216 79.5254C203.748 81.0257 199.851 81.1758 198.789 85.4853C198.451 86.2213 198.39 86.9269 198.466 87.6172C198.481 87.7552 198.634 87.878 198.68 88.292C198.756 88.9821 198.679 89.5498 198.602 90.1172C198.155 92.4023 198.03 95.0715 200.406 96.3466C201.587 96.9152 202.737 97.2072 203.98 97.0703C204.67 96.9942 205.882 96.5813 207.125 96.4443C208.091 96.3378 208.935 96.3849 209.778 96.4316C212.585 96.5413 216.375 96.6822 219.182 96.792L228.018 95.8174C230.503 95.5433 232.911 95.8373 235.364 96.5449C236.959 97.0677 237.925 98.2185 239.55 99.0175C241.236 100.369 242.571 101.06 243.183 102.81C243.426 105.019 243.654 107.09 243.192 109.237C242.777 110.541 241.764 111.491 240.766 112.579C239.047 113.467 237.681 115.015 235.932 115.627C232.556 116.698 229.135 117.356 225.407 117.767C223.934 118.348 222.86 118.746 221.357 119.052C218.119 120.107 215.724 122.468 213.299 124.552C211.288 126.59 208.033 130.023 208.291 132.37C208.306 132.508 208.338 132.784 208.506 133.045C209.134 133.674 209.747 134.166 210.315 134.243C212.691 135.518 214.884 136.395 217.261 137.67C218.441 138.238 219.715 138.377 220.957 138.24C222.476 138.073 223.58 137.951 225.159 138.336C226.141 138.367 227.261 138.384 228.228 138.277C228.78 138.216 229.317 138.017 229.869 137.956C233.459 137.56 239.41 138.302 242.63 139.624C244.194 139.871 246.127 139.658 247.768 140.595C248.948 141.163 249.608 142.069 250.65 142.652C252.275 143.451 253.609 144.143 254.467 145.585C256.413 148.025 257.515 150.42 257.805 153.043C257.942 154.286 257.726 156.127 257.294 158.55C256.878 161.111 254.636 163.594 250.83 165.83C250.155 166.044 249.342 166.273 248.651 166.35C247.961 166.426 246.397 166.179 243.774 166.469C240.828 166.374 238.452 165.099 235.661 163.869C232.916 163.054 229.987 161.84 227.012 161.47C226.306 161.408 225.463 161.36 224.773 161.436C224.082 161.513 223.131 161.758 222.164 161.864C221.474 161.94 220.922 162.001 220.355 161.924C219.925 161.831 219.372 161.893 218.958 161.938C217.992 162.045 216.795 162.596 215 162.794C207.453 162.788 203.191 159.624 199.423 153.332C198.366 151.352 197.739 149.465 197.525 147.532C197.51 147.394 197.572 146.688 197.496 145.998C197.313 144.341 196.993 142.699 196.672 141.058C195.051 135.227 193.169 129.565 191.548 123.735C190.905 121.71 190.83 119.762 190.494 117.982C189.653 115.42 188.872 113.41 188.03 110.848C187.909 109.743 188.477 108.562 188.356 107.458C188.158 105.663 187.837 104.021 187.639 102.227C187.579 100.417 187.534 98.7446 187.352 97.0879C187.309 96.7028 187.259 96.3184 187.203 95.9365C187.156 96.1412 187.109 96.3491 187.061 96.5605C186.599 98.7076 186.398 100.687 185.537 103.018C184.216 104.98 182.88 106.804 182.004 108.997C179.546 113.321 175.984 116.508 173.833 121.077C171.927 125.34 169.976 129.189 167.779 133.344C167.056 135.659 166.058 138.006 165.933 140.675C165.564 141.135 165.885 141.519 165.517 141.978C165.209 142.99 164.995 143.573 164.549 144.601C163.489 146.394 161.049 147.082 159.989 148.876C158.53 150.853 157.746 152.617 156.456 154.855C155.227 157.646 154.38 160.116 152.983 162.645C152.812 164.9 152.35 167.048 151.597 169.087C151.441 171.479 150.535 173.397 150.088 175.682C149.549 178.396 148.872 181.126 148.194 183.855C148.102 184.285 148.148 184.699 148.193 185.113C148.239 185.527 148.423 185.927 148.469 186.341C148.514 186.755 148.575 187.307 148.483 187.736C147.682 190.619 146.208 193.717 144.656 196.124C142.507 198.178 139.316 198.39 136.86 200.198C135.388 200.78 134.251 201.883 132.778 202.465C129.725 203.919 128.62 204.041 128.067 204.102C127.101 204.208 125.844 204.208 124.433 204.084C122.623 204.144 120.92 203.912 119.233 202.561C116.351 200.503 113.762 197.294 112.369 193.535C111.833 192.476 110.928 191.877 110.347 190.404C109.951 186.814 113.439 180.421 115.374 177.692C116.849 174.595 119.382 172.22 122.053 169.829C124.785 167.991 128.283 166.766 129.59 163.408C130.819 160.617 132.002 158.67 132.817 155.925C133.188 152.949 134.018 150.342 134.818 147.459C135.541 145.143 136.096 142.567 135.913 140.91C135.867 140.496 135.821 140.082 135.638 139.683C134.274 137.457 132.266 135.722 129.782 134.738C125.213 132.587 120.521 130.589 115.736 129.02C109.847 127.574 104.05 125.698 99.7745 121.139C97.6295 118.161 95.4995 115.321 94.1524 111.976C94.0305 110.871 93.3567 109.828 92.6827 108.784C92.4533 107.971 92.2242 107.157 92.1329 106.329C91.6916 102.325 93.7509 96.9277 97.0675 92.789C99.4623 90.4289 101.933 90.0163 103.037 89.8945C104.142 89.7727 105.139 89.9429 106.166 90.3886C113.037 91.867 117.297 97.5453 121.849 102.074C124.761 104.408 127.873 106.022 130.433 108.954C131.245 109.982 132.548 110.398 133.621 111.258C135.368 113.161 137.454 114.328 139.477 116.201C139.967 116.846 140.596 117.475 141.653 118.197C143.432 119.119 144.32 120.838 146.222 121.606C147.096 121.929 147.939 121.976 148.768 121.885C149.182 121.839 150.287 121.718 151.99 120.691C153.556 119.68 155.09 118.392 156.641 117.243C159.712 113.411 161.894 109.118 163.493 104.609C164.277 102.846 165.351 101.19 165.844 99.3193C166.306 97.1723 165.925 94.9788 166.801 92.7861C168.03 89.9954 167.65 86.5434 167.714 83.3222L167.698 83.1845C167.808 80.3775 168.239 77.9537 168.057 76.2968C168.011 75.8827 167.95 75.3305 167.767 74.9316C167.384 73.9957 167.139 73.0445 167.032 72.0781C166.85 70.4213 167.097 68.8563 167.911 67.3691C168.342 66.2038 168.496 65.0686 169.494 63.9804C171.029 62.6933 172.365 60.8688 174.359 59.9502L174.774 59.9052ZM22.0909 73.9453C24.3 73.7017 27.7207 74.303 32.4444 75.3193C33.4563 75.6269 34.4835 76.0719 35.4649 76.1035C36.0324 76.1806 36.6002 76.2581 37.1524 76.1972C37.7047 76.1363 38.6411 75.7539 40.2979 75.5713C42.0927 75.3734 43.9485 75.7273 45.8194 76.2197L46.0958 76.1894C46.6479 76.1284 47.4303 75.6235 47.9825 75.5625C48.2586 75.532 48.5353 75.5011 48.6886 75.624C51.0813 75.7794 52.9677 76.4096 54.4864 76.2422C54.9004 76.1965 55.1764 76.1661 55.5753 75.9824C57.692 76.1682 59.3329 77.1059 60.8516 76.9384C61.2657 76.8928 61.542 76.8618 61.8028 76.6933C65.0544 77.0336 68.0444 78.8001 71.0655 79.5849C72.6602 80.1077 74.3776 80.4775 75.9571 80.8623C78.3804 81.2938 80.0822 82.7832 81.4151 84.7324C82.6099 86.6968 83.5438 88.83 83.9102 90.8857C83.9396 92.4195 83.5242 93.7229 83.2774 95.2871C82.7089 96.4677 81.6801 97.2805 80.6973 98.5068C79.7605 100.147 78.5185 100.284 77.8282 100.36C77.414 100.406 76.8459 100.329 76.2784 100.252C75.573 100.19 74.7297 100.143 73.9014 100.234L72.3819 100.401C71.5537 100.493 70.7104 100.447 70.005 100.385C67.8578 99.9228 65.9408 99.0156 64.1622 98.0937C62.5218 97.1567 61.2498 95.76 59.379 95.2675C57.6462 94.7599 56.0512 94.2371 54.3184 93.7295C51.6495 93.6045 49.5792 92.5751 46.9102 92.4502C45.3915 92.6176 44.1792 93.0302 43.0899 93.29C41.6321 94.0097 39.9753 94.1925 38.4718 94.498C36.4009 94.7264 34.7888 96.5812 32.794 97.5C29.786 99.3688 27.6819 101.837 26.1915 104.796C24.8849 108.154 23.7169 111.497 24.0821 114.811C24.8291 120.318 29.7359 121.734 33.1876 121.353C33.7397 121.293 34.2922 121.231 34.8292 121.032C37.4981 121.157 40.5363 120.822 43.2813 121.638C43.5727 121.745 44.0023 121.838 44.6925 121.762C46.7025 120.981 48.6352 120.767 50.7061 120.539L52.3634 120.356C57.1956 119.824 63.3317 119.706 67.377 124.71C67.5304 124.833 70.6224 130.078 70.6397 130.22C70.6702 130.496 70.7001 130.772 70.5772 130.926C70.5001 131.493 70.5613 132.045 70.6221 132.598L70.7442 133.702C70.8051 134.254 70.7276 134.821 70.3595 135.281C68.6386 138.685 65.3687 140.723 61.6866 141.548C61.2878 141.731 61.0118 141.762 60.5977 141.808C58.8029 142.005 51.5032 140.436 50.046 139.897L47.1319 138.821C46.1199 138.514 45.0922 138.067 44.0802 137.76C43.0684 137.452 42.1173 137.697 41.1055 137.39C36.0753 136.128 32.6231 136.508 30.8282 136.706C29.3096 136.873 27.8062 137.179 26.3028 137.484C25.3517 137.729 24.8751 138.48 23.9698 139.139C20.7617 141.728 19.1643 143.722 19.6514 148.14C19.758 149.106 20.0007 152.573 23.0655 156.288C26.2378 159.711 30.3647 159.117 34.7208 159.335C35.871 159.627 36.6227 160.103 37.8653 159.966C38.5708 160.028 39.522 159.784 40.2579 160.122C44.8737 161.43 48.5394 161.723 50.6104 161.495C52.1291 161.328 53.4796 160.899 54.8145 160.333C55.8734 159.797 56.9629 159.538 58.0675 159.416C58.7578 159.34 59.7393 159.371 60.8438 159.249C61.8103 159.142 62.6236 158.913 63.5596 158.53C63.8223 158.361 71.4157 156.267 71.5538 156.252C72.2897 156.59 73.1331 156.637 73.8233 156.561C74.5136 156.484 75.3116 156.117 76.4161 155.995C76.9683 155.934 77.5206 155.873 78.088 155.95C81.3091 156.014 84.0383 157.949 86.4757 159.776C88.8055 161.895 89.9235 164.428 90.1671 166.637C90.2127 167.051 90.2585 167.465 90.1661 167.894C90.3344 168.155 90.3642 168.432 90.3946 168.708C90.501 169.674 90.056 170.701 89.5333 172.296C89.0713 174.443 87.5662 176.007 86.2149 177.693C84.2658 179.026 81.9491 179.561 79.9239 180.203C78.8194 180.325 77.5461 180.186 76.2579 179.909C74.6936 179.662 73.2054 180.106 71.5802 179.307C67.1935 178.812 62.884 177.75 58.543 177.67C56.7177 177.592 54.9076 177.651 52.9747 177.864C50.2134 178.169 48.4639 178.781 46.1309 180.436C44.1198 182.474 41.2964 183.484 38.9014 185.845L37.6427 187.102C35.9226 189.248 29.1862 192.786 26.7315 193.336C25.6728 193.872 24.7822 194.668 23.6778 194.79C22.4809 195.341 21.2531 195.616 20.1485 195.738C18.8756 195.599 17.5565 195.046 16.0694 194.231C13.1571 191.897 11.6719 188.567 11.2608 184.84L11.1544 183.873C10.8498 181.112 9.77824 178.994 9.54988 176.923C9.4738 176.233 9.41281 175.681 9.47469 174.976C8.32868 169.652 7.97832 166.476 7.85652 165.371C7.61298 163.162 7.52298 161.076 7.4327 158.99C6.77806 153.053 7.85599 147.624 7.35359 143.067L7.1407 141.135C6.89714 138.926 5.04274 137.314 3.74031 135.641C1.85622 132.494 0.278103 129.594 0.080157 127.799C-0.0416358 126.694 -0.224438 125.037 1.23445 123.06C3.39997 119.886 7.48229 117.619 7.7159 113.401C7.99307 112.113 7.99434 110.855 7.88777 109.889C7.72032 108.37 7.59839 107.266 8.12117 105.671C8.15477 102.174 8.6797 98.0632 9.29598 94.7812C10.4493 91.3003 10.621 87.7874 11.4981 84.3369C12.2666 82.4356 12.1465 80.073 12.6388 78.2021C13.592 75.442 16.2149 75.1517 18.4239 74.9082C19.6207 74.357 20.8484 74.0823 22.0909 73.9453ZM311.211 39.664C313.895 39.927 316.134 41.2179 318.757 40.9287C319.447 40.8526 320.306 41.0369 321.042 41.375C328.571 45.0167 328.327 44.0658 331.173 52.1367C331.341 52.3975 331.371 52.6741 331.401 52.9502C331.462 53.5024 331.263 54.2231 330.971 55.373L331.138 56.8916C331.593 62.2914 327.095 67.1199 322.445 69.3095C319.7 69.752 317.92 70.0879 317.23 70.164C314.192 70.499 309.605 70.725 305.987 68.3291C304.715 66.9321 302.889 66.8539 301.049 66.6377C297.706 65.4691 294.792 64.3935 291.556 64.1914C290.451 64.313 289.301 64.0202 288.182 64.0039C287.89 63.8963 287.614 63.9271 287.476 63.9424C285.819 64.1253 284.315 65.6881 282.305 66.4687C277.61 68.2441 277.038 73.1982 277.358 76.0976C277.434 76.7879 277.663 77.6012 277.877 78.2763C278.596 80.9919 281.555 82.4823 283.302 84.3857C285.8 86.7654 289.451 86.922 292.764 87.8144C297.242 89.1373 300.968 89.9848 304.834 89.5586L305.801 89.4511C310.633 88.9184 314.989 90.3953 319.651 90.8593C328.103 91.4648 333.42 97.8652 336.052 105.261C336.296 106.212 336.403 107.179 336.51 108.145C336.616 109.112 336.677 110.922 336.966 113.545C336.674 114.695 336.396 115.983 336.518 117.088C336.762 118.039 336.853 118.868 336.96 119.834C337.462 124.39 335.802 129.605 334.247 135.785C333.585 138.653 332.31 141.03 331.649 143.897C330.097 146.304 328.79 149.662 327.515 152.039C325.656 155.458 322.985 157.849 320.053 160.408C318.656 161.68 317.949 162.876 316.537 164.01C314.864 165.312 312.394 165.725 310.369 166.367L309.54 166.458C308.159 166.61 306.042 167.683 303.971 167.911C303.005 168.018 302.023 167.986 301.134 167.525C299.569 167.279 298.772 166.388 297.592 165.819C295.414 165.081 293.742 165.126 291.825 164.22C289.909 163.313 287.977 162.268 285.738 160.978C284.052 159.626 283.118 157.493 281.141 156.034C279.455 154.683 278.228 153.7 277.079 152.15C274.505 149.08 270.242 147.175 268.297 143.477C267.409 141.758 266.581 140.59 266.475 139.624C266.414 139.072 266.491 138.504 266.583 138.075C266.86 136.787 267.306 135.76 267.139 134.241C266.988 131.603 269.366 130.362 270.135 128.461C270.458 127.587 270.811 126.989 271.317 126.514C272.669 124.827 275.124 124.277 277.257 123.343C278.316 122.807 279.405 122.548 280.509 122.426C281.475 122.319 283.424 122.243 286.169 123.059C287.871 123.29 288.837 124.442 289.925 125.439C293.068 127.329 294.769 130.076 296.638 133.084C297.45 134.112 297.326 135.524 298 136.567C298.582 138.04 299.117 139.1 299.837 140.558C300.511 141.601 301.845 142.293 303.149 142.708C304.682 142.679 306.186 142.372 307.75 142.619C307.903 142.742 308.179 142.711 308.317 142.696C309.008 142.62 309.745 141.701 310.804 141.165C316.666 138.562 318.235 132.519 320.034 127.29C320.372 126.554 320.45 125.987 320.389 125.435C320.374 125.296 320.206 125.035 320.191 124.897C320.13 124.345 320.206 123.777 320.283 123.21C320.5 121.369 320.992 119.498 321.178 117.382C319.972 110.248 319.806 107.472 312.477 104.367L312.2 104.397C310.804 104.412 309.408 104.426 308.027 104.578C305.68 104.837 303.517 105.495 301.86 105.678C300.066 105.876 298.24 105.797 296.384 105.442C295.234 105.15 293.915 104.596 292.627 104.319C290.234 104.164 287.919 103.441 285.71 103.685C283.915 103.882 281.906 103.406 280.066 103.189C274.467 103.108 268.607 101.938 263.455 99.5713C256.832 95.2707 253.754 88.902 253.206 83.9316C253.069 82.689 253.056 81.2929 253.18 79.8818L253.118 79.33C252.936 77.6735 252.261 76.6294 252.2 76.0771C252.124 75.3868 252.202 74.819 252.54 74.083C253.433 70.7704 254.463 67.4428 256.23 64.4531C256.813 63.4105 256.676 62.1676 257.26 61.125C258.259 58.779 260.469 57.2775 262.035 55.0088C267.317 48.4172 275.879 46.2151 283.321 42.7392C285.224 42.25 287.141 41.8996 289.074 41.6865C290.869 41.4886 293.938 41.4297 297.941 40.9882L300.841 40.6679C302.498 40.4853 304.092 41.008 305.902 40.9482C306.332 41.0406 306.746 40.9949 307.16 40.9492C308.127 40.8426 309.462 40.2761 311.211 39.664ZM405.266 47.3125C413.027 45.3724 427.01 45.456 435.587 51.584C444.164 57.7121 447.832 68.7854 443.976 82.3193C436.854 107.27 409.051 111.399 392.76 99.6513C385.945 94.7531 376.978 82.9105 380.373 68.5722C383.307 56.1385 398.226 49.0753 405.266 47.3125ZM434.931 68.0009C432.722 67.9836 430.917 69.7602 430.899 71.9687C430.895 72.4376 430.83 73.3976 430.692 74.3916C430.625 74.8773 430.548 75.319 430.467 75.6728C430.376 76.069 430.32 76.1857 430.349 76.125C429.937 77.0073 429.58 77.6697 429.242 78.2734C428.925 78.8403 428.518 79.5366 428.159 80.2509C427.212 82.1363 427.056 82.6964 426.432 83.7783C426.04 84.4563 425.449 85.3255 424.812 86.2549C423.445 87.5856 421.902 88.7302 420.22 89.6338C420.087 89.6508 419.935 89.6718 419.753 89.6953C419.12 89.7148 418.497 89.7457 417.819 89.789C417.778 89.7904 417.74 89.7905 417.707 89.791C415.882 89.2027 413.845 89.9995 412.933 91.7588C411.917 93.72 412.684 96.1341 414.645 97.1504C414.724 97.1913 414.805 97.227 414.884 97.2627C415.099 97.4296 415.367 97.6093 415.695 97.7675V97.7685C415.73 97.787 416.364 98.1544 417.003 98.2607C417.165 98.2877 417.574 98.3658 417.945 98.4043C418.333 98.4443 418.892 98.4701 419.482 98.3271C419.506 98.3213 419.53 98.3118 419.556 98.3047C419.854 98.2788 420.161 98.2132 420.47 98.0966L421.763 97.6084V97.5507C421.823 97.5241 421.882 97.4938 421.942 97.4668C423.026 97.2842 424.457 96.9218 426.125 95.9853C427.436 95.2494 429.123 94.16 430.336 92.3525C430.682 91.8369 431.184 91.1132 431.702 90.3496C435.314 86.361 437.844 81.3961 438.748 75.9814L438.75 75.9697C438.825 75.505 438.822 74.9996 438.737 74.497C438.836 73.5737 438.893 72.6875 438.899 72.0332C438.916 69.8246 437.139 68.0191 434.931 68.0009ZM432.53 4.53415C435.334 1.91959 441.664 -1.33339 448.479 0.571257C454.382 2.22753 456.949 8.60365 457.387 11.5615C457.872 14.8149 456.996 20.5527 453.483 23.8535C449.874 27.2369 444.338 28.2667 437.949 26.1845C426.178 22.3632 425.811 10.8044 432.53 4.53415ZM452.45 8.03415C452.082 8.03418 451.798 8.14238 451.792 8.1445C451.709 8.17322 451.643 8.20238 451.605 8.21969C451.524 8.25628 451.456 8.2933 451.407 8.32126C451.356 8.35057 451.305 8.38208 451.255 8.41501L451.107 8.51852C450.612 8.88236 450.364 9.37242 450.262 9.79196C450.172 10.1616 450.192 10.4803 450.207 10.6347C450.222 10.7912 450.251 10.9498 450.257 10.9843C450.261 11.0061 450.263 11.0185 450.264 11.0234L450.282 11.2119C450.291 11.2733 450.301 11.332 450.313 11.3877C450.309 11.55 450.327 11.7168 450.37 11.8857C450.4 12.003 450.429 12.1326 450.459 12.25C450.459 12.254 450.46 12.2586 450.46 12.2627C450.533 12.3017 450.519 12.8709 450.519 12.9316C450.533 13.3781 450.519 13.825 450.459 14.2715C450.459 14.3889 450.4 14.53 450.385 14.6357C450.325 14.8589 450.266 15.0707 450.191 15.2939C450.117 15.5171 450.043 15.729 449.954 15.9404C449.922 16.0248 449.881 16.1089 449.839 16.1933C449.713 16.3504 449.583 16.4947 449.441 16.6289C448.876 17.1649 448.425 17.5957 448.028 17.956C447.371 18.2653 446.803 18.5801 446.523 18.7207C446.372 18.7962 446.315 18.8039 445.894 18.9834C445.859 18.998 445.783 19.0252 445.65 19.0615C445.588 19.0784 445.524 19.0942 445.452 19.1123C445.389 19.1282 445.297 19.1512 445.218 19.1728C444.941 19.2483 444.709 19.3507 444.584 19.4062C444.498 19.4446 444.486 19.4508 444.441 19.4707C444.439 19.4712 444.438 19.4722 444.437 19.4726C444.39 19.4887 444.343 19.5071 444.296 19.5273C443.454 19.7629 442.835 20.5346 442.835 21.4521C442.835 22.2652 443.321 22.9635 444.018 23.2754C444.301 23.495 444.598 23.6146 444.875 23.6748C445.172 23.8155 445.454 23.8783 445.674 23.9052C445.977 23.9423 446.246 23.9248 446.428 23.9052C446.613 23.8853 446.783 23.8539 446.885 23.8349C446.946 23.8235 446.978 23.8171 447.015 23.8105C447.038 23.8064 447.05 23.8051 447.053 23.8047C447.56 23.7375 448.009 23.5612 448.357 23.4072L448.378 23.4492C448.645 23.3131 448.905 23.1685 449.158 23.0205C450.046 22.7029 450.934 22.2146 451.73 21.4424C452.553 20.6436 453.767 19.5434 454.48 18.0078C454.855 17.198 455.345 15.864 455.586 14.4609C455.792 13.2609 455.913 11.4881 455.065 10.0322L454.882 9.74606L454.768 9.59469C454.586 9.37005 454.382 9.19563 454.199 9.06442C453.858 8.45005 453.203 8.0343 452.45 8.03415Z" fill="black"/>
</svg>
