<svg width="479" height="390" viewBox="0 0 479 390" fill="none" xmlns="http://www.w3.org/2000/svg">
<path d="M200.836 237.12C205.426 236.009 208.706 238.931 211.036 242.654C212.639 244.553 213.465 246.783 213.987 248.943C214.22 249.315 214.286 249.585 214.384 249.99C214.613 250.935 214.366 252.282 214.354 254C214.295 257.301 214.674 260.639 215.426 263.744L215.654 264.689C216.448 266.998 218.169 269.253 220.277 270.767C221.864 269.998 223.431 269.136 224.933 268.169C227.273 266.03 229.945 264.669 232.919 263.378C233.901 262.711 235.019 262.012 236.099 261.751C236.336 261.551 236.606 261.485 236.876 261.42C237.281 261.322 237.584 261.391 238.562 261.298C239.94 261.678 241.327 260.914 243.04 261.5C243.798 261.619 244.521 261.808 245.206 262.056C245.504 261.929 245.803 261.822 246.099 261.751C246.336 261.551 246.606 261.485 246.876 261.42C247.281 261.322 247.584 261.391 248.562 261.298C249.94 261.678 251.327 260.914 253.04 261.5C259.131 262.455 262.896 267.976 263.778 271.621C264.04 272.701 264.828 275.368 262.88 279.127C261.406 282.485 258.595 284.451 256.3 285.007C255.625 285.17 255.084 285.301 254.512 285.297C250.327 286.309 247.929 287.033 247.524 287.131C245.5 287.621 243.544 287.808 241.626 287.557C239.904 288.117 238.316 288.644 236.561 289.069C235.616 289.298 235.043 289.294 234.503 289.425C232.613 289.882 230.756 290.475 229.099 291.304C223.644 295.34 223.594 297.496 222.871 303.959C223.022 306.352 222.805 308.405 222.89 310.528C222.983 311.506 223.18 312.316 223.408 313.26L223.898 315.286C224.16 316.366 224.286 317.478 224.277 318.624C224.543 319.131 224.674 319.672 224.772 320.077C224.935 320.752 225.029 321.73 224.778 323.648C224.667 324.961 224.659 326.106 224.953 327.321C225.051 327.726 225.512 329.044 226.301 331.711C227.131 333.368 228.337 334.22 228.827 336.245C229.187 337.73 230.426 338.716 230.688 339.796C230.753 340.066 230.818 340.336 230.748 340.638C230.711 341.076 230.777 341.347 230.875 341.752C230.973 342.157 231.103 342.697 231.77 343.678C231.937 343.781 232.004 344.051 232.036 344.186C232.265 345.131 231.721 345.834 231.949 346.779C231.982 346.914 232.047 347.184 232.215 347.287C233.38 349.148 234.648 350.842 235.612 352.467C236.078 353.211 236.409 353.989 236.638 354.934C236.866 355.879 236.919 357.868 237 360.563C237.764 361.95 238.533 362.764 238.794 363.844L238.925 364.384C239.68 366.914 240.141 368.231 240.175 368.369C240.436 369.449 240.428 370.595 240.284 371.773C240.463 374.874 240.498 379.153 237.385 381.05C236.538 381.683 235.858 382.42 235.281 382.988L233.374 385.736C232.862 386.574 231.982 387.073 231.037 387.301L230.633 387.4C229.217 387.457 227.834 387.649 226.484 387.975C226.08 388.073 225.708 388.306 225.572 388.339C224.087 388.698 222.672 388.755 221.158 388.407C219.673 388.766 219.031 389.065 218.896 389.097C218.221 389.261 217.648 389.256 217.01 388.982C216.392 388.809 215.77 388.623 215.146 388.43L215.018 388.459C213.731 388.706 212.482 388.711 211.158 388.406C209.674 388.765 209.031 389.064 208.896 389.096L208.647 389.15C208.076 389.255 207.568 389.221 207.01 388.981C200.821 387.243 194.018 384.685 192.187 377.909L192.104 377.583C191.777 376.233 191.687 374.682 191.732 373.099C191.917 370.911 191.801 368.653 192.223 366.264C192.857 361.69 194.498 357.122 195.757 352.663L196.004 351.772C196.702 350.081 198.186 348.868 198.506 347.05L198.533 346.873C198.955 344.484 199.141 342.295 198.925 339.633C198.566 338.148 198.709 336.968 198.755 335.385L198.231 333.225C198.109 332.719 197.893 332.155 197.666 331.634L197.44 331.131C196.205 326.03 196.867 321.007 196.331 316.161L196.275 315.692C196.293 313.401 195.638 310.701 195.377 309.621C194.82 307.321 193.709 303.834 191.94 301.5C185.003 303.56 180.828 304.702 179.673 304.981C176.298 305.798 172.992 306.311 169.589 306.421C167.534 306.301 165.26 306.396 163.07 306.167C161.917 306.296 160.759 306.383 159.589 306.421L158.957 306.39C155.769 306.267 152.145 306.516 149.154 305.23C145.019 304.087 142.656 300.229 140.121 296.842C139.954 296.739 139.789 296.063 139.495 294.848C139.647 292.525 139.297 289.895 140.292 287.51C140.673 286.132 141.623 285.33 142.973 285.004C142.986 285.004 143.423 285.004 144.153 284.854L144.49 284.779C145.317 284.579 146.144 284.379 146.858 284.11L147.157 283.991C149.317 283.468 151.478 282.945 153.601 282.86C154.613 282.615 155.54 282.014 156.542 281.724L156.743 281.671C158.135 281.334 159.315 281.676 160.681 281.425L160.956 281.366C161.892 281.247 162.886 281.033 163.837 280.809L164.77 280.586C165.833 280.328 167.801 279.742 170.809 278.987L172.162 278.654C173.512 278.327 174.998 277.967 176.348 277.64C177.931 277.686 179.313 277.494 180.663 277.168C181.136 277.053 182.538 276.714 184.986 275.835L186.101 275.424C189.443 274.472 192.443 269.743 191.594 266.233C191.321 265.549 191.106 264.77 190.919 264.025L190.74 263.296L190.315 261.541C190.04 260.402 189.526 259.32 188.691 258.434L188.521 258.259C187.966 257.518 187.593 256.624 187.356 255.779L187.262 255.42C187.176 255.066 187.269 254.996 187.228 254.714L187.2 254.578C187 253.751 186.696 252.949 186.199 252.194L185.975 251.873C185.013 250.48 184.385 249.116 184.09 248.164L183.983 247.782C183.853 247.242 183.722 246.701 183.727 246.129L183.744 243.838C183.723 243.307 183.835 242.663 183.981 241.992L184.134 241.314C184.855 239.568 186.716 238.402 188.471 237.977C189.029 237.628 189.625 237.431 190.23 237.271L190.836 237.12C193.348 236.512 195.466 237.114 197.252 238.391C197.654 238.216 198.065 238.076 198.471 237.978C199.215 237.512 200.026 237.316 200.836 237.12ZM207.959 386.248V386.249C207.96 386.248 207.962 386.248 207.964 386.247L207.965 386.246C207.962 386.247 207.96 386.247 207.959 386.248ZM197.675 299.052L197.27 299.15C196.325 299.379 195.78 300.081 194.868 300.445C195.072 300.752 195.258 301.055 195.426 301.346C196.897 303.901 197.808 306.912 198.293 308.916C198.535 309.914 199.251 312.83 199.272 315.491C199.593 318.138 199.569 320.855 199.617 323.248C199.667 325.691 199.789 327.951 200.295 330.168C200.586 330.814 200.943 331.675 201.148 332.52L201.671 334.68L201.765 335.071L201.753 335.472C201.706 337.105 201.627 337.774 201.767 338.573L201.841 338.926L201.896 339.155L201.915 339.389C202.156 342.361 201.944 344.812 201.487 347.394C201.245 349.007 200.486 350.233 199.941 351.05C199.343 351.949 199.045 352.332 198.836 352.781C197.461 357.813 195.827 362.106 195.193 366.676L195.187 366.731L195.177 366.787C195.001 367.782 194.931 368.785 194.886 369.88C194.845 370.874 194.821 372.079 194.731 373.221C194.691 374.649 194.782 375.894 195.02 376.878C195.644 379.458 197.205 381.283 199.457 382.728C201.495 384.036 203.995 384.964 206.666 385.759L207.82 386.093L208.012 386.147L208.114 386.19C208.223 386.15 208.371 386.096 208.554 386.034C208.67 385.994 208.797 385.952 208.938 385.908C205.696 384.113 203.065 381.554 202.104 377.584C201.777 376.234 201.687 374.683 201.732 373.1C201.917 370.912 201.8 368.653 202.223 366.264C202.9 361.384 204.722 356.513 206.004 351.772C206.725 350.026 208.283 348.791 208.533 346.873C208.955 344.484 209.141 342.296 208.925 339.633C208.565 338.148 208.709 336.969 208.755 335.386L208.231 333.226C208.068 332.551 207.738 331.774 207.44 331.132C206.165 325.866 206.912 320.683 206.275 315.692C206.293 313.402 205.638 310.702 205.377 309.622C204.462 305.842 202.056 298.85 197.675 299.052ZM381.49 225.411C382.705 225.117 384.019 225.227 385.295 225.776C387.046 225.924 388.629 225.97 389.663 227.292C393.241 230.856 395.129 235.115 397.287 239.308C401.323 244.763 404.986 250.451 408.072 256.707C410.096 260.933 413.134 264.629 415.767 268.422C416.261 269.874 416.555 271.089 417.491 272.006C418.06 272.583 418.694 273.429 419.327 274.276L419.49 274.952C419.719 275.897 419.58 276.502 419.711 277.042C419.809 277.447 420.009 277.684 420.377 278.024C421.845 279.956 422.433 282.386 424.068 284.42C425.103 285.741 425.798 287.431 426.628 289.088C428.699 295.875 430.603 302.56 433.484 309.151C435.344 312.703 437.539 316.459 439.906 319.745C440.703 321.267 441.943 322.253 442.204 323.333C442.269 323.603 442.335 323.873 442.266 324.175L442.461 324.986C443.735 330.251 441.926 333.404 437.066 334.581C436.391 334.744 435.851 334.875 435.144 334.903C433.491 335.16 432.554 334.243 431.344 333.965C430.789 333.791 430.252 333.686 429.807 333.528C429.038 333.973 428.125 334.324 427.066 334.58L426.58 334.696C426.111 334.803 425.674 334.882 425.144 334.903C423.594 335.144 422.674 334.353 421.567 334.024L421.344 333.965C420.667 333.753 420.016 333.645 419.526 333.416L419.327 333.309C416.471 331.232 413.265 329.373 412.532 327.05L412.47 326.823C412.372 326.418 412.306 326.147 412.343 325.71C412.236 323.056 411.953 321.329 411.776 320.461L411.646 319.877C411.319 318.527 410.722 317.242 409.99 315.99C409.379 315.013 408.896 314.113 408.609 313.18L408.498 312.778C408.136 311.283 407.743 309.66 407.015 308.217C406.446 309.024 405.878 309.811 405.073 310.454C403.817 311.758 402.742 311.447 400.811 312.915C398.474 314.481 397.311 316.762 396.382 319.417C395.698 320.725 394.708 322.538 394.294 323.781C393.978 325.429 394.301 327.352 394.726 329.107C395.329 333.963 395.164 338.005 390.495 340.564C388.732 342.134 387.144 342.661 386.334 342.857C383.849 343.459 378.048 343.656 375.579 343.009C374.156 343.254 372.137 343.403 370.206 343.408C369.84 344.058 369.451 344.698 369.03 345.33C368.486 346.033 367.676 346.229 366.861 346.998C366.489 347.231 365.981 347.497 365.576 347.595C365.441 347.628 365.2 347.828 362.107 347.434C361.535 347.43 360.962 347.426 360.422 347.556C358.127 348.112 356.003 348.196 353.885 347.709C353.717 347.607 353.414 347.538 353.01 347.635C352.74 347.701 352.47 347.766 352.098 347.999C351.212 348.213 350.217 347.974 349.238 347.801C347.87 348.039 346.554 348.093 345.254 347.943C344.745 348.012 344.233 348.09 343.707 348.172C340.336 348.416 337.133 348.763 333.93 349.109C330.15 350.024 328.157 350.649 327.482 350.812C326.132 351.139 324.615 351.363 323.065 351.453C320.499 352.074 318.283 351.181 315.587 351.261L315.182 351.36C313.967 351.654 313.581 353.605 312.898 354.914C311.624 358.509 312.6 363.132 310.083 366.313C308.957 368.158 306.862 368.95 305.782 369.212C303.892 369.669 300.628 369.173 299.631 367.414C299.576 367.314 299.518 367.22 299.464 367.128C298.301 368.398 296.687 368.993 295.782 369.212C293.951 369.655 290.831 369.203 289.731 367.575L289.631 367.414C288.867 366.027 288.13 365.347 287.365 363.96C286.438 361.898 286.242 361.088 285.347 359.161C285.036 357.361 284.9 356.284 284.806 355.771L284.768 355.586C284.621 354.978 284.397 354.389 284.155 353.804L283.909 353.22L282.178 346.065C281.206 344.264 280.687 342.674 280.392 341.593L280.163 340.693C279.934 339.748 279.673 338.668 279.579 337.69L279.35 336.746C278.958 335.126 279.106 333.375 278.551 331.08C277.929 329.837 277.608 328.843 277.417 328.138L277.264 327.533C277.1 326.858 276.969 326.318 276.94 325.61C275.424 323.347 273.208 321.52 272.079 318.92L271.974 318.666L271.744 317.72C271.058 314.885 272.598 311.797 272.791 308.464C272.326 306.541 271.949 305.319 271.749 304.657L271.61 304.176C271.349 303.097 271.223 301.984 271.231 300.839C270.741 298.814 268.906 296.542 268.346 294.82C268.047 294.178 267.553 292.724 266.997 290.429C267.025 290.101 266.977 289.791 266.91 289.486L266.839 289.182C266.447 287.562 265.244 286.138 264.819 284.383L264.623 283.573C264.505 281.315 263.811 279.625 264.806 277.241C264.781 276.622 264.859 275.977 265.041 275.307L265.126 275.019C265.54 273.776 266.591 272.806 266.637 271.223C266.555 270.886 266.44 270.556 266.341 270.295L266.143 269.771C266.045 269.367 266.114 269.064 266.184 268.761C266.338 267.849 266.696 267.324 267.169 266.827L267.379 266.614C268.951 265.358 270.052 264.872 270.574 264.705L270.763 264.651C271.438 264.488 272.145 264.46 272.918 264.702C274.842 265.063 276.711 265.436 278.578 265.735C279.704 264.989 280.456 264.726 280.763 264.652C281.438 264.489 282.145 264.46 282.918 264.702C285.912 265.263 288.772 265.858 291.7 266.149C293.349 266.465 294.597 266.305 296.213 266.486C296.387 266.515 296.751 266.549 297.238 266.587C300.198 265.975 304.945 264.922 311.355 263.396L314.71 262.591C316.968 262.473 319.026 262.117 321.41 263.112C321.486 263.192 321.572 263.26 321.664 263.322C322.642 263.089 323.657 262.845 324.71 262.591C326.968 262.473 329.026 262.118 331.41 263.113C332.179 263.927 333.832 263.67 334.769 264.587C336.776 266.387 336.964 268.343 337.192 269.288C338.238 273.608 337.136 276.733 332.477 278.146C332.374 278.314 332.104 278.379 331.969 278.412C331.564 278.51 330.991 278.505 330.354 278.231C328.067 277.641 325.943 277.726 323.28 277.942C323.231 277.936 323.182 277.931 323.133 277.925C322.922 278.002 322.704 278.077 322.477 278.146C322.374 278.314 322.104 278.379 321.969 278.412L321.81 278.443C321.42 278.504 320.912 278.471 320.354 278.231C318.067 277.641 315.943 277.726 313.28 277.942C313.18 277.929 313.078 277.918 312.977 277.906C310.488 278.245 308.054 278.115 305.793 278.316C303.735 278.671 302.017 278.658 301.477 278.789C300.532 279.018 299.819 279.619 299.308 280.458C297.989 285.636 300.898 292.935 301.027 298.191L301.19 298.866C301.304 299.334 301.484 299.785 301.682 300.232C302.332 300.169 303.076 300.081 303.884 299.938C304.366 299.714 304.942 299.549 305.484 299.411L306.012 299.281C306.822 299.085 307.631 298.888 308.339 298.86C309.922 298.906 311.366 299.557 313.015 299.873C313.158 299.915 313.296 299.962 313.43 300.01C313.578 299.987 313.73 299.966 313.884 299.939C314.526 299.641 315.337 299.444 316.012 299.281C316.822 299.085 317.631 298.888 318.339 298.86C319.922 298.906 321.366 299.557 323.015 299.873C325.939 300.737 326.765 302.967 327.124 304.452C327.255 304.992 327.25 305.565 327.278 306.272C327.224 309.001 325.89 311.753 323.73 312.276C323.46 312.341 323.19 312.407 322.752 312.37C320.834 312.12 318.575 312.238 316.215 312.523C314.297 312.273 312.071 312.525 309.948 312.61C309.646 312.54 309.375 312.606 309.106 312.672C308.566 312.802 308.091 313.203 307.551 313.334C307.146 313.432 306.875 313.497 306.438 313.46C306 313.423 305.562 313.386 305.157 313.484C304.752 313.582 304.515 313.782 304.143 314.015C301.839 315.716 299.764 318.362 299.57 321.696C299.458 325.24 299.947 329.564 302.619 332.191C303.865 332.146 305.07 332.569 306.32 332.468L306.605 332.436C307.549 332.208 308.491 332.417 309.501 332.569L309.939 332.63C310.05 332.625 310.16 332.615 310.27 332.604C310.609 332.483 310.916 332.384 311.148 332.328C311.552 332.23 311.822 332.164 312.125 332.234C312.148 332.231 312.171 332.228 312.193 332.225L314.156 331.752C314.747 331.609 315.337 331.466 315.949 331.414L316.214 331.397C318.308 331.266 320.273 331.055 322.27 330.633L323.127 330.438C324.899 330.009 326.75 329.452 328.476 328.719L329.207 328.395C333.392 327.382 337.279 325.727 341.105 323.229C341.951 322.596 342.631 321.859 343.711 321.597C344.656 321.369 345.663 321.983 346.436 322.224C346.663 322.277 346.871 322.253 347.075 322.211L347.278 322.164C347.683 322.066 347.921 321.865 348.056 321.833C348.326 321.767 348.596 321.702 348.898 321.771C349.813 321.926 350.825 322.229 351.855 322.634C352.407 322.189 352.963 321.779 353.711 321.598C354.297 321.457 354.906 321.638 355.469 321.854C354.836 315.937 354.045 310.125 355.13 304.257C355.003 303.144 354.575 301.962 354.751 300.919C354.797 299.336 355.275 298.362 355.419 297.184C355.817 293.515 355.07 289.837 355.939 286.34C356.345 281.525 356.347 276.809 357.359 272.134C357.785 267.6 359.063 263.262 358.717 258.551L358.678 258.094C359.542 255.17 359.052 253.144 358.804 250.346C358.831 250.018 358.783 249.708 358.716 249.403L358.645 249.099C358.424 248.188 356.99 244.918 356.286 243.34L355.898 242.475C355.735 241.8 355.674 240.957 355.883 240.05C355.994 238.736 355.536 236.846 355.717 235.23C355.936 233.552 356.901 232.239 357.958 230.973L358.414 230.433C359.67 229.129 361.063 227.791 362.72 226.962L362.957 226.761C363.236 226.587 363.609 226.47 363.949 226.381L364.274 226.3C365.667 225.963 367.288 226.575 368.82 226.33L369.126 226.268C369.48 226.183 369.731 226.122 369.947 225.974L370.038 225.905C370.419 225.706 370.818 225.582 371.164 225.492L371.49 225.411C372.705 225.117 374.019 225.227 375.295 225.776C376.483 225.876 377.594 225.931 378.509 226.368C378.716 226.349 378.922 226.319 379.126 226.269C379.531 226.171 379.801 226.105 380.038 225.905C380.545 225.639 381.085 225.509 381.49 225.411ZM271.781 267.524C271.709 267.524 271.61 267.533 271.469 267.567C271.583 267.539 270.841 267.714 269.391 268.847C269.236 269.006 269.2 269.057 269.191 269.072C269.189 269.075 269.186 269.08 269.181 269.095C269.175 269.111 269.161 269.154 269.147 269.235C269.263 269.543 269.429 270.005 269.553 270.518L269.647 270.909L269.636 271.31C269.593 272.789 269.066 273.917 268.661 274.67C268.177 275.57 268.077 275.668 267.981 275.945C267.835 276.422 267.791 276.809 267.804 277.121L267.83 277.783L267.574 278.396C267.297 279.06 267.249 279.595 267.291 280.262C267.316 280.646 267.367 281.037 267.438 281.583C267.494 282.02 267.557 282.542 267.598 283.112L267.735 283.677C267.85 284.15 268.083 284.637 268.506 285.454C268.868 286.154 269.457 287.248 269.754 288.476C269.819 288.743 269.975 289.34 269.999 290.068C270.502 292.09 270.904 293.205 271.066 293.555L271.143 293.72L271.199 293.892C271.358 294.381 271.738 295.03 272.422 296.23C272.986 297.221 273.788 298.647 274.148 300.133L274.234 300.492L274.231 300.861C274.225 301.768 274.325 302.636 274.526 303.47C274.526 303.47 274.544 303.535 274.62 303.787C274.685 304.002 274.777 304.3 274.884 304.667C275.1 305.406 275.384 306.423 275.707 307.759L275.813 308.192L275.786 308.637C275.672 310.599 275.15 312.576 274.874 313.894C274.559 315.401 274.488 316.303 274.66 317.015L274.829 317.716C275.202 318.578 275.785 319.399 276.593 320.378C277.362 321.309 278.539 322.606 279.433 323.939L279.904 324.643L279.939 325.49C279.954 325.864 280.012 326.139 280.179 326.827C280.303 327.342 280.496 328.142 280.998 329.245L281.233 329.736L281.386 330.042L281.467 330.374C281.8 331.751 281.916 332.949 282 333.903C282.09 334.923 282.135 335.5 282.266 336.04L282.494 336.985L282.545 337.192L282.565 337.404C282.635 338.13 282.838 338.996 283.078 339.988C283.29 340.862 283.709 342.585 284.817 344.64L285.002 344.982L285.093 345.36L286.768 352.28C287.069 352.989 287.445 353.899 287.683 354.88C287.772 355.248 287.853 355.817 287.927 356.306C288.003 356.812 288.103 357.461 288.241 358.281C288.626 359.131 288.886 359.781 289.134 360.408C289.398 361.076 289.647 361.709 290.046 362.603C290.311 363.071 290.573 363.439 290.926 363.925C291.286 364.42 291.737 365.041 292.199 365.863C292.216 365.876 292.246 365.901 292.296 365.931C292.454 366.027 292.716 366.14 293.082 366.229C293.859 366.418 294.658 366.397 295.077 366.296C295.402 366.217 295.916 366.046 296.416 365.758C296.916 365.469 297.292 365.128 297.523 364.751L297.617 364.594L297.687 364.506C297.58 364.335 297.472 364.155 297.365 363.961C296.437 361.899 296.242 361.088 295.347 359.161C294.992 357.103 294.866 355.991 294.768 355.586C294.572 354.776 294.24 353.999 293.909 353.221L292.178 346.065C290.882 343.664 290.392 341.639 290.163 340.694C289.934 339.749 289.673 338.669 289.579 337.691L289.351 336.746C289.018 335.37 289.072 333.9 288.757 332.083C288.197 331.148 287.775 330.16 287.462 329.175C287.049 327.876 286.808 326.535 286.68 325.236C285.128 323.07 283.006 321.255 281.974 318.666L281.744 317.721C281.058 314.886 282.597 311.798 282.791 308.465C282.17 305.899 281.708 304.581 281.61 304.176C281.349 303.097 281.223 301.984 281.231 300.839C280.741 298.814 278.906 296.542 278.346 294.82C278.047 294.178 277.553 292.725 276.997 290.43C277.034 289.993 276.937 289.587 276.839 289.182C276.447 287.562 275.244 286.138 274.819 284.384L274.623 283.573C274.505 281.315 273.811 279.625 274.806 277.241C274.777 276.533 274.884 275.792 275.126 275.019C275.54 273.776 276.591 272.807 276.637 271.224C276.473 270.549 276.175 269.906 276.143 269.771C276.045 269.366 276.114 269.064 276.184 268.761C276.206 268.627 276.233 268.5 276.265 268.382C274.945 268.144 273.643 267.89 272.365 267.65L272.191 267.618L272.023 267.565C271.925 267.534 271.849 267.525 271.781 267.524ZM371.697 340.374C371.877 340.366 372.054 340.359 372.229 340.349C372.122 340.184 372.018 340.017 371.916 339.846C371.845 340.024 371.771 340.199 371.697 340.374ZM415.817 306.425C414.313 304.931 411.924 304.508 410.844 304.769C410.439 304.867 409.931 305.133 409.559 305.366C409.383 305.493 409.22 305.627 409.064 305.763C410.456 307.939 411.013 310.416 411.414 312.072C411.542 312.601 411.808 313.194 412.306 314.026L412.533 314.398L412.558 314.436L412.58 314.475C413.398 315.874 414.142 317.439 414.562 319.171C414.696 319.728 415.19 321.817 415.341 325.59L415.348 325.776L415.336 325.909C415.34 325.929 415.346 325.954 415.354 325.987C415.362 326.024 415.372 326.065 415.385 326.117C415.434 326.321 415.727 326.873 416.922 327.859C418.054 328.793 419.29 329.587 420.855 330.715C420.895 330.727 420.951 330.747 421.033 330.769C421.181 330.81 421.31 330.842 421.534 330.901C421.719 330.949 421.941 331.01 422.178 331.083C422.668 331.209 423.087 331.375 423.393 331.506C423.822 331.689 423.918 331.741 424.172 331.841C424.475 331.959 424.562 331.957 424.683 331.938L424.852 331.912L425.023 331.905C425.398 331.89 425.672 331.831 426.36 331.665C426.523 331.625 426.677 331.582 426.823 331.54C424.729 330.049 422.893 328.57 422.47 326.823C422.372 326.418 422.306 326.148 422.343 325.711C422.201 322.172 421.744 320.282 421.646 319.877C421.319 318.527 420.722 317.242 419.99 315.99C419.291 314.873 418.759 313.858 418.498 312.778C417.975 310.618 417.387 308.188 415.817 306.425ZM344.074 324.708C343.948 324.799 343.811 324.908 343.609 325.072C343.426 325.221 343.172 325.428 342.902 325.631L342.825 325.688L342.745 325.741C339.478 327.874 336.152 329.441 332.658 330.544C332.814 330.509 332.971 330.476 333.127 330.438C335.152 329.948 337.28 329.29 339.207 328.395C342.252 327.658 345.137 326.579 347.957 325.086C347.713 325.147 346.808 325.389 345.763 325.148L345.65 325.123L345.54 325.088C345.21 324.984 344.885 324.852 344.692 324.774C344.487 324.691 344.354 324.639 344.237 324.598C344.194 324.625 344.14 324.661 344.074 324.708ZM364.98 229.216C364.8 229.259 364.677 229.29 364.575 229.32L364.382 229.484L364.063 229.644C362.924 230.214 361.855 231.189 360.636 232.451C359.364 233.951 358.818 234.721 358.695 235.591C358.648 236.048 358.682 236.629 358.761 237.475C358.826 238.176 358.956 239.311 358.872 240.301L358.855 240.514L358.807 240.722C358.739 241.019 358.738 241.303 358.773 241.553C358.839 241.7 358.926 241.892 359.026 242.118C359.264 242.65 359.584 243.376 359.915 244.141C360.245 244.904 360.591 245.723 360.877 246.437C361.132 247.076 361.428 247.844 361.561 248.393C361.633 248.692 361.823 249.404 361.81 250.252C362.025 252.505 362.539 255.101 361.711 258.37C361.897 260.956 361.651 263.382 361.329 265.62C360.966 268.142 360.558 270.16 360.347 272.414L360.33 272.592L360.292 272.768C359.334 277.194 359.363 281.444 358.928 286.592L358.908 286.831L358.851 287.063C358.517 288.405 358.474 289.861 358.502 291.65C358.528 293.331 358.626 295.434 358.401 297.508L358.399 297.527L358.398 297.548C358.298 298.367 358.068 299.18 357.963 299.61C357.842 300.107 357.764 300.515 357.75 301.005L357.744 301.214L357.709 301.419C357.711 301.407 357.692 301.539 357.78 302.034C357.826 302.289 357.87 302.491 357.938 302.839C357.997 303.143 358.066 303.52 358.111 303.919L358.161 304.362L358.08 304.802C357.061 310.319 357.835 315.625 358.477 321.75C358.612 321.735 358.752 321.738 358.898 321.772C360.989 322.126 363.583 323.251 365.744 324.606C365.127 317.733 363.878 311.033 365.13 304.258C365.004 303.145 364.575 301.962 364.751 300.919C364.797 299.336 365.275 298.362 365.419 297.184C365.817 293.515 365.07 289.838 365.939 286.341C366.345 281.526 366.347 276.809 367.359 272.134C367.799 267.454 369.146 262.983 368.678 258.094C369.542 255.17 369.052 253.145 368.804 250.347C368.841 249.91 368.743 249.504 368.645 249.099C368.351 247.887 365.911 242.502 365.898 242.475C365.735 241.8 365.674 240.958 365.883 240.05C365.994 238.736 365.536 236.846 365.717 235.23C365.967 233.312 367.191 231.873 368.415 230.433C368.804 230.03 369.206 229.623 369.625 229.229C368.307 229.504 367.05 229.354 366.337 229.28C365.371 229.179 365.12 229.182 364.98 229.216ZM150.94 286.213C150.037 286.387 149.085 286.612 148.058 286.86C147.076 287.244 145.999 287.501 145.195 287.695C144.585 287.843 144.074 287.92 143.691 287.961C143.619 287.968 143.551 287.971 143.488 287.976C143.35 288.027 143.298 288.072 143.289 288.08C143.281 288.087 143.271 288.098 143.258 288.121C143.243 288.146 143.213 288.203 143.184 288.309L143.133 288.491L143.061 288.666C142.76 289.387 142.624 290.237 142.575 291.337C142.551 291.889 142.548 292.444 142.544 293.077C142.541 293.539 142.535 294.046 142.514 294.562C142.546 294.694 142.576 294.815 142.604 294.926C142.64 295.072 142.672 295.188 142.697 295.281C143.999 297.033 145.01 298.518 146.233 299.834C147.37 301.055 148.469 301.863 149.704 302.264L149.953 302.339L150.15 302.393L150.339 302.474C151.457 302.955 152.822 303.177 154.487 303.272C154.841 303.292 155.197 303.305 155.559 303.315C153.436 301.582 151.816 299.107 150.121 296.842C149.953 296.739 149.789 296.064 149.495 294.849C149.647 292.526 149.297 289.895 150.292 287.51C150.433 287.001 150.652 286.57 150.94 286.213ZM390.106 266.915C389.672 267.02 389.246 267.268 388.84 267.622C389.532 268.24 390.166 269.015 390.671 270.007L390.811 270.292L390.856 270.391L390.896 270.494C391.252 271.434 391.587 271.983 392.019 272.288H392.018C392.308 272.492 392.509 272.705 392.52 272.716C392.617 272.813 392.713 272.919 392.798 273.012C392.971 273.205 393.178 273.446 393.396 273.705C393.834 274.228 394.379 274.899 394.913 275.568C395.448 276.239 395.985 276.925 396.41 277.481C396.621 277.758 396.814 278.014 396.968 278.226C397.031 278.313 397.153 278.483 397.273 278.672C397.839 279.456 397.999 280.258 398.042 280.437C398.317 281.574 398.202 282.643 398.035 283.464C397.87 284.274 397.601 285.072 397.406 285.657L397.271 286.066L397.024 286.421C396.746 286.822 396.447 287.166 396.142 287.462L398.243 286.954C399.053 286.758 399.728 286.594 400.301 286.598C400.738 286.635 401.278 286.505 401.818 286.375C402.358 286.244 403.606 286.084 404.56 284.711C404.973 283.467 405.387 282.223 405.126 281.143C405.061 280.873 404.995 280.603 404.795 280.366C404.529 279.858 400.626 274.947 400.289 274.74C399.083 273.889 398.485 272.604 398.089 271.556C397.194 269.629 395.583 268.876 393.701 268.188C392.593 267.742 391.689 266.96 390.106 266.915ZM387.059 270.066C385.956 272.241 385.354 275.034 385.786 276.82L385.885 277.225C386.231 280.428 385.265 283.52 386.049 286.76C386.13 287.003 386.238 287.218 386.369 287.407L388.243 286.954C389.053 286.758 389.728 286.594 390.301 286.598C390.739 286.635 391.278 286.504 391.818 286.374C392.358 286.243 393.606 286.084 394.56 284.71C394.947 283.544 395.336 282.378 395.167 281.347L395.126 281.143C395.069 280.907 395.011 280.671 394.863 280.457L394.795 280.366C394.545 279.889 391.098 275.541 390.392 274.831L390.289 274.739C389.083 273.888 388.485 272.604 388.089 271.556C387.811 270.957 387.462 270.472 387.059 270.066ZM194.69 240.344C193.696 239.87 192.657 239.766 191.541 240.036C190.666 240.248 190.331 240.353 190.063 240.521L189.649 240.779L189.177 240.893C188.088 241.157 187.294 241.777 186.986 242.301C186.799 243.135 186.734 243.524 186.741 243.717L186.744 243.789V243.86L186.727 246.151C186.726 246.296 186.756 246.482 186.899 247.076C187.025 247.593 187.506 248.809 188.436 250.158C189.333 251.384 189.825 252.667 190.116 253.872C190.182 254.142 190.224 254.417 190.235 254.703C190.239 254.788 190.238 254.869 190.236 254.941C190.389 255.493 190.599 255.98 190.838 256.34C192.118 257.682 192.854 259.278 193.231 260.836L193.655 262.591C193.865 263.459 194.056 264.228 194.281 264.86L194.38 265.123L194.459 265.321L194.51 265.528C195.183 268.312 194.295 271.195 192.98 273.35C191.994 274.966 190.552 276.523 188.789 277.517C189.431 277.434 190.051 277.317 190.663 277.169C191.203 277.038 192.959 276.613 196.101 275.424C199.443 274.472 202.443 269.744 201.594 266.234C201.23 265.322 200.969 264.242 200.74 263.297L200.315 261.542C200.021 260.327 199.457 259.176 198.521 258.259C197.887 257.413 197.49 256.366 197.262 255.421C197.164 255.016 197.298 254.983 197.2 254.578C196.972 253.633 196.608 252.72 195.975 251.873C194.875 250.281 194.212 248.727 193.983 247.782C193.853 247.242 193.722 246.701 193.727 246.129L193.744 243.839C193.716 243.131 193.925 242.222 194.134 241.314C194.277 240.967 194.466 240.644 194.69 240.344ZM240.854 264.319C240.377 264.37 239.417 264.488 238.378 264.321C238.075 264.341 237.84 264.349 237.665 264.353L237.492 264.5L236.804 264.667C236.318 264.784 235.613 265.175 234.604 265.86L234.371 266.017L234.114 266.13C231.223 267.385 228.922 268.588 226.956 270.384L226.77 270.554L226.557 270.691C225.612 271.3 224.646 271.868 223.67 272.398C224.442 272.594 225.227 272.677 226.005 272.617C229.012 271.46 232.089 270.001 234.933 268.17C236.718 266.539 238.696 265.36 240.854 264.319ZM321.211 107.856C323.895 108.119 326.134 109.409 328.757 109.12C329.447 109.044 330.306 109.229 331.042 109.567C338.571 113.209 338.327 112.257 341.173 120.328C341.341 120.589 341.371 120.865 341.401 121.141C341.462 121.694 341.263 122.414 340.971 123.564L341.138 125.084C341.593 130.483 337.095 135.311 332.445 137.501C329.7 137.943 327.92 138.279 327.23 138.355C325.084 138.592 322.165 138.773 319.36 138.015C318.33 138.191 317.612 138.313 317.23 138.355L316.643 138.417C313.723 138.699 309.661 138.763 306.329 136.738L305.987 136.52C304.715 135.123 302.889 135.045 301.049 134.829C299.04 134.127 297.186 133.46 295.324 132.994C294.4 133.542 293.431 134.222 292.305 134.66C287.609 136.435 287.038 141.39 287.357 144.29C287.434 144.98 287.663 145.793 287.877 146.468C288.596 149.184 291.555 150.674 293.302 152.578C295.8 154.957 299.451 155.114 302.764 156.007C305.088 156.693 307.211 157.249 309.255 157.568C310.149 157.619 311.032 157.717 311.91 157.841C312.886 157.883 313.855 157.858 314.834 157.75L315.801 157.643C320.633 157.11 324.988 158.586 329.65 159.05C338.102 159.656 343.42 166.057 346.052 173.453C346.296 174.404 346.403 175.37 346.51 176.337C346.616 177.303 346.677 179.113 346.966 181.736C346.673 182.886 346.396 184.175 346.518 185.28C346.762 186.231 346.853 187.06 346.96 188.026C347.462 192.582 345.802 197.796 344.247 203.976C343.585 206.844 342.31 209.221 341.648 212.089C340.097 214.496 338.79 217.854 337.515 220.23C335.656 223.649 332.985 226.04 330.053 228.599C328.656 229.871 327.949 231.067 326.537 232.201C324.864 233.503 322.394 233.916 320.369 234.558L319.54 234.65C318.159 234.803 316.042 235.874 313.971 236.102C313.004 236.209 312.023 236.177 311.134 235.717C310.187 235.567 309.523 235.179 308.883 234.772C307.535 235.101 305.736 235.908 303.971 236.102L303.608 236.135C302.761 236.195 301.912 236.12 301.134 235.717C299.57 235.47 298.772 234.579 297.592 234.01C295.55 233.318 293.953 233.315 292.182 232.57L291.825 232.411C289.909 231.504 287.977 230.459 285.738 229.169C284.052 227.817 283.118 225.684 281.141 224.225C279.455 222.874 278.228 221.892 277.079 220.342C274.585 217.367 270.506 215.486 268.485 212.009L268.297 211.668C267.464 210.057 266.685 208.93 266.503 208L266.475 207.816C266.414 207.264 266.491 206.696 266.583 206.266C266.843 205.059 267.251 204.08 267.163 202.712L267.139 202.432C266.988 199.794 269.366 198.553 270.135 196.652C270.458 195.778 270.811 195.18 271.317 194.705C272.584 193.124 274.821 192.542 276.853 191.706L277.257 191.534C278.183 191.065 279.133 190.807 280.096 190.669L280.509 190.617C281.475 190.51 283.424 190.435 286.169 191.251C286.559 191.304 286.91 191.408 287.233 191.545C287.241 191.541 287.249 191.538 287.257 191.535C288.316 190.999 289.404 190.739 290.509 190.617C291.475 190.51 293.424 190.435 296.169 191.251C297.871 191.482 298.837 192.634 299.925 193.632C303.068 195.521 304.769 198.268 306.638 201.276C307.45 202.304 307.326 203.716 308 204.759C308.582 206.232 309.117 207.291 309.837 208.749C310.019 209.031 310.251 209.286 310.516 209.518C310.547 209.5 310.577 209.479 310.609 209.461L310.804 209.356C316.666 206.753 318.235 200.71 320.034 195.481C320.372 194.745 320.45 194.178 320.389 193.626C320.375 193.505 320.245 193.29 320.202 193.146L320.19 193.089C320.13 192.536 320.206 191.968 320.283 191.401C320.5 189.561 320.992 187.689 321.178 185.573C320.084 179.102 319.845 176.216 314.339 173.419C313.432 173.611 312.596 173.788 311.86 173.869C310.066 174.067 308.24 173.989 306.384 173.634C305.984 173.533 305.564 173.398 305.131 173.256C303.916 173.507 302.806 173.765 301.86 173.869L301.186 173.929C299.608 174.042 298.008 173.944 296.384 173.634C295.234 173.341 293.915 172.789 292.627 172.511C290.234 172.356 287.918 171.633 285.709 171.877L285.37 171.906C283.664 172.016 281.791 171.583 280.065 171.381C274.642 171.302 268.973 170.201 263.94 167.98L263.455 167.762C257.039 163.596 253.951 157.489 253.266 152.592L253.206 152.123C253.069 150.88 253.055 149.484 253.179 148.073L253.118 147.521C252.948 145.974 252.349 144.961 252.221 144.384C251.139 146.105 249.616 147.605 247.879 148.249L247.603 148.279C247.204 148.463 246.927 148.493 246.513 148.539C244.856 148.721 243.216 147.785 240.547 147.66C240.037 147.632 239.533 147.655 239.001 147.701C238.639 147.921 238.264 148.106 237.879 148.249L237.603 148.279C237.204 148.463 236.927 148.493 236.513 148.539L236.202 148.56C235.615 148.578 235.021 148.469 234.375 148.322C233.895 148.385 233.375 148.451 232.815 148.512C232.401 148.558 231.68 148.358 230.515 147.927C229.885 147.812 229.262 147.751 228.655 147.73C228.414 147.754 228.166 147.782 227.908 147.81C227.218 147.886 225.438 148.222 222.815 148.511L222.646 148.517C222.214 148.504 221.535 148.304 220.515 147.927C219.337 147.711 218.18 147.685 217.112 147.759C213.671 149.218 209.841 149.41 208.789 153.676C208.451 154.412 208.39 155.118 208.466 155.808C208.481 155.946 208.634 156.07 208.68 156.484C208.756 157.174 208.679 157.742 208.602 158.309C208.155 160.594 208.03 163.264 210.406 164.539C210.493 164.58 210.581 164.617 210.667 164.656L215.855 164.855C216.26 164.766 216.691 164.684 217.125 164.636C218.091 164.53 218.935 164.576 219.778 164.623C220.398 164.647 221.066 164.671 221.76 164.698L228.018 164.009C230.106 163.778 232.14 163.95 234.192 164.43L238.018 164.009C240.503 163.735 242.911 164.028 245.364 164.736C246.959 165.259 247.925 166.411 249.55 167.21C251.236 168.561 252.571 169.252 253.183 171.002C253.426 173.211 253.654 175.281 253.192 177.428C252.777 178.732 251.764 179.682 250.766 180.77C249.047 181.658 247.681 183.207 245.932 183.819C242.556 184.89 239.135 185.547 235.407 185.958C233.934 186.539 232.86 186.937 231.356 187.243C228.119 188.299 225.724 190.659 223.299 192.743C221.288 194.781 218.032 198.215 218.291 200.562C218.306 200.7 218.338 200.976 218.506 201.237C219.134 201.866 219.747 202.358 220.315 202.435C222.691 203.71 224.884 204.586 227.261 205.861C227.762 206.102 228.279 206.266 228.804 206.364C229.09 206.299 229.375 206.224 229.663 206.176L229.869 206.148C231.98 205.915 234.906 206.078 237.614 206.518C237.824 206.506 238.029 206.49 238.228 206.468C238.78 206.408 239.317 206.209 239.869 206.148C243.459 205.752 249.41 206.493 252.63 207.815C254.194 208.062 256.127 207.849 257.768 208.786C258.948 209.354 259.608 210.26 260.65 210.843C262.276 211.642 263.609 212.334 264.467 213.777C266.413 216.217 267.515 218.611 267.805 221.234C267.942 222.477 267.726 224.318 267.294 226.741C266.878 229.302 264.636 231.786 260.83 234.022C260.155 234.236 259.342 234.466 258.651 234.542C257.961 234.618 256.397 234.371 253.773 234.66C252.643 234.624 251.596 234.412 250.577 234.097C249.958 234.287 249.258 234.475 248.651 234.542L248.352 234.556C247.554 234.564 246.069 234.407 243.773 234.66C240.829 234.565 238.452 233.291 235.661 232.061C233.623 231.456 231.483 230.631 229.299 230.094C229.179 230.105 229.064 230.118 228.958 230.13C227.992 230.236 226.795 230.787 225 230.985C222.734 230.983 220.764 230.694 219.015 230.124C218.996 230.126 218.977 230.128 218.958 230.13L218.774 230.154C217.84 230.303 216.683 230.799 215 230.985L214.302 230.975C207.417 230.784 203.342 227.82 199.777 222.104L199.423 221.523C198.432 219.667 197.819 217.892 197.57 216.085L197.525 215.723C197.51 215.585 197.572 214.879 197.496 214.189C197.313 212.533 196.993 210.891 196.672 209.25C195.051 203.419 193.169 197.757 191.548 191.926C190.906 189.901 190.83 187.953 190.494 186.174C189.959 184.544 189.45 183.137 188.933 181.67C187.092 184.073 185.184 186.399 183.833 189.269C181.927 193.532 179.976 197.381 177.779 201.536C177.056 203.851 176.058 206.197 175.933 208.866C175.564 209.326 175.885 209.71 175.517 210.17C175.209 211.182 174.994 211.765 174.549 212.792C173.489 214.586 171.049 215.274 169.989 217.068C168.531 219.046 167.746 220.809 166.456 223.048C165.227 225.838 164.38 228.307 162.982 230.837C162.812 233.091 162.35 235.239 161.597 237.278C161.441 239.671 160.535 241.588 160.088 243.873C159.549 246.587 158.872 249.317 158.194 252.047C158.102 252.476 158.148 252.89 158.193 253.304C158.239 253.719 158.423 254.118 158.469 254.532C158.514 254.946 158.575 255.499 158.482 255.928C157.682 258.811 156.207 261.908 154.656 264.315C152.507 266.369 149.316 266.581 146.86 268.389C145.387 268.971 144.251 270.074 142.778 270.656C139.725 272.111 138.62 272.233 138.067 272.294C137.101 272.4 135.843 272.399 134.433 272.275C133.106 272.319 131.838 272.205 130.592 271.61C129.134 272.175 128.461 272.25 128.067 272.294L127.692 272.328C126.785 272.397 125.667 272.383 124.433 272.275C122.623 272.335 120.92 272.103 119.233 270.752C116.352 268.694 113.762 265.485 112.369 261.726C111.833 260.668 110.928 260.068 110.347 258.595C109.951 255.006 113.438 248.612 115.373 245.884C116.664 243.173 118.765 241.016 121.06 238.918L122.053 238.02C124.699 236.239 128.065 235.034 129.461 231.908L129.59 231.599C130.819 228.809 132.002 226.861 132.817 224.116C133.188 221.141 134.018 218.533 134.818 215.65C135.496 213.479 136.026 211.079 135.939 209.423L135.913 209.101C135.867 208.687 135.821 208.273 135.638 207.874C134.36 205.788 132.515 204.132 130.242 203.123L129.782 202.93C125.213 200.779 120.521 198.78 115.736 197.212C110.031 195.81 104.413 194.006 100.18 189.75L99.7745 189.33C97.7635 186.538 95.7659 183.868 94.4141 180.789L94.1524 180.168C94.0305 179.063 93.3567 178.019 92.6827 176.975C92.482 176.264 92.2811 175.552 92.1729 174.831L92.1329 174.521C91.6915 170.517 93.7508 165.119 97.0674 160.98C99.4623 158.62 101.933 158.207 103.037 158.086C104.142 157.964 105.139 158.134 106.166 158.58C107.158 158.793 108.095 159.097 108.987 159.469C110.692 158.421 112.229 158.176 113.037 158.087C114.142 157.965 115.139 158.134 116.166 158.58C123.037 160.058 127.297 165.737 131.849 170.266C134.761 172.6 137.874 174.213 140.433 177.145C141.245 178.174 142.548 178.589 143.621 179.449C145.368 181.352 147.453 182.52 149.477 184.393C149.967 185.038 150.596 185.668 151.653 186.389C152.384 186.768 152.964 187.282 153.526 187.808C154.567 187.038 155.601 186.206 156.641 185.435C159.52 181.842 161.617 177.844 163.186 173.643L163.493 172.8C164.277 171.037 165.351 169.381 165.844 167.51C166.277 165.498 165.969 163.444 166.65 161.388L166.801 160.977C168.03 158.187 167.65 154.735 167.714 151.513L167.698 151.376C167.808 148.569 168.239 146.145 168.057 144.488C168.017 144.126 167.965 143.657 167.83 143.279L167.767 143.123C167.432 142.304 167.203 141.473 167.079 140.631L167.032 140.269C166.85 138.613 167.097 137.047 167.911 135.56C168.315 134.468 168.476 133.402 169.316 132.377L169.494 132.172C171.029 130.884 172.365 129.06 174.359 128.141L174.773 128.096C175.878 127.975 176.645 128.589 177.811 129.019C179.179 129.205 180.373 129.667 181.393 130.369C182.272 129.51 183.205 128.674 184.359 128.142L184.773 128.096C185.878 127.975 186.645 128.589 187.811 129.019C190.08 129.328 191.874 130.388 193.177 132.061C193.654 132.759 194.181 133.416 194.692 134.091C196.931 134.155 198.864 134.489 200.539 134.523C200.9 134.414 201.259 134.308 201.611 134.205C202.342 134.124 203.046 134.09 203.723 134.083C203.914 134.031 204.106 133.977 204.297 133.924L205.816 133.757C206.127 133.722 206.524 133.757 206.884 133.815L207.228 133.881C208.47 133.744 209.098 134.373 210.065 134.266C212.193 133.612 214.279 133.277 216.405 132.958L218.549 132.632C222.874 132.574 226.786 132.562 230.651 132.135L231.204 132.075C232.866 131.892 234.685 132.053 236.65 132.444C237.999 132.377 239.329 132.282 240.652 132.136L241.204 132.075C242.999 131.877 244.978 132.079 247.125 132.541C250.269 133.702 252.591 136.649 253.293 139.64C253.97 137.426 254.779 135.245 255.906 133.209L256.23 132.644C256.813 131.602 256.676 130.359 257.26 129.316C258.259 126.97 260.469 125.469 262.035 123.2C267.152 116.815 275.347 114.549 282.62 111.254L283.321 110.931C284.986 110.503 286.663 110.18 288.351 109.964L289.074 109.878C290.645 109.704 293.19 109.638 296.484 109.328L297.941 109.179L300.841 108.859C302.498 108.676 304.092 109.199 305.902 109.139C306.332 109.232 306.746 109.186 307.16 109.14C308.127 109.034 309.462 108.468 311.211 107.856C313.375 108.068 315.25 108.944 317.27 109.126C318.227 108.991 319.527 108.445 321.211 107.856ZM120.928 195.87C124.366 197.174 127.732 198.65 131.008 200.191C133.866 201.352 136.212 203.313 137.869 205.797L138.196 206.307L138.289 206.458L138.362 206.619C138.781 207.528 138.856 208.426 138.895 208.773C139.149 211.079 138.426 214.137 137.709 216.453L137.104 218.603C136.526 220.656 136.046 222.466 135.794 224.487L135.764 224.733L135.693 224.97C134.811 227.942 133.384 230.428 132.335 232.808C131.367 235.201 129.661 236.739 128.065 237.845C127.263 238.4 126.431 238.887 125.707 239.307C125.019 239.708 124.43 240.049 123.891 240.402C121.261 242.762 119.24 244.742 118.082 247.174L117.971 247.408L117.82 247.619C116.966 248.823 115.71 250.932 114.727 253.137C114.238 254.235 113.843 255.298 113.595 256.242C113.412 256.937 113.334 257.476 113.319 257.865C113.426 258.051 113.556 258.236 113.735 258.465C113.951 258.739 114.456 259.329 114.873 260.053L115.046 260.372L115.123 260.524L115.183 260.684C116.359 263.86 118.566 266.589 120.977 268.31L121.045 268.359L121.109 268.411C122.02 269.14 122.901 269.323 124.333 269.276L124.515 269.27L124.694 269.286C125.835 269.386 126.794 269.39 127.495 269.334C125.335 267.344 123.474 264.71 122.369 261.727C121.833 260.668 120.928 260.069 120.347 258.596C119.951 255.007 123.438 248.612 125.373 245.884C126.848 242.786 129.382 240.411 132.053 238.02C134.785 236.182 138.283 234.958 139.59 231.599C140.819 228.809 142.002 226.862 142.817 224.117C143.188 221.141 144.018 218.534 144.818 215.651C145.541 213.336 146.096 210.759 145.913 209.102C145.867 208.688 145.821 208.274 145.638 207.875C144.274 205.649 142.266 203.914 139.782 202.93C135.213 200.779 130.521 198.781 125.736 197.213C124.116 196.815 122.504 196.38 120.928 195.87ZM32.0909 142.136C34.2999 141.893 37.7207 142.494 42.4444 143.51C42.8957 143.648 43.3508 143.81 43.8028 143.953C44.2396 144.033 44.6784 144.128 45.1182 144.234L45.3311 144.288C45.3758 144.291 45.4204 144.294 45.4649 144.296C45.686 144.326 45.9078 144.353 46.128 144.375C46.678 144.298 47.4411 143.813 47.9825 143.754C48.2585 143.723 48.5352 143.692 48.6885 143.815C48.9504 143.832 49.2062 143.855 49.4561 143.882C49.7138 143.838 49.9937 143.796 50.2979 143.762C51.9284 143.583 53.6089 143.86 55.3057 144.281C55.3908 144.252 55.4796 144.218 55.5752 144.174C55.8763 144.2 56.1675 144.243 56.4502 144.295C56.9509 144.132 57.5408 143.802 57.9825 143.754C58.2586 143.723 58.5352 143.692 58.6885 143.815C61.0812 143.971 62.9677 144.602 64.4864 144.434C64.9003 144.389 65.1765 144.358 65.5752 144.175C67.6919 144.36 69.3329 145.297 70.8516 145.13C71.2656 145.084 71.5419 145.053 71.8028 144.884C75.0544 145.225 78.0443 146.991 81.0655 147.776C82.6602 148.299 84.3776 148.669 85.9571 149.053C88.3803 149.485 90.0822 150.974 91.4151 152.924C92.6099 154.888 93.5438 157.021 93.9102 159.077C93.9396 160.611 93.5241 161.915 93.2774 163.479C92.7088 164.66 91.68 165.472 90.6973 166.698C89.7604 168.338 88.5186 168.475 87.8282 168.551C87.414 168.597 86.8459 168.52 86.2784 168.443C85.573 168.381 84.7296 168.334 83.9014 168.425L82.3819 168.593C81.5537 168.685 80.7103 168.638 80.0049 168.576C79.6454 168.499 79.2924 168.408 78.9454 168.307C78.5167 168.474 78.1226 168.519 77.8282 168.551L77.6651 168.563C77.2713 168.578 76.7747 168.511 76.2784 168.443C75.573 168.381 74.7296 168.334 73.9014 168.425L72.3819 168.592C71.7608 168.661 71.1312 168.652 70.5577 168.617L70.0049 168.576C67.8578 168.114 65.9407 167.207 64.1622 166.285C62.6243 165.406 61.41 164.124 59.7227 163.561L59.379 163.459C57.6462 162.951 56.0511 162.428 54.3184 161.921C53.7082 161.892 53.1294 161.815 52.5674 161.714C51.2441 162.245 49.7984 162.421 48.4717 162.69C46.4009 162.919 44.7887 164.772 42.794 165.691C39.7859 167.56 37.6818 170.029 36.1915 172.988C34.8849 176.346 33.7167 179.689 34.0821 183.003C34.5916 186.759 37.0366 188.61 39.6348 189.288C40.5482 189.327 41.4603 189.415 42.3506 189.598C42.6368 189.592 42.9166 189.574 43.1876 189.545C43.7396 189.484 44.2923 189.423 44.8292 189.224C45.5521 189.258 46.3025 189.257 47.0665 189.256C47.7655 189.107 48.4653 188.999 49.1758 188.908L50.7061 188.731L52.3633 188.548C54.9121 188.267 57.8236 188.102 60.5997 188.743C60.6351 188.739 60.6706 188.735 60.7061 188.731L62.3633 188.549C67.1956 188.016 73.3317 187.898 77.377 192.902C77.5343 193.032 80.6245 198.274 80.6397 198.412C80.6701 198.688 80.7 198.964 80.5772 199.117C80.5 199.684 80.5612 200.237 80.6221 200.789L80.7442 201.893C80.8051 202.446 80.7279 203.013 80.3594 203.473C78.6386 206.877 75.3687 208.915 71.6866 209.74C71.2879 209.923 71.0117 209.954 70.5977 210C69.5285 210.118 66.5061 209.606 63.9288 209.061C63.2061 209.341 62.4555 209.567 61.6866 209.739C61.2877 209.923 61.0119 209.954 60.5977 210L60.4131 210.012C58.4843 210.094 52.3269 208.796 50.3848 208.201L50.0459 208.089L47.1319 207.012C46.1199 206.705 45.0922 206.258 44.0801 205.951C43.0682 205.644 42.1165 205.888 41.1045 205.581C40.3987 205.404 39.7236 205.261 39.0801 205.143C38.152 205.299 37.2274 205.488 36.3028 205.675C35.3516 205.92 34.8753 206.672 33.9698 207.331C30.7618 209.92 29.1644 211.913 29.6514 216.331C29.758 217.297 30.0008 220.765 33.0655 224.479C36.2378 227.902 40.3646 227.308 44.7208 227.526C45.871 227.818 46.6227 228.295 47.8653 228.158C48.5708 228.22 49.522 227.975 50.2579 228.313C51.3477 228.622 52.385 228.873 53.3604 229.075C53.8517 228.912 54.3343 228.728 54.8145 228.524C55.7411 228.055 56.6913 227.798 57.6543 227.659L58.0674 227.607C58.7577 227.531 59.7393 227.562 60.8438 227.44C61.8103 227.334 62.6236 227.104 63.5596 226.721C63.8255 226.552 71.4152 224.458 71.5538 224.443C72.1976 224.739 72.9238 224.812 73.5577 224.774L73.8233 224.752C74.4273 224.685 75.1136 224.395 76.0157 224.242L76.4161 224.186C76.9683 224.125 77.5205 224.064 78.0879 224.141C79.0386 224.16 79.9464 224.343 80.8165 224.636C81.252 224.518 81.5284 224.446 81.5538 224.443C82.2897 224.781 83.1331 224.828 83.8233 224.752C84.5136 224.676 85.3116 224.308 86.4161 224.186C86.9683 224.125 87.5205 224.064 88.0879 224.141C91.3092 224.205 94.0382 226.141 96.4756 227.968C98.8053 230.087 99.9234 232.619 100.167 234.828C100.213 235.242 100.258 235.656 100.166 236.086C100.335 236.347 100.364 236.623 100.395 236.899C100.501 237.866 100.056 238.893 99.5333 240.488C99.0712 242.635 97.5661 244.198 96.2149 245.884C94.2657 247.217 91.9491 247.753 89.9239 248.395C88.8194 248.517 87.5461 248.377 86.2579 248.1C84.8697 247.881 83.5422 248.204 82.1251 247.721C81.3745 247.958 80.6314 248.17 79.9239 248.394C78.8193 248.516 77.5461 248.377 76.2579 248.1C74.6935 247.854 73.2053 248.297 71.5801 247.498C68.4618 247.146 65.3822 246.509 62.3028 246.14C59.917 246.471 58.2689 247.111 56.1309 248.628C54.1198 250.666 51.2962 251.676 48.9014 254.036L47.6426 255.293C45.9228 257.439 39.1863 260.977 36.7315 261.527C35.6727 262.063 34.7822 262.859 33.6778 262.981C32.4809 263.532 31.253 263.808 30.1485 263.929C28.8755 263.79 27.5565 263.238 26.0694 262.424C25.945 262.324 25.8243 262.221 25.7051 262.118C25.0486 262.52 24.4111 262.9 23.6778 262.981C22.4809 263.532 21.253 263.808 20.1485 263.929C18.8755 263.79 17.5565 263.237 16.0694 262.423C13.1572 260.089 11.6718 256.759 11.2608 253.031L11.1543 252.064C10.8688 249.476 9.90864 247.453 9.60161 245.504L9.54985 245.115C9.47376 244.425 9.41277 243.872 9.47466 243.167C8.3287 237.843 7.97829 234.667 7.8565 233.562C7.61297 231.353 7.52295 229.267 7.43267 227.181C6.77809 221.245 7.85595 215.815 7.35357 211.259L7.14068 209.326C6.9122 207.255 5.26808 205.708 3.99028 204.144L3.73931 203.832C1.85525 200.686 0.278037 197.785 0.0801282 195.99C-0.0416645 194.885 -0.224319 193.228 1.23443 191.251C3.39999 188.077 7.48227 185.81 7.71587 181.592C7.95831 180.465 7.98931 179.361 7.92193 178.456L7.88775 178.08C7.72031 176.561 7.59835 175.457 8.12114 173.862C8.15056 170.802 8.55656 167.272 9.07036 164.239L9.29595 162.972C10.3772 159.709 10.596 156.417 11.3418 153.175L11.4981 152.528C12.2185 150.746 12.1576 148.558 12.5528 146.75L12.6387 146.393C13.5921 143.633 16.2149 143.343 18.4239 143.099C19.6207 142.548 20.8484 142.273 22.0909 142.136C23.7385 141.955 26.0603 142.243 29.0938 142.823C30.0775 142.454 31.0788 142.248 32.0909 142.136ZM23.336 145.085C22.9786 145.079 22.6754 145.091 22.42 145.119C21.3993 145.231 20.5046 145.445 19.6788 145.825L19.2374 146.028L18.753 146.082C17.5601 146.213 16.8089 146.318 16.2364 146.562C15.8714 146.718 15.6665 146.886 15.5118 147.275C15.356 147.921 15.2882 148.659 15.1504 149.806C15.029 150.818 14.8479 152.14 14.3672 153.425C13.9905 154.947 13.7579 156.479 13.4581 158.242C13.1696 159.938 12.821 161.794 12.2149 163.685C11.6322 166.831 11.1521 170.68 11.1211 173.89L11.1163 174.355L10.9717 174.797C10.6673 175.725 10.7047 176.26 10.8692 177.752C10.9981 178.921 11.0049 180.422 10.6944 182C10.4537 185.001 8.87777 187.185 7.44536 188.802C6.7392 189.6 5.90591 190.43 5.29985 191.066C4.63565 191.763 4.11213 192.357 3.71294 192.942L3.68169 192.988L3.64849 193.032C3.21232 193.623 3.07963 194.074 3.03032 194.398C2.97405 194.769 3.00151 195.107 3.06255 195.661C3.10113 196.011 3.34161 196.791 3.97466 198.09C4.54837 199.266 5.32165 200.627 6.20903 202.114C6.45438 202.421 6.72652 202.739 7.06353 203.133C7.4245 203.554 7.84994 204.054 8.24907 204.593C9.04287 205.667 9.91632 207.131 10.1221 208.997L10.336 210.93C10.6189 213.496 10.4536 216.267 10.3331 218.842C10.2159 221.345 10.1267 223.813 10.3624 226.345L10.4141 226.852L10.4249 226.952L10.4297 227.051C10.5205 229.15 10.608 231.139 10.8389 233.234C10.9534 234.272 11.2893 237.341 12.4073 242.535L12.503 242.977L12.4629 243.428C12.4301 243.802 12.4537 244.082 12.5313 244.786C12.6095 245.495 12.8362 246.248 13.2002 247.481C13.5382 248.626 13.9528 250.068 14.1368 251.736L14.2432 252.702C14.5783 255.74 15.7234 258.202 17.7579 259.923C18.8215 260.489 19.5826 260.783 20.1778 260.9C20.9306 260.79 21.6997 260.59 22.4229 260.257L22.8653 260.052L23.3321 260.001C23.352 259.994 23.4461 259.96 23.6631 259.841C22.3032 257.873 21.5377 255.542 21.2608 253.031L21.1543 252.065C20.8499 249.304 19.7783 247.186 19.5499 245.115C19.4737 244.425 19.4127 243.872 19.4747 243.167C18.3288 237.844 17.9783 234.668 17.8565 233.563C17.6129 231.354 17.523 229.268 17.4327 227.181C17.1549 224.663 17.1922 222.235 17.2852 219.927C16.827 218.356 16.7261 217.169 16.67 216.66C16.4272 214.458 16.5999 212.529 17.2989 210.766L17.1407 209.326C16.897 207.117 15.0417 205.505 13.7393 203.832C11.8552 200.686 10.278 197.785 10.0801 195.99C9.95834 194.885 9.77592 193.229 11.2344 191.252C13.3999 188.078 17.4823 185.811 17.7159 181.592C17.9929 180.305 17.9943 179.047 17.8877 178.081C17.7203 176.562 17.5983 175.457 18.1211 173.862C18.1548 170.365 18.6797 166.254 19.2959 162.972C20.4493 159.491 20.6209 155.979 21.4981 152.528C22.2666 150.627 22.1463 148.264 22.6387 146.393C22.8174 145.876 23.0537 145.444 23.336 145.085ZM282.577 193.591C281.76 193.521 281.174 193.561 280.838 193.598C279.986 193.692 279.267 193.879 278.611 194.211L278.536 194.249L278.46 194.283C277.846 194.552 277.22 194.787 276.684 194.991C276.121 195.205 275.647 195.386 275.209 195.58C274.314 195.977 273.885 196.297 273.658 196.581L273.525 196.747L273.369 196.893C273.318 196.941 273.176 197.077 272.949 197.691L272.933 197.734L272.916 197.776C272.572 198.628 272.085 199.317 271.694 199.822C271.497 200.077 271.292 200.324 271.126 200.526C270.949 200.741 270.806 200.917 270.674 201.09C270.165 201.754 270.119 202.007 270.134 202.26C270.324 204.358 269.667 206.192 269.516 206.897C269.49 207.018 269.47 207.142 269.46 207.258C269.453 207.34 269.453 207.402 269.454 207.444C269.472 207.488 269.539 207.668 269.745 208.058C269.89 208.333 270.057 208.629 270.273 209.015C270.477 209.382 270.711 209.805 270.952 210.271L271.082 210.507C271.76 211.673 272.843 212.694 274.342 213.91C275.698 215.01 277.593 216.404 279.085 218.076L279.378 218.414L279.436 218.483L279.489 218.555C280.371 219.744 281.291 220.502 282.997 221.869C284.309 222.854 285.233 224.022 285.912 224.89C286.601 225.772 287.014 226.302 287.461 226.697C289.564 227.905 291.355 228.869 293.108 229.699C293.735 229.995 294.347 230.154 295.225 230.338C295.961 230.492 296.96 230.675 298.071 231.014L298.555 231.17L298.729 231.228L298.894 231.307C299.341 231.523 299.724 231.756 300.023 231.945C300.374 232.166 300.523 232.269 300.759 232.41C301.116 232.623 301.335 232.711 301.601 232.753L302.082 232.829L302.514 233.052C302.633 233.114 302.913 233.2 303.643 233.12C303.701 233.113 303.759 233.104 303.818 233.095C303.163 232.935 302.509 232.734 301.825 232.411C299.909 231.504 297.977 230.459 295.738 229.169C294.052 227.817 293.118 225.685 291.141 224.226C289.454 222.875 288.228 221.892 287.079 220.342C284.505 217.272 280.242 215.366 278.297 211.668C277.409 209.949 276.581 208.783 276.475 207.816C276.414 207.264 276.491 206.696 276.583 206.266C276.86 204.978 277.306 203.951 277.139 202.432C276.988 199.794 279.366 198.553 280.135 196.652C280.458 195.778 280.811 195.18 281.317 194.705C281.67 194.264 282.099 193.903 282.577 193.591ZM237.982 229.811C240.327 230.862 241.85 231.556 243.702 231.652C243.878 231.634 244.049 231.619 244.216 231.605C242.204 230.948 240.109 230.198 237.982 229.811ZM196.912 165.48C196.545 167.355 196.3 169.143 195.537 171.209C194.216 173.171 192.88 174.995 192.004 177.188C191.71 177.705 191.399 178.205 191.078 178.693C191.417 179.704 191.749 180.642 192.09 181.603C192.393 182.458 192.704 183.333 193.023 184.273L193.345 185.238L193.405 185.425L193.442 185.617C193.625 186.581 193.755 187.711 193.874 188.523C194.006 189.425 194.158 190.234 194.407 191.019L194.424 191.071L194.439 191.123C195.237 193.996 196.102 196.835 196.98 199.714C197.635 201.864 198.297 204.037 198.935 206.237L199.563 208.446L199.594 208.558L199.616 208.674C199.933 210.294 200.28 212.059 200.479 213.86C200.537 214.386 200.538 214.878 200.533 215.207C200.532 215.327 200.528 215.444 200.525 215.527C200.701 216.955 201.174 218.418 202.039 220.051C203.777 222.938 205.48 224.855 207.405 226.081C209.273 227.269 211.586 227.955 214.822 227.982C214.84 227.98 214.857 227.976 214.874 227.973C212.808 226.421 211.068 224.271 209.423 221.523C208.366 219.544 207.739 217.656 207.525 215.723C207.51 215.585 207.572 214.879 207.496 214.189C207.313 212.533 206.993 210.891 206.672 209.25C205.051 203.42 203.169 197.758 201.548 191.927C200.905 189.902 200.83 187.953 200.494 186.174C199.653 183.611 198.872 181.601 198.03 179.039C197.909 177.934 198.477 176.754 198.356 175.649C198.158 173.854 197.837 172.212 197.639 170.418C197.588 168.885 197.548 167.452 197.426 166.043C197.24 165.862 197.07 165.674 196.912 165.48ZM322.2 172.589C321.068 172.6 319.935 172.613 318.811 172.698C320.031 173.666 320.997 174.764 321.739 176.086C323.169 178.632 323.579 181.777 324.136 185.073L324.2 185.453L324.166 185.836C324.06 187.039 323.87 188.15 323.694 189.123C323.512 190.135 323.357 190.947 323.263 191.752L323.26 191.779L323.256 191.805C323.211 192.137 323.187 192.35 323.176 192.494C323.199 192.557 323.229 192.633 323.254 192.718C323.291 192.844 323.343 193.046 323.371 193.297C323.492 194.388 323.316 195.439 322.845 196.537C322.012 198.967 321.068 202.091 319.58 204.834C318.365 207.074 316.713 209.22 314.302 210.838C315.443 210.751 316.579 210.627 317.75 210.811C317.903 210.934 318.179 210.904 318.317 210.888C319.008 210.812 319.745 209.892 320.804 209.356C326.665 206.753 328.235 200.711 330.034 195.482C330.372 194.746 330.45 194.178 330.389 193.626C330.373 193.488 330.206 193.227 330.19 193.089C330.13 192.537 330.206 191.969 330.283 191.402C330.5 189.562 330.992 187.69 331.178 185.574C329.972 178.44 329.806 175.663 322.477 172.558L322.2 172.589ZM53.0127 205.783C53.5237 205.903 54.1056 206.034 54.7295 206.165C54.5127 206.089 54.2959 206.017 54.0801 205.952C53.7184 205.842 53.3645 205.802 53.0127 205.783ZM104.972 161.332C104.386 161.078 103.913 161.008 103.366 161.068C102.622 161.15 100.973 161.408 99.2881 163.009C96.3392 166.758 94.7952 171.297 95.1143 174.192C95.1635 174.638 95.278 175.106 95.4522 175.738C95.9942 176.579 96.7679 177.855 97.0547 179.33C98.2186 182.09 99.9956 184.505 102.086 187.404C105.476 190.944 110.054 192.657 115.367 194.026L116.452 194.299L116.563 194.326L116.671 194.361C117.145 194.517 117.618 194.677 118.09 194.841C115.011 193.576 112.156 191.87 109.774 189.33C107.629 186.352 105.499 183.513 104.152 180.168C104.031 179.063 103.357 178.019 102.683 176.975C102.453 176.162 102.224 175.349 102.133 174.521C101.718 170.762 103.508 165.774 106.473 161.753C106.165 161.662 105.853 161.581 105.535 161.512L105.244 161.45L104.972 161.332ZM175.137 131.129C174.733 131.383 174.31 131.732 173.814 132.2C173.312 132.673 172.42 133.597 171.632 134.287C171.497 134.453 171.397 134.636 171.29 134.913C171.219 135.099 171.153 135.302 171.061 135.594C170.976 135.863 170.862 136.228 170.725 136.6L170.648 136.807L170.542 137.002C170.059 137.884 169.891 138.818 170.015 139.94C170.089 140.615 170.259 141.292 170.538 141.976C170.925 142.881 171.01 143.895 171.039 144.16C171.167 145.32 171.073 146.62 170.977 147.755C170.878 148.922 170.762 150.056 170.706 151.29L170.717 151.379L170.713 151.573C170.698 152.323 170.709 153.087 170.717 153.931C170.724 154.753 170.728 155.64 170.691 156.53C170.62 158.261 170.389 160.219 169.586 162.09C169.33 162.731 169.227 163.439 169.16 164.459C169.101 165.358 169.069 166.787 168.777 168.142L168.763 168.209L168.745 168.274C168.421 169.504 167.923 170.6 167.468 171.523C166.98 172.513 166.62 173.163 166.268 173.947C164.586 178.648 162.272 183.205 158.981 187.311L158.739 187.614L158.428 187.844C157.722 188.368 156.883 189.032 156.003 189.7C156.075 189.733 156.147 189.768 156.222 189.799C157.096 190.121 157.939 190.167 158.768 190.076C159.182 190.03 160.287 189.909 161.99 188.883C163.556 187.871 165.091 186.584 166.641 185.435C169.712 181.603 171.894 177.31 173.493 172.801C174.277 171.038 175.351 169.382 175.844 167.511C176.306 165.364 175.925 163.17 176.801 160.977C178.03 158.187 177.65 154.735 177.714 151.513L177.698 151.376C177.808 148.569 178.239 146.146 178.057 144.489C178.011 144.075 177.95 143.522 177.767 143.123C177.384 142.187 177.139 141.236 177.032 140.269C176.85 138.613 177.097 137.048 177.911 135.561C178.294 134.525 178.459 133.514 179.191 132.538C178.672 132.268 178.081 132.084 177.406 131.992L177.08 131.947L176.771 131.833C176.367 131.684 176.015 131.525 175.747 131.402C175.448 131.265 175.299 131.194 175.145 131.132C175.142 131.131 175.139 131.13 175.137 131.129ZM416.26 125.504C424.021 123.564 445.252 122.063 453.829 128.191C454.801 128.885 455.724 129.673 456.594 130.542C464.441 136.802 467.671 147.523 463.97 160.511C459.2 177.222 445.153 184.59 431.502 184.107C421.157 185.069 410.66 182.822 403.754 177.842C397.046 173.021 388.252 161.471 391.217 147.434L391.367 146.763C394.21 134.718 408.3 127.713 415.577 125.684L416.26 125.504ZM418.06 128.172C417.675 128.252 417.317 128.332 416.987 128.415L416.986 128.414C413.805 129.211 408.664 131.268 404.013 134.577C399.342 137.9 395.52 142.227 394.287 147.453L394.286 147.455C391.371 159.764 398.753 170.23 404.913 174.967L405.505 175.407L405.509 175.41C408.486 177.557 412.283 179.169 416.508 180.165C415.204 179.477 413.947 178.704 412.754 177.843C405.94 172.945 396.972 161.103 400.367 146.764C402.493 137.757 410.907 131.569 418.06 128.172ZM454.926 146.192C452.717 146.174 450.912 147.951 450.894 150.16C450.89 150.629 450.825 151.589 450.688 152.583C450.62 153.068 450.543 153.51 450.462 153.864C450.372 154.26 450.315 154.377 450.344 154.316C449.932 155.198 449.575 155.861 449.237 156.465C448.92 157.031 448.513 157.728 448.154 158.442C447.207 160.327 447.051 160.888 446.427 161.969C446.035 162.647 445.444 163.517 444.807 164.446C443.44 165.777 441.897 166.921 440.215 167.825C440.082 167.842 439.931 167.863 439.748 167.886C439.115 167.906 438.493 167.937 437.815 167.98C437.773 167.982 437.735 167.982 437.702 167.982C435.877 167.394 433.84 168.191 432.928 169.95C431.912 171.911 432.678 174.325 434.64 175.342C434.719 175.383 434.8 175.418 434.879 175.454C435.094 175.621 435.362 175.8 435.69 175.959C435.727 175.979 436.36 176.346 436.998 176.452C437.16 176.479 437.569 176.557 437.94 176.595C438.328 176.635 438.887 176.661 439.477 176.518C439.501 176.512 439.525 176.503 439.551 176.496C439.85 176.47 440.157 176.404 440.465 176.288L441.758 175.8V175.742C441.818 175.715 441.878 175.685 441.939 175.658C443.022 175.475 444.453 175.113 446.12 174.176C447.431 173.441 449.118 172.351 450.331 170.544C450.677 170.028 451.179 169.304 451.697 168.541C455.309 164.552 457.84 159.587 458.743 154.173L458.745 154.161C458.82 153.695 458.818 153.189 458.732 152.685C458.831 151.763 458.888 150.878 458.894 150.224C458.911 148.016 457.134 146.21 454.926 146.192ZM288.648 112.951C287.196 113.141 285.752 113.416 284.316 113.775C282.467 114.629 280.564 115.408 278.744 116.16C276.808 116.96 274.952 117.736 273.177 118.596C269.647 120.308 266.649 122.258 264.409 125.035C263.489 126.336 262.377 127.459 261.646 128.257C260.803 129.175 260.305 129.821 260.02 130.492L259.956 130.64L259.877 130.782C259.879 130.778 259.858 130.815 259.823 130.94C259.783 131.084 259.748 131.251 259.689 131.556C259.591 132.053 259.411 133.103 258.847 134.11L258.83 134.14L258.813 134.171C257.267 136.787 256.319 139.778 255.437 143.054L255.371 143.298L255.266 143.526C255.188 143.694 255.177 143.762 255.176 143.769C255.175 143.771 255.175 143.775 255.175 143.78C255.198 143.841 255.226 143.914 255.265 144.014C255.311 144.132 255.368 144.278 255.427 144.438C255.67 145.095 255.972 146.026 256.101 147.192L256.161 147.744L256.193 148.04L256.168 148.336C256.06 149.564 256.075 150.761 256.189 151.794C256.637 155.861 259.195 161.335 264.904 165.123C267.569 166.325 270.455 167.189 273.398 167.724C266.815 163.424 263.753 157.079 263.206 152.123C263.069 150.88 263.055 149.484 263.179 148.073L263.118 147.521C262.936 145.864 262.261 144.821 262.2 144.268C262.124 143.578 262.202 143.01 262.54 142.274C263.433 138.962 264.463 135.634 266.23 132.644C266.813 131.602 266.676 130.36 267.26 129.317C268.259 126.971 270.469 125.469 272.035 123.2C276.236 117.958 282.511 115.489 288.648 112.951ZM62.8438 161.762C63.1066 161.926 63.3501 162.089 63.5733 162.245C64.5285 162.911 64.9629 163.28 65.6055 163.653C67.2554 164.506 68.8064 165.219 70.4542 165.6C71.0355 165.646 71.5769 165.664 72.0538 165.611L72.9737 165.509C71.8408 164.7 70.777 163.827 69.379 163.459C67.6461 162.951 66.0512 162.428 64.3184 161.921C63.8079 161.897 63.3189 161.84 62.8438 161.762ZM307.01 133.465C307.309 133.67 307.602 133.903 307.88 134.17C309.845 135.368 312.292 135.627 314.631 135.546C313.559 135.061 312.307 134.978 311.049 134.83C309.645 134.339 308.318 133.865 307.01 133.465ZM75.5391 6.57784C80.453 4.92177 89.648 -0.522892 109.834 0.0407273C122.796 1.15262 145.894 18.7303 150.152 25.5593L150.537 26.1901C151.29 27.461 151.95 28.7844 152.527 30.1501C152.935 30.6507 153.274 31.115 153.536 31.5358C161.388 44.0819 159.155 62.3476 158.234 75.8112C157.411 87.8443 131.882 119.204 109.051 118.237C108.297 118.206 107.223 118.067 105.903 117.846C104.856 117.924 103.811 117.945 102.772 117.901C96.0438 117.62 65.2198 109.529 59.1387 105.884L58.8682 105.715C56.1852 103.936 39.0993 77.8908 36.9727 73.612C22.4227 44.3817 46.8872 16.271 75.5391 6.57784ZM447.487 81.654C450.923 79.0395 458.681 75.7866 467.031 77.6911C474.265 79.3473 477.411 85.7234 477.948 88.6814C478.543 91.9347 478.306 99.3903 474 102.691C469.578 106.075 463.829 107.773 456 105.691C441.574 101.87 439.252 87.9242 447.487 81.654ZM109.653 3.03682C99.908 2.7738 92.8891 3.95466 87.7569 5.36885C85.1748 6.08037 83.0398 6.85967 81.2305 7.571C79.52 8.24354 77.8171 8.97551 76.5001 9.41963V9.42061C62.7021 14.0887 50.0122 23.172 42.5567 34.4255C35.1674 45.5794 32.9381 58.7745 39.6583 72.2751L39.6592 72.2761C40.6166 74.2025 45.2924 81.6041 50.2032 88.9294C52.6288 92.5475 55.0586 96.0682 57.0381 98.7819C58.0302 100.142 58.8895 101.272 59.5674 102.101C59.9074 102.517 60.1797 102.831 60.3858 103.05C60.4963 103.167 60.5648 103.228 60.5928 103.255C61.4976 103.829 63.6655 104.742 66.8702 105.852C62.5967 100.977 49.0905 80.3155 47.2706 76.653C43.6031 69.2853 42.5767 61.9933 43.5567 55.0915C43.5934 53.158 43.776 51.2171 44.1172 49.279C45.8584 39.3896 51.6296 29.8668 62.087 21.9499C72.4888 14.0753 84.4014 10.0196 96.0245 9.3962C100.917 8.21639 107.287 7.34251 115.681 7.57686C121.645 8.08829 129.893 12.3149 137.227 17.2448C135.454 15.8706 133.549 14.4816 131.571 13.1374C127.702 10.5076 123.603 8.07874 119.725 6.25069C115.837 4.41845 112.366 3.28481 109.653 3.03682ZM140.462 34.0437C125.184 16.4671 95.1604 13.277 72.5508 30.3933C40.581 54.5973 59.7762 93.8456 94.7139 102.568C98.8042 103.091 103.051 103.229 107.412 102.921C138.166 100.737 152.124 66.2918 143.395 39.8981C142.558 37.8419 141.575 35.8891 140.462 34.0437ZM148.709 50.8444C149.708 61.5133 147.666 72.5139 142.879 81.8562C138.087 91.2079 130.489 98.98 120.389 103.023C142.329 97.237 152.856 72.4095 148.709 50.8444ZM472.444 86.2253C472.079 86.2253 471.796 86.332 471.786 86.3356C471.703 86.3643 471.637 86.3935 471.599 86.4108C471.519 86.4474 471.45 86.4844 471.401 86.5124C471.35 86.5417 471.299 86.5732 471.249 86.6062L471.101 86.7097C470.606 87.0734 470.358 87.5636 470.256 87.9831C470.166 88.3526 470.187 88.6713 470.201 88.8259C470.216 88.9821 470.245 89.1405 470.251 89.1755C470.257 89.2123 470.259 89.2223 470.258 89.2146L470.276 89.403C470.285 89.4644 470.296 89.5232 470.307 89.5788C470.303 89.7411 470.321 89.908 470.364 90.0769C470.394 90.1941 470.423 90.3238 470.453 90.4411C470.453 90.4451 470.454 90.4498 470.454 90.4538C470.527 90.4928 470.513 91.0607 470.513 91.1228C470.528 91.5692 470.513 92.0162 470.453 92.4626C470.453 92.5799 470.394 92.7212 470.379 92.8269C470.32 93.05 470.26 93.2619 470.186 93.4851C470.111 93.7082 470.037 93.9202 469.948 94.1315C469.916 94.2159 469.875 94.3001 469.833 94.3845C469.707 94.5415 469.577 94.6858 469.436 94.82C468.87 95.356 468.419 95.7868 468.023 96.1472C467.366 96.4564 466.797 96.7712 466.517 96.9118C466.366 96.9874 466.309 96.9951 465.888 97.1745C465.853 97.1891 465.778 97.2163 465.645 97.2526C465.582 97.2696 465.518 97.2853 465.446 97.3034C465.383 97.3193 465.291 97.3423 465.212 97.364C464.935 97.4394 464.703 97.5418 464.578 97.5974C464.492 97.6357 464.48 97.642 464.435 97.6618L464.431 97.6638C464.384 97.6798 464.337 97.6982 464.29 97.7185C463.448 97.954 462.829 98.7259 462.829 99.6433C462.829 100.456 463.315 101.155 464.012 101.467C464.295 101.686 464.593 101.806 464.869 101.866C465.166 102.007 465.448 102.069 465.668 102.096C465.971 102.133 466.24 102.116 466.422 102.096C466.607 102.076 466.777 102.045 466.879 102.026C466.94 102.015 466.972 102.008 467.009 102.002C467.032 101.997 467.044 101.996 467.047 101.996C467.554 101.929 468.003 101.752 468.351 101.598L468.372 101.64C468.639 101.504 468.899 101.36 469.152 101.212C470.04 100.894 470.928 100.406 471.724 99.6335C472.547 98.8347 473.761 97.7345 474.474 96.1989C474.576 95.9784 474.685 95.7184 474.797 95.4294C474.821 95.3189 474.845 95.2073 474.867 95.0944C475.318 92.783 475.228 90.483 474.997 89.2204L474.996 89.2165C474.909 88.7387 474.72 88.1219 474.418 87.4353C474.341 87.3687 474.266 87.3079 474.193 87.2556C473.852 86.6413 473.197 86.2255 472.444 86.2253ZM453.901 81.6062C451.953 82.3389 450.363 83.2359 449.304 84.0417C446.22 86.3901 445.098 90.1462 446.131 93.7683C446.812 96.1562 448.49 98.6193 451.407 100.495C446.401 95.3386 447.408 87.4994 452.524 82.7253C452.917 82.3593 453.379 81.9813 453.901 81.6062ZM196.447 18.8913C217.882 2.95459 252.259 4.69667 262.648 31.279C271.728 54.5356 266.457 75.4321 252.534 85.3376C242.051 94.977 224.819 96.9503 204.598 85.5544C193.565 79.3419 186.088 70.275 183.299 60.5485C177.385 46.5416 180.706 30.5977 196.447 18.8913ZM234.513 36.1413C205.671 34.5312 194.793 40.4221 194.856 50.446C196.373 56.0723 200.284 62.5789 205.786 69.5808C217.837 80.0216 239.53 82.9346 251.595 71.5437C263.114 56.4161 256.309 37.3584 234.513 36.1413ZM70.5713 32.4392C79.8136 22.2778 95.9051 26.1595 104.587 34.8142C105.198 35.425 105.894 35.9584 106.792 36.989C108.233 37.9553 109.568 39.0421 110.755 40.2253C112.15 41.6199 114.031 42.5694 117.905 50.905C119.764 60.1366 116.573 66.0286 114.681 68.5476C110.984 73.4862 104.262 76.8127 97.7725 77.7116C91.5082 77.8837 83.7041 76.833 78.2657 73.5163C71.887 71.9972 66.1258 68.9373 63.9083 63.5524C62.8755 61.0498 59.0669 54.1534 61.4122 45.7243C65.5006 35.7525 69.2185 33.9246 70.5713 32.4392ZM87.418 29.5476C81.8967 28.858 76.6161 30.2525 72.7911 34.4577L72.7891 34.4597C72.3094 34.9863 71.5679 35.5985 71.1377 35.9812C70.6 36.4595 69.9876 37.0393 69.3008 37.8454C67.9474 39.434 66.1796 42.0532 64.2627 46.6862C62.3409 53.8422 65.5232 59.6029 66.6807 62.4079L66.6817 62.4099C67.7598 65.0279 70.056 67.1035 73.2735 68.6433C73.0056 68.1858 72.7672 67.708 72.5616 67.2087C71.5921 64.8591 68.0167 58.3838 70.2188 50.4694C74.0573 41.1075 77.5473 39.3904 78.8174 37.9958C83.6649 32.6665 90.5187 31.4525 97.0459 32.8347C94.0758 31.1351 90.7461 29.9633 87.418 29.5476ZM233.273 12.111C221.5 10.4572 208.337 13.7898 198.237 21.2985C190.475 27.0712 186.054 33.8175 184.362 40.7253C186.683 35.1626 190.825 29.8714 197.004 25.2761C217.13 10.3133 249.405 11.9495 259.159 36.9079C259.59 38.0117 259.985 39.1104 260.348 40.2019C260.928 41.1923 261.433 42.226 261.858 43.2985C263.327 46.9989 263.8 51.018 263.301 55.0905C263.481 58.1123 263.387 61.0285 263.034 63.8112C265.139 54.8694 264.411 44.0398 259.855 32.3689C255.119 20.2542 244.959 13.7529 233.273 12.111ZM235.006 43.3317C238.466 39.5283 244.208 41.0405 247.458 44.28C248.014 44.8358 250.444 47.9249 250.591 48.4782C250.902 49.6532 250.059 54.5087 249.305 55.5134C248.805 56.1813 248.164 56.7718 247.437 57.279C247.203 58.3469 246.911 59.2874 246.631 59.6608C245.247 61.5094 242.73 62.7541 240.301 63.0905C236.851 63.1852 232.153 62.2905 230.863 59.1599C230.5 58.2803 229.163 55.8559 229.987 52.8933C230.445 51.7777 230.889 50.9519 231.297 50.3278C231.3 49.6905 231.38 49.0124 231.577 48.3054C233.108 44.5726 234.499 43.8878 235.006 43.3317ZM240.908 44.1374C239.422 43.9365 238.172 44.3106 237.226 45.3513L237.224 45.3523C236.955 45.6468 236.518 46.0139 236.465 46.0612C236.356 46.1583 236.246 46.2604 236.129 46.3835C239.126 45.5129 242.647 46.8723 244.897 49.1149C245.268 49.4866 246.531 51.0647 247.277 52.1296C247.318 51.9355 247.358 51.7351 247.395 51.531C247.514 50.8659 247.598 50.2219 247.636 49.7106C247.645 49.5843 247.651 49.4736 247.654 49.3796C247.65 49.3733 247.645 49.3666 247.641 49.3601C247.425 49.0441 247.124 48.6338 246.793 48.1999C246.465 47.7702 246.125 47.342 245.84 46.9939C245.697 46.8198 245.575 46.6721 245.478 46.5593C245.397 46.4655 245.353 46.4187 245.34 46.405C244.134 45.2035 242.474 44.3491 240.908 44.1374Z" fill="black"/>
</svg>
