<svg width="469" height="346" viewBox="0 0 469 346" fill="none" xmlns="http://www.w3.org/2000/svg">
<path d="M227.536 0.106414C236.802 -0.397474 245.95 0.992937 255.113 2.07809C265.062 3.06941 274.92 5.02686 284.842 6.36618C297.187 8.51177 310.046 9.88696 320.926 19.7529C325.195 23.214 329.061 27.8477 332.559 33.1972C334.397 36.0701 336.202 39.039 337.74 42.414C339.106 45.4044 340.248 48.7063 341.345 52.0263C343.773 59.1328 344.404 67.8102 346.785 74.9677L347.148 76.0674C347.294 76.4608 347.438 76.8653 347.583 77.2588C349.861 83.3476 352.744 88.6185 355.763 93.582C356.124 94.1232 356.476 94.6746 356.838 95.2158C361.575 102.212 366.591 106.331 368.572 107.892C371.54 110.172 374.583 112.261 377.712 113.919C381.554 115.86 385.527 117.112 389.487 118.406C393.422 119.578 397.371 120.685 401.3 121.933C407.403 123.695 413.37 126.333 419.167 129.724C424.234 132.698 429.138 136.338 433.872 140.479C440.79 146.273 447.222 153.649 452.764 162.74C456.226 168.207 459.535 174.079 461.958 181.141C463.364 184.998 464.645 189 465.663 193.244C466.613 197.581 467.346 202.12 467.854 206.741L467.868 206.786C468.538 213.443 468.611 220.36 468.329 227.229C467.9 233.497 467.058 239.788 465.729 245.812C464.607 250.365 463.27 254.847 461.574 258.896C460.102 262.176 458.447 265.223 456.717 268.101C453.959 272.42 450.823 275.968 447.604 279.094C443.466 282.817 439.076 285.373 434.729 288.042C425.26 293.321 415.501 296.304 405.789 297.627C397.448 298.857 389.166 298.505 380.854 298.884C373.08 299.336 365.288 301.056 357.514 301.509C346.526 302.233 335.531 302.234 324.667 300.856C317.839 300.013 311.027 298.832 304.149 298.52C301.207 298.331 298.25 298.579 295.292 298.946C294.662 299.063 294.032 299.19 293.4 299.328C289.279 300.275 285.169 301.89 281.145 304.112C280.762 304.313 280.378 304.525 279.994 304.748C280.647 304.327 281.308 303.917 281.96 303.507C276.78 306.66 271.694 310.312 266.602 313.931C260.136 318.594 253.585 322.88 246.964 326.591C239.727 330.463 232.388 333.486 225.037 336.212C210.108 341.998 194.987 345.33 179.956 345.629C173.013 345.717 166.05 345.848 159.199 344.719C155.699 344.05 152.235 343.012 148.825 341.716C145.456 340.357 142.081 339.063 138.872 336.962C132.205 332.478 125.817 326.373 121.021 317.251C116.619 309.066 113.457 299.028 108.866 291.135C106.023 286.852 102.882 283.169 99.5811 279.967C98.771 279.228 97.9605 278.488 97.1504 277.749C95.5756 276.482 94.0134 275.161 92.3906 274.065C86.2806 269.612 79.9098 266.178 73.4277 263.294C64.3289 259.622 63.458 259.567 52.2139 256.51C45.1359 254.685 37.9559 253.049 31.25 249.076C27.6285 246.998 24.16 244.276 20.8252 241.181C18.8225 239.323 16.8446 237.369 14.9639 235.171C13.1377 232.944 11.5106 230.273 9.94043 227.552C8.51076 224.939 7.28994 221.992 6.21191 218.893C4.12968 213.453 2.50852 207.468 1.60742 200.979C1.00644 197.238 0.417864 193.453 0.162109 189.54C-0.0545862 185.225 -0.0557467 180.829 0.168945 176.46C0.542324 170.932 1.35938 165.438 2.47949 160.098C4.06453 153.349 6.19367 146.925 8.57715 140.838C11.6878 132.881 15.5121 125.786 19.2578 118.686C23.899 110.265 28.8031 102.181 34.1152 95.0683C45.2665 80.8166 57.5394 69.6673 70.2363 61.0117C74.2915 53.5196 79.0647 47.4161 84.0244 41.9609C90.5757 34.8869 97.7955 30.0837 105.104 26.7744C116.308 21.7795 127.688 19.5641 139.021 17.1709C144.489 15.9867 149.934 14.407 155.39 13.0468C162.43 11.4344 169.481 9.91029 176.521 8.18845C185.345 5.99973 194.191 4.21791 203.026 2.91598C211.203 1.6627 219.379 0.409616 227.536 0.106414ZM216.855 192.487C215.098 189.679 212.624 187.475 209.162 188.312C208.551 188.46 207.94 188.609 207.379 188.96C206.055 189.28 204.651 190.159 204.107 191.477C203.95 192.161 203.792 192.846 203.813 193.38L203.801 195.108C203.798 195.54 203.896 195.947 203.994 196.354C204.167 197.067 204.667 198.24 205.496 199.44C205.974 200.079 206.248 200.768 206.421 201.48C206.495 201.786 206.393 201.811 206.467 202.116C206.639 202.829 206.938 203.619 207.416 204.258C208.122 204.949 208.548 205.816 208.77 206.732L209.09 208.057C209.262 208.769 209.46 209.583 209.734 210.271C210.375 212.919 208.112 216.485 205.591 217.203C203.221 218.1 201.897 218.421 201.489 218.52C200.471 218.766 199.428 218.91 198.234 218.876C197.216 219.122 196.096 219.393 195.078 219.64C192.227 220.33 190.418 220.875 189.502 221.097C188.586 221.318 187.567 221.566 186.626 221.686C185.506 221.956 184.568 221.644 183.448 221.915C182.634 222.112 181.893 222.615 181.078 222.812C179.477 222.877 177.848 223.271 176.219 223.665C175.632 223.915 174.919 224.087 174.206 224.26C173.494 224.432 173.062 224.429 173.062 224.429C172.043 224.675 171.327 225.28 171.04 226.319C170.29 228.118 170.554 230.102 170.439 231.854C170.661 232.771 170.785 233.28 170.911 233.357C172.823 235.913 174.605 238.823 177.724 239.686C180.13 240.72 183.08 240.437 185.595 240.583C188.162 240.501 190.655 240.113 193.2 239.497C194.117 239.275 197.555 238.335 203.285 236.625C203.794 236.502 204.254 236.175 204.661 236.076C205.349 235.802 205.76 235.271 206.473 235.099L206.778 235.025C210.083 234.873 211.898 240.146 212.588 242.997C212.785 243.812 213.278 245.849 213.265 247.576C213.744 251.34 213.181 255.25 214.143 259.221C214.368 259.705 214.618 260.292 214.741 260.801L215.135 262.43C215.1 263.623 214.993 264.512 215.264 265.632C215.426 267.64 215.286 269.292 214.968 271.094C214.779 272.54 213.604 273.472 213.061 274.789C212.093 278.365 210.719 282.039 210.208 285.72C209.89 287.521 209.978 289.224 209.839 290.875C209.804 292.069 209.872 293.239 210.118 294.257C211.4 299.552 216.62 301.522 221.361 302.853C221.843 303.06 222.275 303.064 222.784 302.94C222.887 302.915 223.372 302.691 224.49 302.42C225.632 302.683 226.699 302.64 227.819 302.369C227.921 302.344 228.202 302.169 228.508 302.095C229.526 301.848 230.569 301.703 231.637 301.66L231.941 301.587C232.654 301.414 233.318 301.038 233.704 300.405L235.143 298.333C235.578 297.904 236.09 297.349 236.729 296.871C239.077 295.44 239.051 292.213 238.916 289.874C239.024 288.985 239.031 288.121 238.834 287.307C238.809 287.204 238.46 286.21 237.891 284.302L237.792 283.895C237.595 283.08 237.015 282.465 236.438 281.419C236.378 279.386 236.338 277.887 236.166 277.174C235.994 276.461 235.743 275.874 235.392 275.312C234.664 274.087 233.708 272.809 232.829 271.405C232.703 271.328 232.654 271.124 232.629 271.022C232.457 270.31 232.867 269.779 232.694 269.066C232.67 268.964 232.62 268.762 232.494 268.685C231.992 267.944 231.893 267.536 231.819 267.23C231.745 266.925 231.696 266.722 231.724 266.392C231.776 266.163 231.727 265.959 231.678 265.756C231.481 264.941 230.546 264.197 230.274 263.077C229.905 261.55 228.995 260.908 228.369 259.658C227.774 257.646 227.426 256.652 227.353 256.347C227.131 255.43 227.137 254.566 227.221 253.576C227.409 252.13 227.339 251.392 227.216 250.883C227.142 250.577 227.043 250.17 226.843 249.787C226.849 248.923 226.754 248.084 226.557 247.27L226.187 245.742C226.015 245.029 225.867 244.418 225.796 243.681C225.732 242.079 225.896 240.53 225.782 238.726C226.327 233.851 226.366 232.224 230.479 229.181C231.729 228.555 233.13 228.109 234.556 227.764C234.963 227.665 235.395 227.668 236.107 227.495C237.431 227.175 238.629 226.778 239.928 226.355C241.375 226.544 242.85 226.403 244.377 226.033C244.682 225.959 246.491 225.413 249.647 224.649C250.079 224.653 250.487 224.555 250.996 224.432C252.727 224.013 254.847 222.529 255.959 219.996C257.428 217.161 256.834 215.15 256.637 214.335C255.971 211.586 253.131 207.422 248.537 206.701C247.245 206.26 246.199 206.836 245.159 206.549C244.422 206.619 244.193 206.568 243.888 206.642C243.684 206.691 243.481 206.74 243.302 206.891C242.487 207.088 241.644 207.616 240.903 208.118C238.66 209.092 236.645 210.119 234.88 211.731C232.735 213.113 230.414 214.214 228.146 215.086C224.866 215.341 221.433 212.291 220.339 209.106L220.166 208.394C219.599 206.052 219.313 203.534 219.357 201.044C219.367 199.748 219.553 198.733 219.381 198.02C219.307 197.715 219.257 197.511 219.081 197.23C218.687 195.601 218.064 193.919 216.855 192.487ZM348.29 179.757C347.328 179.343 346.337 179.26 345.421 179.481C345.115 179.555 344.708 179.654 344.325 179.854C344.146 180.005 343.943 180.055 343.638 180.129C342.416 180.425 341.099 179.881 339.979 180.152C339.673 180.226 339.265 180.324 338.984 180.5L338.806 180.651C337.556 181.277 336.506 182.286 335.559 183.27C334.636 184.355 333.713 185.441 333.524 186.888C333.388 188.106 333.733 189.532 333.649 190.522C333.492 191.207 333.538 191.843 333.661 192.353C333.681 192.396 335.512 196.437 335.732 197.349C335.806 197.654 335.88 197.959 335.853 198.289C336.04 200.399 336.409 201.927 335.758 204.133C336.111 207.82 335.094 211.192 334.763 214.722C333.999 218.248 333.998 221.806 333.691 225.437C333.036 228.075 333.6 230.849 333.3 233.616C333.191 234.505 332.83 235.239 332.796 236.433C332.663 237.219 332.986 238.112 333.081 238.951C332.137 244.062 333.079 249.116 333.545 254.3C331.915 253.277 329.957 252.428 328.38 252.161C328.152 252.109 327.948 252.158 327.744 252.207C327.642 252.232 327.463 252.383 327.157 252.457C326.954 252.506 326.75 252.555 326.522 252.503C325.94 252.321 325.18 251.858 324.468 252.03C323.653 252.227 323.14 252.783 322.501 253.261C319.616 255.145 316.684 256.393 313.527 257.157C312.074 257.832 310.47 258.329 308.942 258.698C307.211 259.117 305.533 259.307 303.728 259.421C303.194 259.442 302.685 259.565 302.176 259.688L300.546 260.083C300.037 260.206 299.528 260.329 298.994 260.351C298.106 260.242 297.294 260.008 296.479 260.205C295.335 260.374 294.246 259.884 293.102 260.053C292.873 260 292.669 260.049 292.363 260.123C291.651 260.296 289.995 261.019 289.587 261.118C288.874 261.291 288.059 261.488 287.174 260.948C284.061 259.222 283.532 255.254 283.632 252.103C283.778 249.589 285.344 247.593 287.081 246.311C287.362 246.135 287.541 245.984 287.846 245.91C288.151 245.836 288.481 245.864 288.812 245.892C289.142 245.919 289.346 245.871 289.651 245.797C290.058 245.698 290.416 245.395 290.823 245.297C291.027 245.248 291.231 245.198 291.459 245.251C293.06 245.187 294.74 244.997 296.187 245.186C297.967 244.97 299.669 244.881 301.116 245.069C301.446 245.097 301.65 245.048 301.854 244.999C303.483 244.605 304.49 242.529 304.531 240.471C304.51 239.937 304.513 239.505 304.414 239.098C304.143 237.978 303.52 236.295 301.314 235.644C300.071 235.405 298.982 234.915 297.788 234.881C297.254 234.902 296.643 235.049 296.032 235.197C295.523 235.32 294.912 235.468 294.428 235.693C292.774 235.986 291.478 235.976 290.969 236.1C290.46 236.223 289.874 236.473 289.414 236.8C288.828 237.049 288.343 237.274 288.037 237.348C287.732 237.422 287.528 237.472 287.401 237.395C287.324 237.52 287.121 237.57 287.02 237.595C286.307 237.767 285.93 237.104 285.428 236.363C285.203 235.879 284.978 235.394 284.854 234.885L284.731 234.376C284.634 230.411 282.439 224.906 283.434 221C283.819 220.368 284.357 219.915 285.069 219.742C285.477 219.644 286.773 219.653 288.325 219.385C290.436 219.197 292.747 219.393 295.089 218.826C295.801 218.654 296.412 218.505 296.995 218.687C298.442 218.876 300.069 218.915 301.516 219.103C303.524 218.941 305.125 218.876 306.85 219.321C307.331 219.528 307.763 219.531 308.068 219.457C308.17 219.432 308.374 219.383 308.451 219.257C311.966 218.191 312.796 215.834 312.008 212.575C311.835 211.862 311.694 210.387 310.18 209.029C309.473 208.338 308.227 208.532 307.647 207.918C305.849 207.168 304.297 207.436 302.594 207.524C295.568 209.225 290.756 210.281 288.39 210.746C287.776 210.894 281.887 210.596 281.1 210.463C279.881 210.327 278.94 210.446 277.696 210.208C275.487 209.988 273.331 209.54 271.072 209.116C270.489 208.934 269.955 208.956 269.446 209.079C269.141 209.153 268.249 209.476 266.895 210.559C266.459 210.987 266.125 211.392 265.992 212.179C265.94 212.407 265.888 212.635 265.962 212.94C265.987 213.043 266.211 213.527 266.334 214.036C266.299 215.23 265.506 215.961 265.194 216.898C265.012 217.481 264.932 218.04 264.953 218.574C264.203 220.372 264.727 221.647 264.815 223.35L264.964 223.961C265.284 225.285 266.191 226.359 266.486 227.581C266.56 227.886 266.634 228.192 266.606 228.521C267.025 230.252 267.398 231.348 267.623 231.833C268.045 233.132 269.43 234.845 269.8 236.372C269.793 237.236 269.889 238.076 270.086 238.891C270.16 239.197 270.509 240.19 270.977 242.124C270.831 244.638 269.669 246.967 270.187 249.105L270.359 249.818C271.182 251.883 272.925 253.294 274.106 255.056C274.128 255.589 274.226 255.997 274.35 256.506C274.473 257.015 274.694 257.932 275.32 259.182C275.739 260.913 275.628 262.233 275.924 263.455L276.096 264.168C276.166 264.905 276.364 265.72 276.536 266.433C276.709 267.145 277.078 268.673 278.056 270.484L279.362 275.882C279.612 276.468 279.861 277.054 280.009 277.665C280.083 277.971 280.178 278.81 280.446 280.362C281.121 281.815 281.269 282.426 281.969 283.981C282.545 285.028 283.101 285.54 283.678 286.586C284.43 287.913 286.892 288.287 288.317 287.942C289.132 287.745 290.712 287.147 291.561 285.756C293.459 283.356 292.723 279.87 293.684 277.158C294.199 276.171 294.49 274.7 295.406 274.478L295.712 274.403C297.745 274.342 299.418 275.016 301.353 274.548C302.522 274.48 303.666 274.311 304.685 274.064C305.194 273.941 306.697 273.47 309.548 272.78C311.964 272.519 314.38 272.257 316.922 272.073C318.168 271.879 319.314 271.71 320.609 271.72C321.498 271.828 322.435 272.139 323.25 271.942C323.531 271.767 323.735 271.717 323.938 271.668C324.244 271.594 324.472 271.647 324.599 271.725C326.197 272.092 327.798 272.027 329.529 271.608C329.937 271.51 330.369 271.513 330.801 271.517C333.136 271.814 333.315 271.662 333.417 271.638C333.722 271.564 334.105 271.363 334.386 271.187C335 270.608 335.611 270.46 336.021 269.93C336.898 268.615 337.606 267.261 338.198 265.792C338.797 266.797 339.489 267.702 340.79 268.129C342.539 268.676 347.139 268.533 349.074 268.064C349.685 267.917 350.883 267.519 352.213 266.335C355.734 264.405 355.858 261.357 355.403 257.694C355.083 256.371 354.84 254.92 355.078 253.677C355.39 252.739 356.137 251.372 356.652 250.385C357.353 248.383 358.231 246.661 359.993 245.48C361.45 244.374 362.261 244.608 363.209 243.624C364.564 242.542 365.033 240.919 366.592 239.787C366.873 239.611 367.255 239.411 367.561 239.337C368.375 239.14 370.177 239.459 371.312 240.585C372.496 241.915 372.94 243.749 373.334 245.378C373.531 246.192 373.932 246.958 374.459 247.8C375.011 248.744 375.462 249.713 375.708 250.731C375.782 251.037 376.126 252.463 376.233 255.132C376.206 255.462 376.255 255.665 376.329 255.971C376.773 257.803 379.277 259.246 381.501 260.863C381.88 261.095 382.439 261.175 383.022 261.357C383.936 261.568 384.642 262.259 385.889 262.065C386.422 262.044 386.83 261.945 387.339 261.822C391.005 260.935 392.369 258.556 391.408 254.585L391.26 253.975C391.312 253.746 391.263 253.542 391.214 253.339C391.017 252.524 390.083 251.78 389.481 250.632C387.696 248.154 386.04 245.321 384.637 242.643C382.463 237.671 381.028 232.629 379.466 227.51C378.84 226.26 378.315 224.985 377.535 223.988C376.302 222.454 375.858 220.622 374.751 219.165C374.473 218.909 374.322 218.729 374.248 218.424C374.15 218.017 374.254 217.56 374.082 216.848L373.959 216.338C373.481 215.699 373.003 215.06 372.574 214.625C371.868 213.934 371.646 213.017 371.273 211.922C369.288 209.061 366.996 206.274 365.47 203.086C363.142 198.368 360.38 194.078 357.336 189.964C355.708 186.801 354.284 183.589 351.585 180.9C350.805 179.903 349.611 179.868 348.29 179.757ZM351.919 210.785C353.113 210.82 353.795 211.409 354.631 211.746C356.05 212.265 357.265 212.833 357.94 214.286C358.239 215.076 358.69 216.045 359.6 216.687C359.853 216.842 362.798 220.549 362.998 220.932C363.149 221.111 363.199 221.314 363.248 221.518C363.445 222.332 363.133 223.27 362.821 224.208C362.102 225.244 361.16 225.364 360.753 225.463C360.346 225.561 359.938 225.66 359.608 225.632C359.176 225.629 358.668 225.753 358.057 225.9L355.308 226.565C353.984 226.886 349.655 228.149 348.859 225.755C348.268 223.311 348.997 220.978 348.735 218.562L348.661 218.257C348.094 215.915 349.883 211.278 351.919 210.785ZM197.048 106.083L196.735 106.117C195.231 106.81 194.223 108.186 193.065 109.157C192.313 109.978 192.196 110.834 191.871 111.713C191.257 112.835 191.071 114.015 191.209 115.265C191.289 115.993 191.474 116.711 191.763 117.417C191.901 117.718 191.947 118.134 191.981 118.446C192.119 119.696 191.794 121.524 191.711 123.641L191.723 123.745C191.674 126.174 191.961 128.778 191.034 130.883C190.373 132.537 190.661 134.192 190.312 135.811C189.941 137.222 189.13 138.471 188.539 139.801C187.333 143.201 185.687 146.44 183.371 149.33C182.202 150.197 181.044 151.168 179.863 151.931C178.578 152.705 177.745 152.797 177.433 152.831C176.808 152.9 176.172 152.864 175.513 152.621C174.079 152.041 173.408 150.745 172.066 150.05C171.269 149.505 170.795 149.03 170.425 148.544C168.899 147.131 167.326 146.251 166.009 144.815C165.2 144.167 164.216 143.854 163.604 143.078C161.673 140.867 159.326 139.649 157.129 137.889C153.696 134.473 150.483 130.19 145.301 129.075C144.526 128.739 143.774 128.61 142.94 128.702C142.107 128.794 140.245 129.106 138.438 130.886C135.937 134.007 134.383 138.079 134.716 141.099C134.785 141.723 134.958 142.337 135.131 142.95C135.639 143.737 136.147 144.524 136.239 145.357C137.255 147.88 138.862 150.022 140.479 152.268C143.704 155.706 148.077 157.122 152.519 158.213C156.127 159.396 159.667 160.903 163.113 162.525C164.987 163.267 166.501 164.577 167.529 166.255C167.668 166.556 167.703 166.868 167.737 167.181C167.875 168.43 167.456 170.374 166.911 172.12C166.308 174.295 165.682 176.262 165.402 178.506C164.787 180.576 163.895 182.045 162.968 184.149C161.982 186.682 159.344 187.606 157.283 188.992C155.269 190.795 153.358 192.587 152.245 194.923C150.786 196.981 148.156 201.804 148.454 204.512C148.893 205.622 149.575 206.074 149.979 206.873C151.03 209.708 152.983 212.128 155.156 213.68C156.428 214.699 157.713 214.874 159.078 214.829C160.142 214.922 161.091 214.923 161.819 214.843C162.236 214.797 163.07 214.705 165.373 213.607C166.484 213.169 167.34 212.336 168.451 211.897C170.303 210.534 172.71 210.374 174.331 208.825C175.501 207.01 176.614 204.674 177.218 202.499C177.287 202.175 177.241 201.759 177.207 201.446C177.173 201.134 177.033 200.833 176.999 200.52C176.965 200.208 176.93 199.896 177 199.572C177.511 197.513 178.022 195.454 178.429 193.406C178.766 191.683 179.449 190.237 179.566 188.433C180.135 186.894 180.483 185.275 180.611 183.574C181.666 181.666 182.304 179.804 183.231 177.699C184.205 176.011 184.796 174.68 185.896 173.188C186.696 171.836 188.536 171.317 189.335 169.964C189.671 169.189 189.833 168.749 190.065 167.986C190.343 167.639 190.101 167.35 190.379 167.003C190.473 164.99 191.226 163.22 191.771 161.474C193.429 158.34 194.901 155.437 196.338 152.222C197.961 148.775 200.647 146.371 202.501 143.11C203.162 141.457 204.169 140.08 205.165 138.601C205.814 136.843 205.966 135.35 206.314 133.73C206.351 133.571 206.387 133.414 206.422 133.26C206.464 133.548 206.502 133.838 206.534 134.128C206.672 135.377 206.706 136.639 206.751 138.004C206.9 139.357 207.142 140.596 207.291 141.949C207.383 142.782 206.954 143.673 207.046 144.506C207.681 146.438 208.27 147.955 208.904 149.888C209.158 151.23 209.215 152.699 209.699 154.227C210.922 158.624 212.342 162.895 213.564 167.292C213.806 168.53 214.048 169.768 214.186 171.018C214.243 171.538 214.197 172.07 214.208 172.175C214.369 173.633 214.842 175.057 215.639 176.55C218.481 181.296 221.696 183.682 227.388 183.686C228.741 183.537 229.644 183.121 230.373 183.041C230.685 183.007 231.102 182.961 231.426 183.03C231.854 183.088 232.271 183.043 232.791 182.985C233.52 182.905 234.238 182.72 234.759 182.663C235.279 182.606 235.915 182.641 236.447 182.687C238.692 182.967 240.901 183.883 242.972 184.498C245.076 185.425 246.869 186.387 249.09 186.458C251.068 186.24 252.249 186.426 252.77 186.368C253.29 186.311 253.903 186.138 254.412 185.977C257.283 184.29 258.974 182.417 259.288 180.485C259.614 178.658 259.776 177.269 259.673 176.332C259.455 174.353 258.623 172.548 257.155 170.707C256.508 169.619 255.502 169.098 254.276 168.495C253.49 168.055 252.993 167.371 252.103 166.942C250.865 166.236 249.407 166.396 248.228 166.21C245.799 165.213 241.31 164.655 238.603 164.953C238.186 164.999 237.781 165.148 237.364 165.194C236.635 165.275 235.791 165.263 235.051 165.239C233.859 164.949 233.026 165.041 231.881 165.167C230.944 165.27 229.983 165.165 229.093 164.736C227.3 163.775 225.646 163.114 223.854 162.152C223.426 162.094 222.963 161.724 222.489 161.249C222.362 161.052 222.34 160.843 222.328 160.739C222.133 158.969 224.588 156.379 226.104 154.842C227.934 153.27 229.74 151.49 232.182 150.693C233.316 150.463 234.126 150.163 235.237 149.725C238.049 149.415 240.629 148.919 243.175 148.111C244.494 147.65 245.525 146.481 246.821 145.811C247.574 144.991 248.338 144.274 248.651 143.291C249 141.672 248.828 140.109 248.645 138.443C248.183 137.124 247.176 136.603 245.904 135.584C244.679 134.981 243.951 134.113 242.748 133.719C240.897 133.185 239.081 132.963 237.206 133.17L230.542 133.905C228.425 133.822 225.566 133.716 223.449 133.633C222.813 133.598 222.177 133.562 221.448 133.643C220.511 133.746 219.597 134.058 219.076 134.115C218.139 134.219 217.271 133.998 216.381 133.569C214.589 132.608 214.683 130.595 215.02 128.871C215.078 128.443 215.135 128.015 215.078 127.494C215.044 127.182 214.929 127.088 214.917 126.984C214.86 126.464 214.906 125.932 215.161 125.377C215.962 122.127 218.901 122.013 221.517 120.882C222.662 120.756 223.611 120.756 224.582 120.965C225.658 121.162 226.722 121.256 227.764 121.142C228.076 121.107 228.169 120.991 228.481 120.957C229.419 120.854 230.471 120.843 231.547 121.04C232.426 121.365 232.97 121.516 233.282 121.481C235.261 121.263 236.603 121.01 237.124 120.952C237.853 120.872 238.478 120.803 239.114 120.838C241.127 120.932 242.365 121.64 243.614 121.502C243.927 121.467 244.135 121.444 244.436 121.306L244.644 121.282C246.669 120.532 248.314 118.242 248.929 116.172L248.86 115.548C248.585 113.049 246.712 110.409 244.075 109.435C242.456 109.086 240.963 108.935 239.609 109.084L239.193 109.13C236.278 109.451 233.327 109.46 230.064 109.504C227.889 109.849 225.806 110.079 223.665 110.736C222.936 110.817 222.462 110.342 221.525 110.445C221.201 110.376 220.773 110.318 220.461 110.353L219.315 110.478C218.702 110.652 218.089 110.825 217.464 110.894C215.485 111.112 212.975 110.334 209.747 110.69C208.358 111.097 206.836 111.518 205.72 112.435C205.084 111.172 204.151 110.193 203.385 109.073C202.402 107.811 201.05 107.012 199.338 106.779C198.459 106.455 197.881 105.991 197.048 106.083ZM89.6973 117.709C86.1347 116.942 83.5549 116.489 81.8887 116.673C80.9516 116.776 80.0257 116.984 79.123 117.399C77.457 117.583 75.4779 117.801 74.7588 119.883C74.3874 121.294 74.4781 123.077 73.8984 124.511C73.2369 127.113 73.1072 129.762 72.2373 132.388C71.7725 134.863 71.3769 137.964 71.3516 140.602C70.9572 141.804 71.0495 142.638 71.1758 143.783C71.2561 144.512 71.2549 145.461 71.0459 146.433C70.8695 149.614 67.7905 151.323 66.1572 153.717C65.0571 155.208 65.1952 156.458 65.2871 157.291C65.4364 158.645 66.6258 160.833 68.0469 163.206C69.0292 164.468 70.4285 165.684 70.6123 167.35L70.7725 168.808C71.1514 172.244 70.3383 176.34 70.832 180.817C70.9001 182.391 70.9687 183.964 71.1523 185.63C71.2442 186.463 71.5077 188.859 72.3721 192.874C72.3254 193.406 72.3713 193.823 72.4287 194.344C72.601 195.906 73.41 197.503 73.6396 199.585L73.7197 200.314C74.0298 203.126 75.1502 205.637 77.3467 207.397C78.4682 208.011 79.4628 208.429 80.4229 208.534C81.2559 208.442 82.1822 208.235 83.085 207.819C83.918 207.727 84.59 207.126 85.3887 206.722C87.2405 206.306 92.3208 203.639 93.6182 202.02L94.5674 201.072C96.3737 199.292 98.5036 198.53 100.021 196.992C101.78 195.744 103.099 195.283 105.182 195.054C106.64 194.893 108.005 194.847 109.382 194.906C112.656 194.967 115.906 195.768 119.215 196.141C120.441 196.743 121.563 196.409 122.743 196.595C123.715 196.804 124.676 196.909 125.509 196.817C127.036 196.333 128.784 195.929 130.254 194.924C131.273 193.652 132.407 192.473 132.756 190.853C133.15 189.651 133.487 188.875 133.406 188.146C133.383 187.938 133.36 187.73 133.233 187.533C133.303 187.209 133.268 186.897 133.233 186.585C133.05 184.919 132.207 183.008 130.45 181.41C128.612 180.032 126.553 178.573 124.124 178.524C123.696 178.466 123.279 178.513 122.862 178.559C122.03 178.65 121.428 178.927 120.907 178.984C120.387 179.042 119.75 179.007 119.195 178.752C119.091 178.763 113.367 180.343 113.166 180.471C112.46 180.759 111.846 180.932 111.117 181.013C110.284 181.104 109.544 181.081 109.023 181.139C108.191 181.23 107.369 181.426 106.57 181.83C105.564 182.257 104.545 182.581 103.399 182.707C101.837 182.879 99.0722 182.657 95.5908 181.671C95.0357 181.416 94.3173 181.6 93.7852 181.554C92.8482 181.657 92.2814 181.298 91.4141 181.077C88.1285 180.912 85.0158 181.361 82.623 178.779C80.3119 175.978 80.1292 173.363 80.0488 172.634C79.6814 169.302 80.8852 167.798 83.3047 165.845C83.9876 165.348 84.3471 164.781 85.0645 164.597C86.1985 164.366 87.333 164.136 88.4785 164.01C89.8324 163.86 92.4357 163.574 96.2295 164.525C96.9928 164.757 97.7103 164.573 98.4736 164.805C99.237 165.037 100.012 165.372 100.775 165.604L102.973 166.417C104.071 166.823 109.578 168.007 110.932 167.857C111.244 167.823 111.452 167.8 111.753 167.662C114.53 167.04 116.996 165.503 118.294 162.936C118.572 162.589 118.63 162.161 118.584 161.744L118.492 160.911C118.446 160.495 118.401 160.077 118.459 159.649C118.551 159.534 118.529 159.325 118.506 159.117C118.49 159.006 116.162 155.058 116.045 154.962C112.994 151.188 108.365 151.277 104.721 151.679L103.471 151.816C101.909 151.989 100.451 152.15 98.9346 152.738C98.4145 152.796 98.0908 152.726 97.8711 152.645C95.8006 152.03 93.5091 152.282 91.4961 152.187C91.091 152.338 90.6743 152.384 90.2578 152.43C87.6544 152.717 83.9531 151.649 83.3896 147.495C83.1142 144.996 83.996 142.474 84.9814 139.941C86.1055 137.71 87.6923 135.848 89.9609 134.438C91.4653 133.745 92.6813 132.347 94.2432 132.175C95.3772 131.944 96.627 131.806 97.7266 131.264C98.5482 131.068 99.4629 130.756 100.608 130.63C102.621 130.724 104.182 131.5 106.195 131.595C107.502 131.978 108.706 132.372 110.013 132.755C111.424 133.126 112.383 134.18 113.62 134.887C114.961 135.582 116.407 136.266 118.026 136.614C118.559 136.661 119.195 136.696 119.82 136.627L120.966 136.501C121.591 136.432 122.227 136.467 122.759 136.514C123.187 136.572 123.615 136.63 123.928 136.596C124.448 136.538 125.385 136.435 126.092 135.198C126.833 134.273 127.609 133.66 128.038 132.77C128.224 131.59 128.537 130.607 128.515 129.45C128.238 127.9 127.534 126.29 126.633 124.809C125.628 123.338 124.344 122.215 122.517 121.89C121.325 121.599 120.029 121.321 118.826 120.927C116.548 120.335 114.293 119.002 111.841 118.745C111.644 118.872 111.435 118.895 111.123 118.93C109.978 119.056 108.74 118.349 107.144 118.209C106.843 118.347 106.634 118.371 106.322 118.405C105.177 118.532 103.754 118.057 101.949 117.939C101.834 117.847 101.625 117.87 101.417 117.893C101 117.938 100.41 118.319 99.9932 118.365L99.7852 118.389C98.374 118.017 96.9739 117.75 95.6201 117.899C94.3707 118.037 93.6645 118.325 93.248 118.371C92.8316 118.417 92.4035 118.359 91.9756 118.301C91.2353 118.277 90.4605 117.941 89.6973 117.709ZM388.218 172.676C387.843 172.651 387.569 172.721 387.205 172.726C386.939 172.726 386.677 172.825 386.323 172.858C385.51 172.733 384.694 172.775 383.864 172.956C383.631 173.044 383.401 172.965 383.197 173.042C383.052 173.097 382.997 173.217 382.91 173.25C382.881 173.261 382.822 173.283 382.782 173.265C382.516 173.265 382.243 173.336 381.981 173.435C381.952 173.446 381.613 173.607 381.042 173.856C380.813 174.043 380.566 174.269 380.217 174.401C379.256 174.764 378.655 175.025 378.346 175.175C378.199 175.23 376.989 175.987 376.836 176.111C375.904 176.463 375.053 177.118 374.374 177.874C374.084 178.25 373.654 178.611 373.363 178.987C373.174 179.192 373.106 179.452 372.906 179.627C372.336 180.142 371.625 180.377 371.011 180.775C370.662 181.173 370.489 181.772 370.312 182.271C370.164 183.026 370.293 183.809 370.313 184.566C370.402 185.065 370.578 185.531 370.648 186.07C370.736 186.303 370.839 186.398 370.872 186.485C370.905 186.573 370.898 186.642 370.902 186.74C370.91 186.937 370.947 187.123 371.002 187.269C371.035 187.356 371.075 187.374 371.086 187.403C371.152 187.578 371.189 187.764 371.156 187.942C371.211 188.088 371.179 188.267 371.234 188.412C371.267 188.499 371.33 188.576 371.421 188.642C371.607 188.87 371.666 189.114 371.783 189.336C371.816 189.423 371.93 189.547 372.014 189.682C372.065 189.729 372.086 189.788 372.119 189.875L372.186 190.05C372.384 190.574 373.486 191.555 373.942 191.882C374.165 192.031 374.242 192.234 374.465 192.383C374.917 192.611 375.29 192.804 375.731 193.003C376.261 193.435 376.721 193.86 377.352 194.121C377.705 194.353 378.121 194.396 378.529 194.508C379.16 194.769 379.796 195.128 380.495 195.13C380.877 195.085 381.111 195.262 381.486 195.287C382.263 195.493 383.109 195.44 383.922 195.565C384.359 195.666 384.789 195.571 385.259 195.493L385.579 195.372C385.812 195.284 385.972 195.356 386.176 195.279C386.234 195.257 386.293 195.235 386.34 195.184C386.573 195.096 386.715 194.943 386.86 194.888L386.977 194.844C387.064 194.811 387.057 194.88 387.145 194.847L387.29 194.792C387.552 194.693 387.788 194.437 388.167 194.294C389.128 193.931 390.096 193.498 391.057 193.135C391.377 193.014 391.526 192.791 391.748 192.674C392.21 192.399 392.746 192.231 393.179 191.968C393.615 191.803 393.882 191.802 393.998 191.758C394.143 191.703 394.249 191.63 394.372 191.517C394.659 191.308 394.842 191.172 395.129 190.964C395.318 190.759 395.434 190.45 395.634 190.274C395.906 189.939 396.284 189.795 396.517 189.441C396.749 189.087 396.901 188.696 397.021 188.219C397.434 187.464 397.657 186.647 397.681 185.74L397.67 185.711C397.607 185.369 397.504 185.008 397.383 184.687C397.251 184.338 397.111 184.058 397.023 183.825C396.88 183.447 396.767 183.057 396.711 182.645C396.603 181.921 396.875 181.319 396.655 180.736C396.259 179.688 395.896 178.727 395.656 177.652L395.579 177.448C395.539 177.43 395.517 177.372 395.506 177.343C395.451 177.197 395.53 176.968 395.476 176.822C395.465 176.793 395.442 176.735 395.402 176.717C395.061 175.814 394.498 175.028 393.881 174.362C392.771 173.451 391.435 172.824 390.021 172.692C389.391 172.698 388.845 172.838 388.218 172.676ZM386.271 175.274C386.741 175.197 387.15 175.309 387.576 175.381C388.921 175.505 390.134 175.546 391.139 176.53C391.602 176.788 391.942 177.159 392.118 177.625L392.657 179.052C392.965 179.866 393.21 180.339 393.266 180.485C393.387 180.806 393.439 181.119 393.443 181.483C393.543 182.011 393.574 182.533 393.586 183.094C393.598 183.389 393.638 183.673 393.737 183.936C393.903 184.638 393.763 185.323 393.906 185.968C393.994 186.201 393.948 186.518 394.036 186.751C394.124 186.984 394.277 187.126 394.321 187.242C394.343 187.3 394.365 187.359 394.358 187.428C394.43 188.233 393.993 188.398 393.334 188.681C393.163 188.845 392.999 188.94 392.887 189.082C392.133 189.466 391.365 189.724 390.648 190.028C390.445 190.105 390.31 190.189 390.233 190.251C390.157 190.313 390.11 190.364 390.022 190.397C389.993 190.408 389.895 190.412 389.691 190.489C389.462 190.676 389.222 190.834 388.96 190.933C388.727 191.021 388.148 191.073 387.351 191.341C387.183 191.338 387.055 191.352 386.909 191.407C386.676 191.495 386.462 191.809 386.084 191.952C385.997 191.985 385.938 192.008 385.84 192.012C385.636 192.089 385.41 192.107 385.174 192.097C384.908 192.097 384.609 192.277 384.303 192.26C383.024 192.31 381.668 191.891 380.504 191.365C379.8 191.265 379.159 190.975 378.513 190.587C378.115 190.238 377.723 189.82 377.296 189.482C376.562 188.861 376.368 188.17 376.225 187.791C376.137 187.558 376.048 187.325 375.979 187.052C375.934 186.669 375.958 186.294 375.815 185.915C375.761 185.769 375.822 185.58 375.876 185.46C375.977 185.022 375.979 184.589 376.069 184.122C376.08 183.885 376.02 183.641 376.009 183.346C375.932 183.142 375.884 182.927 375.865 182.701L375.82 182.053C376.07 181.393 376.338 180.693 376.712 180.186C377.108 179.736 377.497 179.356 377.886 178.977C378.173 178.768 378.427 178.738 378.612 178.436C378.71 178.166 378.91 177.99 379.201 177.88C379.784 177.66 380.374 177.37 380.945 177.121C381.993 176.459 382.895 176.118 383.478 175.897C383.769 175.787 384.061 175.677 384.334 175.607C384.654 175.486 384.997 175.424 385.313 175.471C385.55 175.481 385.74 175.542 385.856 175.498C385.886 175.487 385.944 175.465 385.962 175.425C386.078 175.381 386.184 175.307 386.271 175.274ZM386.193 177.8C385.422 176.993 384.258 177.433 383.264 177.709L383.031 177.797C382.536 177.984 382.104 178.514 381.511 178.971C381.151 179.339 380.952 179.781 380.604 180.179C380.407 180.452 380.251 180.745 380.124 181.025C379.979 181.346 379.772 181.592 379.507 181.858C378.945 182.836 378.525 183.926 378.59 185.066C378.616 185.223 378.66 185.34 378.715 185.485C378.847 185.835 379.066 186.152 379.333 186.417C379.395 186.493 379.428 186.581 379.461 186.668C379.56 186.93 379.525 187.276 379.424 187.714C379.334 188.18 379.164 188.61 379.241 189.08C379.278 189.266 379.315 189.452 379.37 189.598C379.623 190.267 380.171 190.66 380.782 190.429C381.073 190.319 381.477 190.066 381.513 189.72C381.74 189.001 382.03 188.359 382.188 187.634C382.377 187.163 382.66 186.856 382.864 186.779C382.981 186.735 383.119 186.75 383.269 186.793C384.402 187.063 385.373 187.429 386.543 187.619C386.882 187.724 387.261 187.847 387.582 187.992C387.921 188.097 388.108 188.325 388.396 188.383C388.793 188.466 389.1 188.484 389.417 188.53C389.566 188.573 389.683 188.53 389.712 188.519C389.741 188.508 389.799 188.485 389.817 188.445C390.367 188.138 390.664 187.958 390.615 187.212C390.648 187.033 390.633 186.905 390.578 186.76C390.457 186.439 390.019 186.072 389.497 185.837C389.194 185.652 388.855 185.547 388.469 185.493C387.649 185.437 387.091 185.282 386.948 184.903C386.937 184.874 386.649 184.817 387.415 183.762C387.706 183.386 387.872 182.857 388.122 182.463C388.238 182.153 388.427 181.948 388.394 181.595C388.44 181.278 388.388 180.964 388.278 180.673C388.245 180.585 388.094 180.276 387.812 179.618C387.809 179.52 387.787 179.461 387.754 179.374C387.655 179.112 387.508 178.9 387.344 178.729C387.124 178.413 386.967 178.173 386.548 178.032C386.387 177.96 386.256 177.876 386.193 177.8ZM299.955 90.8164C298.636 91.2781 297.628 91.7057 296.899 91.7861C296.587 91.8205 296.275 91.8547 295.951 91.7851C294.586 91.8303 293.382 91.4364 292.133 91.5742L289.946 91.8144C286.927 92.1474 284.613 92.1925 283.259 92.3418C281.801 92.5025 280.354 92.7667 278.919 93.1357C273.306 95.7573 266.848 97.4182 262.864 102.39C261.683 104.101 260.016 105.234 259.263 107.003C258.822 107.789 258.926 108.727 258.485 109.514C257.153 111.768 256.375 114.278 255.702 116.776C255.447 117.331 255.389 117.76 255.446 118.28C255.492 118.697 256.001 119.484 256.139 120.733L256.185 121.15C256.091 122.215 256.102 123.268 256.205 124.205C256.619 127.954 258.94 132.757 263.936 136.001C267.821 137.786 272.24 138.669 276.463 138.73C277.851 138.894 279.367 139.253 280.721 139.103C282.387 138.92 284.133 139.466 285.937 139.583C286.909 139.792 287.904 140.209 288.771 140.43C290.171 140.697 291.549 140.756 292.902 140.606C294.152 140.469 295.784 139.973 297.554 139.777C298.595 139.662 299.648 139.652 300.701 139.642L300.909 139.618C306.437 141.96 306.563 144.054 307.473 149.435C307.332 151.031 306.961 152.443 306.798 153.831C306.74 154.259 306.682 154.687 306.728 155.103C306.739 155.208 306.865 155.404 306.877 155.508C306.923 155.924 306.865 156.353 306.61 156.908C305.253 160.852 304.069 165.41 299.647 167.373C298.849 167.777 298.293 168.471 297.772 168.528C297.668 168.54 297.46 168.562 297.345 168.47C296.165 168.284 295.031 168.514 293.874 168.536C292.891 168.223 291.884 167.701 291.376 166.914C290.833 165.815 290.429 165.016 289.99 163.905C289.482 163.118 289.575 162.054 288.963 161.278C287.553 159.01 286.271 156.937 283.9 155.512C283.08 154.759 282.351 153.892 281.067 153.717C278.997 153.102 277.527 153.158 276.798 153.238C275.965 153.33 275.143 153.526 274.345 153.931C272.736 154.635 270.884 155.05 269.865 156.322C269.483 156.68 269.217 157.131 268.974 157.79C268.394 159.224 266.6 160.16 266.714 162.15C266.84 163.296 266.504 164.071 266.295 165.042C266.225 165.366 266.167 165.794 266.213 166.211C266.293 166.94 266.917 167.82 267.587 169.116C269.054 171.906 272.269 173.343 274.211 175.658C275.078 176.827 276.003 177.569 277.274 178.588C278.766 179.688 279.47 181.297 280.742 182.316C282.43 183.29 283.887 184.078 285.333 184.762C286.779 185.445 288.04 185.412 289.683 185.969C290.573 186.398 291.175 187.069 292.354 187.255C293.025 187.602 293.765 187.626 294.494 187.546C296.056 187.374 297.654 186.565 298.695 186.45L299.319 186.381C300.847 185.896 302.71 185.586 303.972 184.603C305.037 183.748 305.57 182.846 306.624 181.887C308.835 179.956 310.85 178.153 312.252 175.574C313.214 173.782 314.199 171.249 315.369 169.434C315.868 167.27 316.831 165.477 317.33 163.314C318.502 158.653 319.755 154.721 319.376 151.284C319.296 150.555 319.226 149.93 319.042 149.213C318.95 148.38 319.159 147.408 319.38 146.541C319.162 144.562 319.117 143.197 319.036 142.468C318.956 141.739 318.876 141.01 318.691 140.293C316.706 134.715 312.695 129.886 306.32 129.43C302.804 129.08 299.519 127.966 295.874 128.368L295.146 128.448C292.23 128.77 289.418 128.132 286.041 127.134C283.543 126.461 280.789 126.343 278.904 124.548C277.587 123.112 275.355 121.988 274.812 119.939C274.651 119.43 274.478 118.816 274.421 118.296C274.18 116.109 274.611 112.373 278.152 111.034C279.668 110.445 280.803 109.266 282.053 109.128C282.157 109.116 282.365 109.094 282.585 109.175C283.429 109.187 284.297 109.407 285.13 109.315C287.571 109.468 289.769 110.28 292.29 111.161C293.678 111.324 295.055 111.384 296.015 112.437C298.744 114.244 302.203 114.074 304.494 113.821C305.015 113.764 306.357 113.51 308.428 113.177C311.935 111.525 315.328 107.883 314.984 103.811L314.858 102.665C315.079 101.798 315.23 101.253 315.184 100.837C315.161 100.629 315.138 100.42 315.011 100.224C312.864 94.1364 313.048 94.8539 307.37 92.1074C306.815 91.8524 306.167 91.7131 305.646 91.7705C303.668 91.9886 301.979 91.0148 299.955 90.8164ZM384.09 180.159C384.949 179.968 385.231 180.626 385.363 180.976C385.418 181.121 385.456 181.307 385.464 181.504C385.287 182.003 385.138 182.492 384.848 182.868C384.397 183.172 383.938 183.545 383.53 183.699C383.094 183.864 382.737 183.799 382.517 183.217L382.406 182.926C382.076 182.052 382.858 181.391 383.378 180.828C383.585 180.583 383.803 180.368 384.09 180.159ZM268.592 147.421C268.749 147.312 268.896 147.214 269.053 147.105H269.044C268.847 147.047 268.641 146.998 268.443 146.95C268.493 147.107 268.542 147.264 268.592 147.421ZM426.272 92.0595C428.647 89.8371 434.006 87.0714 439.776 88.6904C444.775 90.0983 446.948 95.518 447.319 98.0322C447.73 100.798 446.988 105.675 444.013 108.48C440.957 111.356 436.27 112.232 430.86 110.462C420.893 107.214 420.583 97.3893 426.272 92.0595ZM154.73 24.039C140.912 23.6344 134.618 27.5453 131.254 28.7343C111.64 35.695 94.8921 55.8811 104.853 76.8711C106.309 79.9443 118.004 98.6455 119.841 99.9238C123.514 102.477 145.217 108.469 149.896 108.675C166.543 109.415 185.157 85.4296 185.758 76.2265C186.429 65.9293 188.057 51.9597 182.332 42.3642C179.417 37.4601 163.604 24.8369 154.73 24.039ZM443.139 95.0341C442.831 95.0342 442.593 95.1239 442.582 95.1279C442.511 95.1523 442.455 95.1776 442.423 95.1924C442.355 95.2234 442.297 95.2545 442.256 95.2783C442.213 95.3032 442.169 95.3304 442.127 95.3584L442.001 95.4463C441.582 95.7555 441.372 96.1718 441.286 96.5283C441.21 96.8425 441.227 97.1138 441.239 97.2451C441.252 97.378 441.277 97.5127 441.282 97.542C441.287 97.5728 441.289 97.5814 441.288 97.5752L441.304 97.7353C441.311 97.7875 441.32 97.8374 441.329 97.8847C441.326 98.0226 441.341 98.1641 441.378 98.3076C441.403 98.4072 441.428 98.5175 441.453 98.6172C441.453 98.6206 441.454 98.6254 441.454 98.6289C441.516 98.664 441.504 99.1458 441.504 99.1972C441.516 99.5767 441.503 99.9565 441.453 100.336C441.453 100.436 441.403 100.556 441.391 100.645C441.34 100.835 441.289 101.015 441.227 101.205C441.164 101.395 441.101 101.575 441.025 101.755C440.998 101.827 440.963 101.898 440.928 101.97C440.821 102.103 440.712 102.226 440.592 102.34C440.113 102.795 439.73 103.161 439.395 103.468C438.838 103.731 438.357 103.999 438.12 104.118C437.992 104.182 437.944 104.188 437.587 104.341C437.558 104.353 437.494 104.376 437.382 104.407C437.329 104.422 437.275 104.435 437.214 104.45C437.16 104.464 437.082 104.484 437.015 104.502C436.78 104.566 436.584 104.653 436.479 104.7C436.406 104.733 436.395 104.738 436.356 104.755L436.354 104.757C436.314 104.77 436.274 104.786 436.234 104.804C435.521 105.004 434.997 105.66 434.997 106.439C434.997 107.131 435.409 107.724 435.999 107.989C436.239 108.176 436.49 108.278 436.725 108.329C436.976 108.449 437.215 108.501 437.401 108.524C437.658 108.556 437.886 108.541 438.04 108.524C438.197 108.507 438.341 108.481 438.427 108.465C438.478 108.455 438.505 108.45 438.536 108.444C438.555 108.441 438.565 108.44 438.568 108.439C438.998 108.382 439.378 108.232 439.673 108.102L439.69 108.137C439.917 108.021 440.137 107.898 440.352 107.772C441.103 107.503 441.855 107.088 442.528 106.432C443.225 105.753 444.254 104.817 444.857 103.512C445.175 102.823 445.589 101.69 445.794 100.497C445.969 99.477 446.071 97.9699 445.353 96.7324L445.198 96.4892L445.102 96.3603C444.948 96.1694 444.775 96.0216 444.62 95.9101C444.331 95.3879 443.776 95.0343 443.139 95.0341ZM123.284 41.4902C142.761 26.0232 169.785 32.2357 177.706 52.6611C183.682 71.6144 174.127 96.3501 153.073 97.9179C119.697 100.39 96.0741 63.0993 123.284 41.4902ZM389.13 46.3291C395.701 44.6801 407.541 44.7511 414.804 49.9599C422.066 55.1689 425.173 64.581 421.907 76.0849C415.877 97.2933 392.334 100.803 378.54 90.8174C372.77 86.654 365.177 76.5878 368.052 64.4004C370.536 53.8315 383.169 47.8274 389.13 46.3291ZM414.249 63.9131C412.379 63.8981 410.85 65.4086 410.835 67.2861C410.832 67.6846 410.777 68.5006 410.66 69.3457C410.603 69.7586 410.538 70.1338 410.47 70.4345C410.393 70.7714 410.345 70.8708 410.369 70.8193C410.021 71.5692 409.719 72.1324 409.433 72.6455C409.164 73.1274 408.82 73.7189 408.516 74.3261C407.714 75.9288 407.582 76.4046 407.053 77.3242C406.721 77.9005 406.221 78.6396 405.681 79.4297C404.523 80.5607 403.217 81.5337 401.793 82.3017C401.681 82.3162 401.552 82.3335 401.397 82.3535C400.862 82.3701 400.334 82.3967 399.76 82.4336C399.725 82.4347 399.693 82.4351 399.665 82.4355C398.119 81.9353 396.394 82.612 395.622 84.1074C394.762 85.7746 395.412 87.8266 397.072 88.6904C397.139 88.7252 397.208 88.7558 397.274 88.7861C397.457 88.928 397.684 89.0803 397.962 89.2148C397.992 89.231 398.528 89.5445 399.069 89.6347C399.207 89.6577 399.553 89.7242 399.867 89.7568C400.196 89.7909 400.669 89.812 401.168 89.6904C401.188 89.6854 401.209 89.6778 401.23 89.6718C401.483 89.6498 401.743 89.594 402.004 89.4951L403.1 89.08V89.0312C403.151 89.0086 403.201 88.9829 403.252 88.9599C404.17 88.8047 405.381 88.4961 406.793 87.7002C407.903 87.0746 409.331 86.1487 410.358 84.6123C410.651 84.174 411.076 83.5591 411.516 82.9101C414.574 79.5198 416.716 75.2997 417.481 70.6972L417.483 70.6865C417.547 70.2908 417.545 69.8605 417.473 69.4326C417.556 68.6485 417.604 67.8964 417.608 67.3408C417.623 65.4635 416.119 63.9285 414.249 63.9131ZM259.677 46.4726C252.565 27.3838 229.03 26.133 214.356 37.5771C196.823 51.2551 201.798 72.9901 219.895 83.6787C249.943 101.442 270.94 76.7379 259.677 46.4726ZM220.751 73.9775C207.942 56.8811 207.733 43.8973 241.706 45.8867C258.065 46.8451 262.843 62.2633 253.386 73.9765C245.471 83.7762 229.445 81.878 220.751 73.9775ZM151.139 49.0107C145.195 42.7959 134.179 40.0086 127.853 47.3056C126.926 48.3722 124.381 49.6862 121.583 56.8457C119.978 62.8982 122.585 67.8503 123.292 69.6474C125.803 76.0439 134.953 77.8742 141.673 77.6806C146.405 76.9932 151.305 74.4489 154.001 70.6718C155.38 68.7456 157.708 64.2396 156.353 57.1787C153.528 50.8034 152.156 50.0773 151.139 49.0107ZM249.277 55.8086C247.052 53.4822 243.121 52.3957 240.753 55.1269C240.406 55.5262 239.453 56.0185 238.405 58.6982C237.804 60.9638 238.781 62.8184 239.046 63.4912C239.986 65.8854 243.411 66.5705 245.927 66.498C247.698 66.2407 249.533 65.2878 250.542 63.874C251.058 63.1516 251.636 59.6677 251.423 58.8232C251.323 58.4269 249.658 56.2083 249.277 55.8086Z" fill="black"/>
</svg>
