<svg width="479" height="313" viewBox="0 0 479 313" fill="none" xmlns="http://www.w3.org/2000/svg">
<path d="M200.836 160C205.426 158.889 208.706 161.811 211.036 165.534C212.639 167.433 213.465 169.663 213.987 171.823C214.22 172.195 214.286 172.465 214.384 172.87C214.613 173.815 214.367 175.161 214.354 176.879C214.295 180.18 214.674 183.519 215.426 186.624L215.654 187.568C216.448 189.878 218.169 192.133 220.277 193.647C221.864 192.878 223.431 192.016 224.933 191.049C227.273 188.91 229.945 187.549 232.919 186.258C233.901 185.591 235.019 184.892 236.099 184.631C236.336 184.431 236.606 184.365 236.876 184.3C237.281 184.202 237.584 184.271 238.562 184.178C239.94 184.558 241.327 183.794 243.04 184.38C243.798 184.499 244.52 184.689 245.205 184.936C245.504 184.809 245.802 184.703 246.099 184.631C246.336 184.431 246.606 184.365 246.876 184.3C247.281 184.202 247.584 184.271 248.562 184.178C249.94 184.558 251.327 183.794 253.04 184.38C259.131 185.335 262.896 190.855 263.778 194.5C264.04 195.58 264.829 198.248 262.88 202.007C261.406 205.364 258.595 207.331 256.3 207.887C255.625 208.05 255.084 208.18 254.512 208.176C250.327 209.189 247.93 209.912 247.524 210.01C245.5 210.5 243.544 210.688 241.626 210.437C239.904 210.997 238.316 211.524 236.561 211.949C235.616 212.178 235.043 212.174 234.503 212.305C232.613 212.762 230.756 213.354 229.099 214.184C223.644 218.219 223.594 220.375 222.871 226.838C223.022 229.231 222.805 231.285 222.89 233.408C222.983 234.386 223.18 235.196 223.408 236.141L223.899 238.166C224.16 239.246 224.286 240.359 224.277 241.504C224.543 242.011 224.674 242.551 224.772 242.956C224.935 243.631 225.029 244.609 224.778 246.527C224.667 247.84 224.659 248.986 224.953 250.201C225.051 250.606 225.512 251.924 226.301 254.591C227.131 256.248 228.337 257.099 228.827 259.124C229.187 260.609 230.426 261.596 230.688 262.676C230.753 262.946 230.818 263.216 230.748 263.519C230.711 263.956 230.777 264.227 230.875 264.632C230.973 265.037 231.104 265.577 231.77 266.559C231.937 266.661 232.004 266.93 232.036 267.065C232.265 268.01 231.721 268.714 231.949 269.659C231.982 269.794 232.047 270.065 232.215 270.167C233.38 272.028 234.648 273.722 235.612 275.347C236.078 276.091 236.409 276.869 236.638 277.813C236.866 278.758 236.919 280.747 237 283.442C237.765 284.829 238.533 285.645 238.794 286.725L238.925 287.265C239.68 289.796 240.142 291.113 240.175 291.249C240.436 292.329 240.428 293.474 240.284 294.652C240.463 297.753 240.499 302.033 237.385 303.93C236.538 304.563 235.858 305.299 235.281 305.867L233.374 308.616C232.862 309.454 231.982 309.953 231.037 310.182L230.633 310.279C229.218 310.336 227.834 310.528 226.484 310.854C226.08 310.952 225.708 311.186 225.572 311.219C224.087 311.578 222.672 311.634 221.158 311.286C219.674 311.645 219.031 311.944 218.896 311.977C218.221 312.14 217.648 312.136 217.01 311.861C216.393 311.688 215.77 311.503 215.147 311.31L215.018 311.339C213.731 311.586 212.482 311.591 211.158 311.286C209.674 311.645 209.031 311.944 208.896 311.977L208.647 312.03C208.076 312.135 207.568 312.101 207.01 311.861C200.821 310.123 194.018 307.565 192.187 300.789L192.104 300.463C191.777 299.113 191.687 297.562 191.732 295.979C191.917 293.791 191.801 291.533 192.223 289.144C192.857 284.57 194.498 280.002 195.757 275.543L196.004 274.652C196.702 272.961 198.186 271.749 198.506 269.931L198.533 269.753C198.955 267.364 199.141 265.176 198.925 262.513C198.565 261.028 198.709 259.849 198.755 258.266L198.232 256.105C198.109 255.599 197.893 255.036 197.666 254.515L197.44 254.011C196.205 248.91 196.867 243.887 196.331 239.041L196.275 238.572C196.293 236.281 195.638 233.581 195.377 232.501C194.82 230.201 193.709 226.714 191.94 224.38C185.003 226.44 180.828 227.581 179.673 227.86C176.298 228.677 172.992 229.192 169.589 229.301C167.534 229.181 165.261 229.276 163.071 229.047C161.918 229.176 160.759 229.263 159.589 229.301L158.957 229.27C155.769 229.147 152.145 229.396 149.154 228.11C145.019 226.967 142.656 223.11 140.121 219.722C139.953 219.619 139.789 218.943 139.495 217.728C139.647 215.405 139.297 212.775 140.292 210.391C140.673 209.012 141.623 208.21 142.973 207.884C142.986 207.884 143.423 207.884 144.153 207.734L144.49 207.659C145.317 207.459 146.144 207.259 146.858 206.99L147.157 206.871C149.317 206.348 151.478 205.825 153.601 205.74C154.613 205.495 155.54 204.894 156.542 204.604L156.743 204.551C158.135 204.214 159.315 204.557 160.681 204.305L160.956 204.246C161.892 204.127 162.886 203.913 163.837 203.689L164.77 203.466C165.833 203.208 167.801 202.622 170.809 201.867L172.162 201.534C173.512 201.207 174.998 200.847 176.348 200.52C177.931 200.566 179.313 200.375 180.663 200.048C181.136 199.933 182.538 199.594 184.986 198.715L186.101 198.304C189.443 197.352 192.443 192.623 191.594 189.113C191.321 188.429 191.106 187.65 190.919 186.905L190.74 186.176L190.315 184.421C190.04 183.282 189.526 182.2 188.691 181.314L188.521 181.14C187.966 180.399 187.593 179.504 187.356 178.659L187.262 178.3C187.176 177.946 187.269 177.876 187.228 177.594L187.2 177.458C187 176.631 186.697 175.829 186.199 175.074L185.975 174.753C185.013 173.36 184.385 171.996 184.09 171.044L183.983 170.662C183.853 170.122 183.722 169.581 183.727 169.009L183.744 166.718C183.723 166.187 183.835 165.544 183.981 164.872L184.134 164.194C184.854 162.448 186.716 161.282 188.471 160.857C189.029 160.508 189.625 160.311 190.23 160.151L190.836 160C193.348 159.392 195.466 159.993 197.252 161.27C197.654 161.095 198.065 160.956 198.471 160.857C199.215 160.391 200.026 160.196 200.836 160ZM207.959 309.128V309.129C207.96 309.128 207.962 309.128 207.964 309.127L207.965 309.126C207.962 309.127 207.96 309.127 207.959 309.128ZM197.675 221.932L197.27 222.03C196.325 222.259 195.78 222.961 194.868 223.325C195.072 223.632 195.258 223.935 195.426 224.227C196.897 226.782 197.808 229.792 198.293 231.796C198.535 232.794 199.251 235.71 199.272 238.371C199.593 241.018 199.569 243.735 199.617 246.128C199.667 248.572 199.789 250.831 200.295 253.048C200.586 253.694 200.943 254.555 201.148 255.4L201.671 257.56L201.765 257.951L201.753 258.352C201.706 259.985 201.627 260.654 201.767 261.453L201.841 261.807L201.896 262.035L201.915 262.269C202.156 265.241 201.944 267.692 201.487 270.274C201.245 271.887 200.486 273.113 199.941 273.931C199.342 274.829 199.045 275.212 198.836 275.661C197.461 280.693 195.827 284.986 195.193 289.557L195.187 289.611L195.177 289.667C195.001 290.662 194.931 291.665 194.886 292.76C194.845 293.754 194.821 294.959 194.731 296.102C194.691 297.529 194.782 298.774 195.02 299.758C195.644 302.338 197.205 304.163 199.457 305.608C201.495 306.916 203.995 307.845 206.666 308.64L207.82 308.974L208.012 309.027L208.114 309.07C208.223 309.03 208.371 308.976 208.554 308.914C208.67 308.875 208.797 308.832 208.938 308.788C205.696 306.993 203.064 304.433 202.104 300.463C201.777 299.113 201.687 297.562 201.732 295.979C201.917 293.791 201.801 291.533 202.223 289.144C202.9 284.265 204.722 279.393 206.004 274.652C206.725 272.906 208.283 271.671 208.533 269.753C208.956 267.364 209.141 265.175 208.925 262.512C208.566 261.027 208.709 259.849 208.755 258.266L208.232 256.105C208.068 255.43 207.738 254.653 207.44 254.011C206.165 248.746 206.912 243.563 206.275 238.572C206.293 236.281 205.638 233.581 205.377 232.501C204.462 228.721 202.056 221.729 197.675 221.932ZM381.49 148.29C382.705 147.996 384.019 148.108 385.295 148.656C387.046 148.804 388.629 148.849 389.663 150.171C393.241 153.735 395.13 157.995 397.288 162.188C401.324 167.643 404.986 173.331 408.072 179.587C410.096 183.813 413.134 187.508 415.767 191.301C416.261 192.753 416.555 193.969 417.491 194.886C418.06 195.463 418.694 196.309 419.327 197.156L419.49 197.831C419.719 198.776 419.58 199.382 419.711 199.922C419.809 200.327 420.009 200.565 420.377 200.904C421.845 202.836 422.433 205.265 424.068 207.299C425.103 208.62 425.798 210.311 426.628 211.968C428.699 218.755 430.603 225.44 433.484 232.031C435.344 235.582 437.539 239.338 439.906 242.624C440.703 244.146 441.943 245.133 442.204 246.213C442.27 246.483 442.335 246.753 442.266 247.056L442.462 247.865C443.736 253.13 441.926 256.284 437.066 257.46C436.391 257.623 435.851 257.755 435.144 257.783C433.491 258.04 432.554 257.123 431.344 256.845C430.789 256.671 430.252 256.565 429.807 256.407C429.038 256.852 428.125 257.204 427.066 257.46L426.58 257.576C426.111 257.683 425.674 257.762 425.144 257.783C423.594 258.024 422.674 257.234 421.567 256.904L421.344 256.845C420.667 256.633 420.016 256.525 419.526 256.296L419.327 256.189C416.471 254.112 413.265 252.253 412.532 249.93L412.47 249.703C412.372 249.298 412.306 249.027 412.343 248.59C412.236 245.936 411.953 244.209 411.776 243.341L411.646 242.757C411.319 241.407 410.722 240.122 409.99 238.87C409.379 237.893 408.896 236.993 408.609 236.06L408.498 235.658C408.136 234.163 407.743 232.539 407.015 231.096C406.446 231.903 405.878 232.69 405.073 233.333C403.817 234.637 402.742 234.326 400.811 235.794C398.474 237.36 397.312 239.642 396.382 242.297C395.698 243.606 394.708 245.418 394.294 246.661C393.978 248.309 394.301 250.232 394.726 251.987C395.329 256.843 395.163 260.884 390.495 263.443C388.731 265.013 387.144 265.541 386.334 265.737C383.85 266.338 378.051 266.534 375.581 265.888C374.158 266.134 372.137 266.282 370.206 266.287C369.84 266.937 369.452 267.578 369.03 268.21C368.486 268.913 367.676 269.109 366.861 269.878C366.489 270.111 365.981 270.377 365.576 270.475C365.441 270.507 365.201 270.707 362.107 270.313C361.535 270.309 360.962 270.305 360.422 270.435C358.127 270.991 356.004 271.076 353.886 270.589C353.718 270.486 353.415 270.417 353.01 270.515C352.74 270.58 352.47 270.646 352.098 270.879C351.212 271.093 350.215 270.854 349.235 270.682C347.868 270.919 346.554 270.973 345.255 270.823C344.746 270.892 344.233 270.97 343.707 271.052C340.337 271.296 337.134 271.642 333.931 271.988C330.151 272.903 328.158 273.529 327.482 273.692C326.133 274.019 324.615 274.243 323.065 274.332C320.5 274.953 318.283 274.061 315.587 274.142L315.182 274.239C313.967 274.533 313.581 276.484 312.898 277.793C311.624 281.388 312.6 286.012 310.083 289.193C308.957 291.038 306.862 291.83 305.782 292.092C303.892 292.549 300.629 292.053 299.631 290.294C299.576 290.195 299.518 290.1 299.464 290.008C298.301 291.278 296.687 291.873 295.782 292.092C293.951 292.535 290.831 292.083 289.731 290.455L289.631 290.294C288.866 288.907 288.13 288.227 287.365 286.84C286.438 284.778 286.242 283.968 285.347 282.041C285.036 280.241 284.9 279.164 284.806 278.651L284.768 278.466C284.621 277.858 284.397 277.269 284.155 276.685L283.909 276.101L282.178 268.945C281.206 267.144 280.687 265.554 280.392 264.474L280.163 263.573C279.934 262.628 279.673 261.548 279.579 260.57L279.35 259.626C278.958 258.006 279.106 256.255 278.551 253.96C277.929 252.717 277.608 251.723 277.417 251.019L277.264 250.413C277.1 249.738 276.969 249.198 276.94 248.49C275.424 246.227 273.208 244.4 272.079 241.8L271.974 241.546L271.744 240.601C271.058 237.766 272.598 234.677 272.791 231.344C272.326 229.42 271.949 228.199 271.749 227.537L271.61 227.057C271.349 225.977 271.223 224.864 271.232 223.719C270.741 221.694 268.906 219.423 268.346 217.7C268.047 217.058 267.553 215.605 266.997 213.31C267.025 212.981 266.977 212.671 266.91 212.366L266.839 212.062C266.447 210.442 265.244 209.018 264.819 207.263L264.623 206.453C264.505 204.195 263.811 202.505 264.806 200.121C264.781 199.502 264.859 198.857 265.041 198.187L265.126 197.899C265.54 196.656 266.591 195.686 266.637 194.103C266.555 193.766 266.44 193.437 266.341 193.175L266.143 192.651C266.045 192.247 266.114 191.944 266.184 191.642C266.338 190.729 266.696 190.204 267.169 189.707L267.379 189.494C268.951 188.239 270.052 187.752 270.574 187.585L270.763 187.531C271.438 187.368 272.145 187.34 272.918 187.582C274.843 187.943 276.712 188.315 278.579 188.614C279.705 187.869 280.456 187.605 280.763 187.531C281.438 187.368 282.145 187.34 282.918 187.582C285.912 188.144 288.772 188.738 291.7 189.029C293.349 189.345 294.597 189.186 296.213 189.366C296.387 189.396 296.751 189.429 297.239 189.467C300.199 188.856 304.946 187.802 311.355 186.276L314.71 185.471C316.968 185.353 319.026 184.997 321.41 185.992C321.486 186.072 321.573 186.139 321.664 186.201C322.642 185.968 323.657 185.725 324.71 185.471C326.968 185.353 329.026 184.997 331.41 185.992C332.179 186.806 333.832 186.55 334.769 187.467C336.776 189.267 336.964 191.223 337.192 192.168C338.238 196.488 337.136 199.613 332.477 201.026C332.374 201.194 332.104 201.259 331.969 201.292C331.564 201.39 330.991 201.385 330.354 201.111C328.067 200.521 325.943 200.606 323.28 200.822C323.231 200.816 323.182 200.811 323.133 200.805C322.922 200.882 322.704 200.957 322.477 201.026C322.374 201.194 322.104 201.259 321.969 201.292L321.81 201.323C321.42 201.384 320.912 201.351 320.354 201.111C318.067 200.521 315.943 200.606 313.28 200.822C313.179 200.809 313.078 200.798 312.976 200.786C310.487 201.125 308.053 200.996 305.793 201.196C303.735 201.551 302.017 201.538 301.477 201.669C300.532 201.898 299.819 202.499 299.308 203.337C297.988 208.515 300.899 215.815 301.027 221.071L301.19 221.746C301.304 222.214 301.484 222.665 301.682 223.112C302.332 223.049 303.076 222.961 303.884 222.818C304.366 222.595 304.942 222.429 305.484 222.291L306.012 222.161C306.822 221.965 307.631 221.769 308.339 221.74C309.922 221.786 311.366 222.437 313.015 222.753C313.158 222.795 313.296 222.842 313.43 222.891C313.578 222.867 313.73 222.845 313.884 222.818C314.526 222.52 315.337 222.324 316.012 222.161C316.822 221.965 317.631 221.769 318.339 221.74C319.922 221.786 321.366 222.437 323.015 222.753C325.939 223.617 326.765 225.847 327.124 227.332C327.255 227.872 327.25 228.445 327.278 229.152C327.224 231.881 325.89 234.633 323.73 235.156C323.46 235.222 323.19 235.287 322.752 235.25C320.834 235 318.575 235.117 316.215 235.402C314.297 235.152 312.071 235.405 309.948 235.49C309.646 235.421 309.375 235.485 309.106 235.551C308.566 235.681 308.091 236.082 307.551 236.213C307.146 236.311 306.875 236.377 306.438 236.34C306 236.303 305.562 236.265 305.157 236.363C304.752 236.461 304.515 236.662 304.143 236.895C301.839 238.596 299.764 241.242 299.57 244.576C299.458 248.12 299.947 252.444 302.619 255.07C303.865 255.025 305.07 255.449 306.32 255.349L306.605 255.316C307.55 255.088 308.491 255.297 309.501 255.449L309.939 255.51C310.05 255.505 310.16 255.495 310.27 255.484C310.609 255.363 310.916 255.264 311.148 255.208C311.552 255.11 311.822 255.045 312.125 255.114C312.148 255.111 312.171 255.108 312.193 255.105L314.156 254.632C314.747 254.489 315.337 254.346 315.949 254.294L316.214 254.277C318.308 254.146 320.273 253.935 322.27 253.513L323.127 253.318C324.899 252.889 326.75 252.332 328.476 251.6L329.207 251.275C333.392 250.262 337.279 248.607 341.105 246.109C341.952 245.476 342.631 244.739 343.711 244.477C344.656 244.249 345.663 244.863 346.436 245.104C346.663 245.157 346.871 245.133 347.075 245.091L347.278 245.044C347.683 244.946 347.921 244.746 348.056 244.713C348.326 244.648 348.596 244.582 348.899 244.651C349.813 244.806 350.825 245.109 351.855 245.514C352.407 245.069 352.963 244.659 353.711 244.477C354.297 244.336 354.906 244.518 355.469 244.734C354.836 238.817 354.045 233.005 355.13 227.137C355.004 226.024 354.575 224.842 354.751 223.799C354.797 222.216 355.275 221.242 355.419 220.064C355.817 216.395 355.07 212.717 355.939 209.22C356.345 204.405 356.347 199.689 357.359 195.014C357.785 190.48 359.063 186.143 358.717 181.432L358.678 180.975C359.542 178.05 359.052 176.025 358.804 173.227C358.831 172.898 358.783 172.588 358.716 172.283L358.645 171.979C358.424 171.068 356.99 167.798 356.286 166.22L355.899 165.355C355.735 164.68 355.674 163.838 355.883 162.93C355.994 161.617 355.536 159.726 355.717 158.11C355.936 156.432 356.901 155.12 357.958 153.853L358.414 153.313C359.67 152.009 361.063 150.672 362.72 149.842L362.957 149.642C363.236 149.467 363.609 149.35 363.949 149.261L364.274 149.18C365.667 148.843 367.288 149.455 368.82 149.21L369.126 149.148C369.48 149.063 369.731 149.002 369.947 148.854L370.038 148.785C370.419 148.586 370.818 148.463 371.164 148.372L371.49 148.291C372.705 147.997 374.019 148.108 375.295 148.656C376.483 148.757 377.594 148.811 378.509 149.248C378.716 149.23 378.922 149.198 379.126 149.148C379.531 149.05 379.801 148.985 380.038 148.785C380.545 148.519 381.085 148.388 381.49 148.29ZM271.781 190.404C271.709 190.404 271.61 190.413 271.469 190.447C271.583 190.42 270.841 190.594 269.391 191.727C269.235 191.886 269.2 191.938 269.191 191.952C269.189 191.955 269.186 191.96 269.181 191.976C269.175 191.992 269.161 192.034 269.147 192.115C269.263 192.423 269.429 192.885 269.553 193.398L269.647 193.789L269.636 194.19C269.593 195.669 269.066 196.797 268.661 197.55C268.177 198.45 268.077 198.548 267.982 198.825C267.835 199.302 267.791 199.689 267.804 200.001L267.83 200.663L267.574 201.276C267.297 201.94 267.249 202.475 267.291 203.143C267.316 203.526 267.367 203.917 267.438 204.463C267.494 204.9 267.557 205.422 267.598 205.992L267.735 206.558C267.85 207.031 268.083 207.517 268.506 208.334C268.868 209.034 269.457 210.128 269.754 211.356C269.819 211.624 269.975 212.22 269.999 212.948C270.502 214.97 270.904 216.086 271.066 216.435L271.143 216.601L271.199 216.772C271.358 217.262 271.738 217.91 272.422 219.11C272.986 220.101 273.788 221.527 274.148 223.013L274.234 223.372L274.232 223.741C274.225 224.649 274.325 225.516 274.526 226.351C274.527 226.352 274.544 226.417 274.62 226.667C274.685 226.882 274.777 227.18 274.884 227.547C275.1 228.286 275.384 229.303 275.707 230.639L275.813 231.072L275.786 231.518C275.672 233.479 275.15 235.456 274.874 236.774C274.559 238.281 274.488 239.183 274.66 239.895L274.829 240.596C275.202 241.458 275.784 242.279 276.593 243.258C277.362 244.189 278.539 245.486 279.433 246.819L279.904 247.523L279.939 248.37C279.954 248.745 280.012 249.019 280.179 249.707C280.303 250.222 280.496 251.022 280.998 252.125L281.233 252.616L281.386 252.922L281.467 253.254C281.8 254.631 281.916 255.829 282 256.783C282.09 257.803 282.135 258.38 282.266 258.92L282.494 259.865L282.545 260.072L282.565 260.284C282.635 261.01 282.838 261.876 283.078 262.868C283.29 263.742 283.708 265.465 284.817 267.52L285.002 267.862L285.093 268.24L286.768 275.16C287.069 275.869 287.445 276.779 287.683 277.76C287.772 278.129 287.853 278.697 287.927 279.186C288.003 279.692 288.103 280.341 288.241 281.161C288.626 282.012 288.886 282.662 289.134 283.288C289.398 283.957 289.647 284.589 290.046 285.483C290.311 285.951 290.573 286.319 290.926 286.805C291.286 287.3 291.737 287.921 292.199 288.743C292.216 288.757 292.246 288.781 292.296 288.811C292.454 288.907 292.716 289.02 293.082 289.109C293.859 289.299 294.658 289.277 295.077 289.176C295.402 289.097 295.916 288.927 296.416 288.638C296.916 288.349 297.292 288.009 297.523 287.631L297.617 287.475L297.687 287.386C297.58 287.215 297.474 287.034 297.366 286.84C296.439 284.778 296.242 283.968 295.347 282.041C294.992 279.984 294.866 278.871 294.768 278.466C294.572 277.656 294.24 276.878 293.909 276.101L292.178 268.945C290.882 266.544 290.392 264.518 290.163 263.573C289.934 262.628 289.673 261.548 289.579 260.57L289.351 259.626C289.018 258.25 289.072 256.78 288.757 254.963C288.197 254.028 287.775 253.041 287.462 252.056C287.049 250.756 286.808 249.414 286.68 248.115C285.128 245.949 283.006 244.135 281.974 241.546L281.744 240.601C281.058 237.766 282.598 234.677 282.791 231.344C282.17 228.779 281.708 227.462 281.61 227.057C281.349 225.977 281.223 224.864 281.232 223.719C280.741 221.694 278.906 219.423 278.346 217.7C278.047 217.058 277.553 215.605 276.997 213.31C277.034 212.872 276.937 212.467 276.839 212.062C276.447 210.442 275.244 209.018 274.819 207.263L274.623 206.453C274.505 204.195 273.811 202.505 274.806 200.121C274.777 199.413 274.884 198.672 275.126 197.899C275.54 196.656 276.591 195.686 276.637 194.103C276.473 193.429 276.175 192.786 276.143 192.651C276.045 192.246 276.114 191.943 276.184 191.641C276.206 191.506 276.233 191.38 276.265 191.262C274.945 191.024 273.643 190.77 272.365 190.53L272.191 190.498L272.024 190.445C271.925 190.415 271.849 190.405 271.781 190.404ZM371.697 263.254C371.877 263.246 372.054 263.239 372.229 263.229C372.122 263.065 372.018 262.897 371.916 262.727C371.845 262.904 371.771 263.079 371.697 263.254ZM415.817 229.304C414.313 227.81 411.924 227.388 410.844 227.649C410.439 227.747 409.932 228.013 409.56 228.246C409.384 228.374 409.22 228.507 409.064 228.644C410.456 230.819 411.013 233.296 411.414 234.952C411.542 235.482 411.808 236.074 412.306 236.906L412.533 237.278L412.558 237.316L412.58 237.355C413.398 238.754 414.142 240.319 414.562 242.051C414.697 242.608 415.19 244.697 415.341 248.47L415.348 248.656L415.336 248.789C415.34 248.809 415.346 248.834 415.354 248.867C415.362 248.904 415.372 248.945 415.385 248.997C415.434 249.201 415.727 249.753 416.922 250.739C418.054 251.673 419.29 252.467 420.855 253.595C420.895 253.608 420.951 253.627 421.033 253.649C421.181 253.69 421.31 253.722 421.534 253.781C421.719 253.83 421.941 253.89 422.178 253.963C422.668 254.089 423.087 254.255 423.393 254.386C423.822 254.569 423.918 254.621 424.172 254.721C424.475 254.839 424.562 254.837 424.683 254.818L424.852 254.792L425.024 254.785C425.398 254.77 425.672 254.711 426.36 254.545C426.523 254.506 426.677 254.463 426.824 254.42C424.73 252.929 422.893 251.451 422.47 249.703C422.372 249.298 422.306 249.027 422.343 248.59C422.201 245.052 421.744 243.162 421.646 242.757C421.319 241.407 420.722 240.122 419.99 238.87C419.291 237.753 418.761 236.738 418.499 235.658C417.976 233.498 417.388 231.067 415.817 229.304ZM344.074 247.588C343.948 247.679 343.811 247.788 343.609 247.952C343.426 248.101 343.173 248.309 342.902 248.511L342.825 248.568L342.745 248.621C339.478 250.754 336.153 252.321 332.658 253.424C332.814 253.389 332.971 253.356 333.127 253.318C335.152 252.828 337.28 252.17 339.207 251.275C342.251 250.539 345.136 249.459 347.955 247.966C347.709 248.028 346.806 248.268 345.763 248.028L345.65 248.003L345.54 247.968C345.21 247.864 344.885 247.732 344.692 247.654C344.487 247.571 344.354 247.519 344.237 247.478C344.194 247.505 344.14 247.541 344.074 247.588ZM364.98 152.096C364.8 152.139 364.677 152.17 364.575 152.2L364.382 152.364L364.063 152.524C362.924 153.094 361.855 154.069 360.636 155.331C359.364 156.831 358.818 157.601 358.695 158.471C358.648 158.928 358.682 159.509 358.761 160.355C358.826 161.057 358.956 162.191 358.872 163.182L358.855 163.394L358.807 163.602C358.739 163.899 358.738 164.183 358.774 164.434C358.839 164.58 358.926 164.772 359.026 164.998C359.264 165.531 359.584 166.256 359.915 167.021C360.245 167.784 360.591 168.603 360.877 169.317C361.133 169.956 361.428 170.724 361.561 171.273C361.633 171.573 361.823 172.284 361.81 173.132C362.025 175.385 362.539 177.981 361.711 181.25C361.897 183.836 361.652 186.262 361.329 188.5C360.966 191.022 360.558 193.04 360.347 195.294L360.33 195.473L360.292 195.648C359.334 200.074 359.363 204.324 358.928 209.473L358.908 209.711L358.851 209.943C358.517 211.285 358.474 212.741 358.502 214.53C358.528 216.211 358.626 218.314 358.401 220.388L358.399 220.407L358.398 220.428C358.298 221.247 358.068 222.06 357.963 222.49C357.842 222.988 357.764 223.395 357.75 223.885L357.744 224.094L357.709 224.299C357.711 224.285 357.691 224.416 357.78 224.914C357.826 225.17 357.87 225.371 357.938 225.719C357.997 226.023 358.066 226.4 358.111 226.799L358.161 227.242L358.08 227.683C357.061 233.199 357.835 238.505 358.477 244.63C358.612 244.615 358.752 244.617 358.899 244.651C360.989 245.005 363.583 246.13 365.744 247.485C365.127 240.612 363.878 233.912 365.13 227.137C365.004 226.024 364.575 224.842 364.751 223.799C364.797 222.216 365.275 221.242 365.419 220.064C365.817 216.395 365.07 212.717 365.939 209.22C366.345 204.405 366.347 199.689 367.359 195.014C367.799 190.334 369.146 185.863 368.678 180.975C369.542 178.05 369.052 176.025 368.804 173.227C368.841 172.789 368.743 172.384 368.645 171.979C368.352 170.77 365.921 165.405 365.899 165.355C365.735 164.68 365.674 163.838 365.883 162.93C365.994 161.617 365.536 159.726 365.717 158.11C365.967 156.192 367.191 154.753 368.415 153.313C368.804 152.91 369.206 152.503 369.625 152.109C368.307 152.384 367.05 152.235 366.337 152.16C365.371 152.059 365.12 152.062 364.98 152.096ZM150.94 209.092C150.037 209.267 149.085 209.492 148.058 209.74C147.076 210.124 145.999 210.381 145.195 210.575C144.585 210.723 144.074 210.8 143.691 210.841C143.619 210.848 143.551 210.851 143.488 210.856C143.349 210.907 143.297 210.952 143.289 210.96C143.281 210.967 143.272 210.978 143.258 211.001C143.243 211.026 143.213 211.083 143.184 211.189L143.133 211.371L143.061 211.546C142.76 212.267 142.624 213.117 142.575 214.217C142.551 214.77 142.548 215.324 142.544 215.957C142.541 216.42 142.535 216.926 142.514 217.442C142.546 217.574 142.576 217.695 142.604 217.807C142.64 217.952 142.672 218.068 142.697 218.161C143.999 219.913 145.01 221.398 146.233 222.714C147.37 223.935 148.469 224.744 149.704 225.144L149.953 225.219L150.15 225.273L150.339 225.354C151.457 225.835 152.822 226.058 154.487 226.152C154.841 226.172 155.197 226.185 155.559 226.195C153.436 224.462 151.816 221.987 150.121 219.722C149.953 219.619 149.79 218.944 149.496 217.728C149.648 215.405 149.297 212.775 150.292 210.391C150.433 209.88 150.652 209.449 150.94 209.092ZM390.107 189.794C389.672 189.899 389.246 190.148 388.84 190.502C389.532 191.121 390.166 191.895 390.671 192.887L390.811 193.172L390.857 193.271L390.896 193.374C391.252 194.315 391.587 194.863 392.019 195.168H392.018C392.309 195.373 392.511 195.587 392.52 195.596C392.617 195.694 392.713 195.799 392.798 195.893C392.971 196.085 393.178 196.326 393.396 196.585C393.835 197.108 394.379 197.779 394.913 198.448C395.448 199.119 395.985 199.805 396.41 200.361C396.622 200.638 396.814 200.894 396.968 201.106C397.031 201.194 397.153 201.363 397.274 201.552C397.84 202.336 397.999 203.139 398.042 203.317C398.317 204.455 398.202 205.523 398.035 206.344C397.87 207.154 397.601 207.953 397.406 208.537L397.271 208.946L397.024 209.301C396.746 209.702 396.447 210.046 396.142 210.342L398.243 209.834C399.053 209.638 399.728 209.474 400.301 209.478C400.739 209.515 401.278 209.385 401.818 209.254C402.358 209.123 403.606 208.964 404.56 207.59C404.973 206.347 405.387 205.103 405.126 204.023C405.061 203.753 404.995 203.483 404.795 203.246C404.529 202.739 400.624 197.824 400.289 197.619C399.083 196.768 398.485 195.484 398.089 194.436C397.194 192.509 395.583 191.755 393.701 191.067C392.593 190.621 391.689 189.84 390.107 189.794ZM387.06 192.945C385.957 195.12 385.354 197.913 385.786 199.7L385.885 200.105C386.231 203.308 385.265 206.401 386.049 209.641C386.13 209.884 386.238 210.098 386.369 210.287L388.243 209.834C389.053 209.638 389.728 209.474 390.301 209.478C390.739 209.515 391.278 209.385 391.818 209.254C392.358 209.123 393.606 208.964 394.56 207.59C394.947 206.424 395.336 205.259 395.167 204.227L395.126 204.023C395.069 203.787 395.011 203.551 394.863 203.337L394.795 203.246C394.546 202.77 391.098 198.421 390.392 197.711L390.289 197.619C389.083 196.768 388.485 195.484 388.089 194.436C387.811 193.837 387.463 193.351 387.06 192.945ZM194.69 163.224C193.697 162.749 192.657 162.646 191.541 162.916C190.666 163.128 190.331 163.233 190.063 163.401L189.649 163.659L189.177 163.773C188.088 164.037 187.294 164.657 186.986 165.182C186.799 166.015 186.734 166.404 186.741 166.598L186.744 166.669V166.74L186.727 169.031C186.726 169.176 186.756 169.362 186.899 169.956C187.025 170.474 187.506 171.689 188.436 173.038C189.333 174.265 189.825 175.547 190.116 176.752C190.182 177.022 190.224 177.297 190.235 177.583C190.239 177.669 190.238 177.749 190.236 177.821C190.389 178.373 190.599 178.86 190.838 179.22C192.118 180.562 192.854 182.158 193.231 183.716L193.655 185.471C193.866 186.339 194.056 187.108 194.281 187.74L194.38 188.003L194.459 188.201L194.51 188.408C195.183 191.192 194.295 194.075 192.98 196.23C191.994 197.846 190.552 199.404 188.789 200.397C189.431 200.314 190.051 200.196 190.663 200.048C191.203 199.917 192.959 199.493 196.101 198.304C199.443 197.352 202.443 192.623 201.594 189.113C201.23 188.201 200.969 187.121 200.74 186.176L200.315 184.421C200.021 183.206 199.457 182.056 198.521 181.14C197.887 180.293 197.491 179.245 197.262 178.3C197.164 177.895 197.298 177.862 197.2 177.458C196.972 176.513 196.608 175.6 195.975 174.753C194.875 173.161 194.212 171.606 193.983 170.661C193.853 170.121 193.722 169.581 193.727 169.009L193.744 166.718C193.716 166.01 193.925 165.102 194.134 164.194C194.277 163.847 194.466 163.524 194.69 163.224ZM240.854 187.199C240.377 187.25 239.417 187.368 238.378 187.201C238.075 187.221 237.84 187.229 237.665 187.233L237.492 187.38L236.804 187.547C236.318 187.664 235.613 188.055 234.604 188.74L234.371 188.897L234.114 189.01C231.223 190.265 228.922 191.468 226.956 193.264L226.77 193.435L226.557 193.571C225.612 194.18 224.646 194.748 223.67 195.278C224.442 195.474 225.227 195.557 226.005 195.496C229.012 194.34 232.089 192.88 234.933 191.049C236.718 189.418 238.696 188.24 240.854 187.199ZM321.211 30.7353C323.895 30.9983 326.134 32.2892 328.757 31.9999C329.447 31.9238 330.306 32.1082 331.042 32.4462C338.571 36.088 338.327 35.1371 341.173 43.208C341.341 43.4688 341.371 43.7454 341.401 44.0214C341.462 44.5736 341.263 45.2944 340.971 46.4443L341.138 47.9628C341.593 53.3627 337.095 58.1912 332.445 60.3808C329.7 60.8233 327.92 61.1591 327.23 61.2353C325.083 61.4719 322.164 61.6529 319.359 60.8945C318.329 61.0701 317.612 61.1931 317.23 61.2353L316.643 61.2968C313.723 61.5792 309.661 61.643 306.329 59.6181L305.987 59.4003C304.715 58.0034 302.889 57.9252 301.049 57.7089C299.041 57.0069 297.187 56.3397 295.325 55.874C294.401 56.4223 293.431 57.1025 292.305 57.54C287.61 59.3154 287.038 64.2695 287.357 67.1689C287.434 67.8592 287.663 68.6725 287.877 69.3476C288.596 72.0631 291.555 73.5536 293.302 75.457C295.8 77.8367 299.451 77.9932 302.764 78.8857C305.089 79.5728 307.213 80.1296 309.258 80.4482C310.146 80.4991 311.024 80.5967 311.898 80.7197C312.877 80.7628 313.851 80.7382 314.834 80.6298L315.801 80.5224C320.633 79.9896 324.989 81.4665 329.651 81.9306C338.102 82.5361 343.42 88.9365 346.052 96.332C346.296 97.2832 346.403 98.2503 346.51 99.2167C346.616 100.183 346.677 101.993 346.966 104.616C346.673 105.766 346.396 107.055 346.518 108.159C346.762 109.11 346.853 109.939 346.96 110.905C347.462 115.461 345.802 120.676 344.247 126.856C343.585 129.724 342.31 132.101 341.649 134.969C340.097 137.376 338.79 140.734 337.515 143.11C335.656 146.529 332.985 148.92 330.053 151.479C328.656 152.751 327.949 153.947 326.537 155.081C324.864 156.383 322.394 156.796 320.369 157.438L319.54 157.529C318.159 157.682 316.042 158.754 313.971 158.982C313.005 159.089 312.023 159.057 311.134 158.597C310.187 158.447 309.523 158.059 308.883 157.652C307.535 157.981 305.736 158.788 303.971 158.982L303.608 159.016C302.761 159.075 301.912 159 301.134 158.597C299.57 158.35 298.772 157.459 297.592 156.891C295.55 156.199 293.953 156.195 292.182 155.45L291.825 155.291C289.909 154.384 287.977 153.339 285.738 152.049C284.052 150.698 283.118 148.564 281.141 147.105C279.455 145.754 278.228 144.772 277.079 143.222C274.585 140.247 270.506 138.366 268.485 134.889L268.297 134.548C267.464 132.937 266.685 131.811 266.503 130.88L266.475 130.696C266.414 130.144 266.491 129.576 266.583 129.146C266.843 127.939 267.251 126.961 267.163 125.592L267.139 125.312C266.988 122.674 269.366 121.433 270.135 119.532C270.458 118.658 270.811 118.06 271.317 117.585C272.584 116.004 274.821 115.422 276.853 114.586L277.257 114.414C278.183 113.945 279.133 113.687 280.096 113.549L280.509 113.497C281.475 113.39 283.424 113.316 286.169 114.131C286.559 114.184 286.91 114.287 287.233 114.424C287.241 114.42 287.249 114.417 287.257 114.414C288.316 113.878 289.405 113.619 290.509 113.497C291.475 113.39 293.424 113.316 296.169 114.131C297.871 114.362 298.837 115.513 299.925 116.511C303.068 118.4 304.769 121.148 306.638 124.156C307.449 125.185 307.326 126.595 308 127.639C308.582 129.112 309.117 130.171 309.837 131.629C310.019 131.911 310.251 132.166 310.516 132.398C310.547 132.38 310.577 132.359 310.609 132.341L310.804 132.236C316.666 129.633 318.235 123.59 320.034 118.361C320.372 117.625 320.45 117.058 320.389 116.506C320.375 116.385 320.245 116.171 320.202 116.026L320.19 115.969C320.13 115.416 320.206 114.849 320.283 114.281C320.5 112.441 320.992 110.57 321.178 108.453C320.084 101.982 319.845 99.0965 314.339 96.2988C313.432 96.4908 312.596 96.6678 311.86 96.749C310.066 96.9469 308.24 96.868 306.384 96.5136C305.984 96.4119 305.564 96.277 305.131 96.1347C303.916 96.386 302.806 96.6447 301.86 96.749L301.186 96.8095C299.608 96.9223 298.008 96.8237 296.384 96.5136C295.234 96.2212 293.915 95.6687 292.627 95.3915C290.234 95.2361 287.918 94.5132 285.709 94.7568L285.37 94.7861C283.664 94.8958 281.791 94.4635 280.065 94.2607C274.642 94.1819 268.973 93.0806 263.94 90.8603L263.455 90.6425C257.039 86.4763 253.951 80.369 253.266 75.4726L253.206 75.0029C253.069 73.7603 253.055 72.3642 253.179 70.9531L253.118 70.4013C252.948 68.8544 252.349 67.8416 252.221 67.2646C251.139 68.9851 249.616 70.4842 247.879 71.1279L247.603 71.1591C247.204 71.3428 246.927 71.3732 246.513 71.4189C244.856 71.6013 243.216 70.6639 240.547 70.539C240.037 70.5107 239.532 70.5354 238.999 70.581C238.638 70.8006 238.264 70.9863 237.879 71.1289L237.603 71.1591C237.204 71.3428 236.927 71.3732 236.513 71.4189L236.202 71.4404C235.615 71.4581 235.021 71.3491 234.375 71.2021C233.895 71.265 233.375 71.3299 232.815 71.3915C232.401 71.4372 231.68 71.2371 230.515 70.8066C229.886 70.691 229.262 70.6315 228.655 70.6103C228.414 70.6342 228.166 70.6619 227.908 70.6904C227.218 70.7665 225.438 71.1023 222.815 71.3915L222.646 71.3974C222.214 71.3839 221.535 71.1843 220.515 70.8076C219.337 70.5912 218.18 70.5647 217.112 70.6386C213.671 72.0984 209.841 72.2895 208.789 76.5566C208.451 77.2925 208.39 77.9981 208.466 78.6884C208.481 78.8264 208.634 78.9493 208.68 79.3632C208.756 80.0534 208.679 80.6211 208.602 81.1884C208.155 83.4736 208.03 86.1427 210.406 87.4179C210.493 87.4598 210.581 87.4973 210.668 87.5361L215.852 87.7353C216.258 87.6459 216.69 87.5636 217.125 87.5156C218.091 87.409 218.935 87.4562 219.778 87.5029C220.398 87.5271 221.066 87.5515 221.76 87.5781L228.018 86.8886C230.106 86.6583 232.14 86.8301 234.192 87.3105L238.018 86.8886C240.503 86.6146 242.911 86.9086 245.364 87.6162C246.959 88.139 247.925 89.2898 249.55 90.0888C251.236 91.44 252.571 92.1317 253.183 93.8808C253.426 96.0899 253.654 98.1614 253.192 100.309C252.777 101.612 251.764 102.562 250.766 103.65C249.047 104.539 247.681 106.087 245.932 106.699C242.556 107.77 239.135 108.427 235.407 108.838C233.934 109.419 232.86 109.817 231.357 110.123C228.119 111.179 225.724 113.539 223.299 115.623C221.288 117.661 218.033 121.094 218.291 123.441C218.306 123.579 218.337 123.856 218.506 124.117C219.134 124.746 219.747 125.237 220.315 125.314C222.691 126.59 224.884 127.466 227.261 128.741C227.762 128.982 228.279 129.146 228.804 129.244C229.09 129.179 229.375 129.104 229.663 129.057L229.869 129.028C231.98 128.796 234.906 128.958 237.613 129.398C237.823 129.386 238.029 129.371 238.228 129.349C238.78 129.288 239.317 129.089 239.869 129.028C243.459 128.632 249.41 129.373 252.63 130.695C254.194 130.942 256.127 130.729 257.768 131.666C258.948 132.235 259.608 133.14 260.65 133.724C262.275 134.522 263.609 135.214 264.467 136.656C266.413 139.097 267.515 141.491 267.805 144.114C267.942 145.357 267.726 147.198 267.294 149.621C266.878 152.182 264.636 154.665 260.83 156.901C260.155 157.115 259.342 157.345 258.651 157.421C257.961 157.497 256.397 157.251 253.774 157.54C252.643 157.504 251.597 157.292 250.579 156.977C249.96 157.167 249.258 157.355 248.651 157.422L248.352 157.436C247.554 157.444 246.069 157.287 243.774 157.54C240.829 157.445 238.452 156.171 235.661 154.941C233.622 154.336 231.482 153.51 229.296 152.974C229.177 152.984 229.063 152.998 228.958 153.01C227.992 153.116 226.795 153.667 225 153.865C222.734 153.863 220.764 153.574 219.015 153.004C218.996 153.006 218.977 153.008 218.958 153.01L218.774 153.034C217.84 153.183 216.683 153.68 215 153.865L214.302 153.855C207.417 153.665 203.342 150.7 199.777 144.984L199.423 144.403C198.432 142.547 197.819 140.772 197.57 138.965L197.525 138.603C197.51 138.465 197.572 137.76 197.496 137.069C197.313 135.413 196.993 133.771 196.672 132.13C195.051 126.3 193.169 120.637 191.548 114.807C190.905 112.781 190.83 110.833 190.494 109.054C189.959 107.424 189.45 106.016 188.933 104.549C187.092 106.953 185.184 109.278 183.833 112.148C181.927 116.411 179.976 120.26 177.779 124.415C177.056 126.731 176.058 129.077 175.933 131.746C175.564 132.206 175.885 132.59 175.517 133.05C175.209 134.062 174.995 134.645 174.549 135.672C173.489 137.466 171.049 138.154 169.989 139.947C168.53 141.925 167.746 143.688 166.456 145.927C165.227 148.717 164.38 151.187 162.982 153.717C162.812 155.971 162.35 158.119 161.597 160.158C161.441 162.551 160.535 164.468 160.088 166.753C159.549 169.467 158.872 172.197 158.194 174.927C158.102 175.356 158.148 175.77 158.193 176.185C158.239 176.599 158.423 176.998 158.469 177.412C158.514 177.826 158.575 178.378 158.482 178.808C157.682 181.691 156.208 184.788 154.656 187.195C152.507 189.249 149.316 189.461 146.86 191.269C145.388 191.851 144.251 192.954 142.778 193.536C139.725 194.991 138.62 195.112 138.067 195.173C137.101 195.279 135.844 195.279 134.433 195.155C133.107 195.199 131.839 195.084 130.593 194.489C129.134 195.054 128.461 195.13 128.067 195.174L127.692 195.208C126.785 195.277 125.667 195.264 124.433 195.155C122.623 195.215 120.92 194.983 119.233 193.632C116.351 191.574 113.762 188.366 112.369 184.606C111.833 183.548 110.928 182.948 110.347 181.476C109.951 177.886 113.438 171.492 115.373 168.764C116.664 166.054 118.765 163.896 121.06 161.798L122.053 160.9C124.699 159.119 128.065 157.915 129.461 154.788L129.59 154.479C130.819 151.689 132.002 149.741 132.817 146.996C133.188 144.021 134.018 141.413 134.818 138.53C135.496 136.359 136.026 133.959 135.939 132.303L135.913 131.981C135.867 131.567 135.821 131.153 135.638 130.754C134.36 128.668 132.515 127.012 130.242 126.003L129.782 125.81C125.213 123.659 120.521 121.66 115.736 120.092C110.031 118.69 104.413 116.886 100.18 112.63L99.7745 112.21C97.7635 109.418 95.7659 106.748 94.4141 103.669L94.1524 103.048C94.0306 101.943 93.3567 100.899 92.6827 99.8554C92.482 99.144 92.2811 98.4325 92.1729 97.7109L92.1329 97.4013C91.6914 93.3974 93.7508 87.9991 97.0674 83.8603C99.4623 81.5001 101.933 81.0876 103.037 80.9658C104.142 80.844 105.139 81.0142 106.166 81.4599C107.158 81.6734 108.095 81.9769 108.987 82.3496C110.692 81.3014 112.229 81.0549 113.037 80.9658C114.142 80.844 115.139 81.0142 116.166 81.4599C123.037 82.9382 127.297 88.6166 131.849 93.1455C134.761 95.4795 137.873 97.0934 140.433 100.025C141.245 101.054 142.548 101.469 143.621 102.329C145.368 104.232 147.454 105.4 149.477 107.272C149.967 107.917 150.596 108.547 151.653 109.269C152.384 109.647 152.964 110.161 153.526 110.687C154.566 109.917 155.601 109.086 156.641 108.315C159.52 104.723 161.617 100.724 163.186 96.5234L163.493 95.6806C164.277 93.9174 165.351 92.2614 165.844 90.3906C166.277 88.3778 165.969 86.324 166.65 84.2685L166.801 83.8574C168.03 81.0666 167.65 77.6147 167.714 74.3935L167.698 74.2558C167.808 71.4488 168.239 69.0249 168.057 67.3681C168.017 67.0057 167.965 66.5377 167.83 66.1591L167.767 66.0029C167.432 65.1838 167.203 64.3531 167.079 63.5107L167.032 63.1494C166.85 61.4926 167.097 59.9276 167.911 58.4404C168.315 57.3479 168.476 56.2823 169.316 55.2568L169.494 55.0517C171.029 53.7645 172.365 51.9401 174.359 51.0214L174.774 50.9765C175.878 50.8547 176.645 51.4689 177.811 51.8994C179.179 52.0855 180.374 52.5462 181.393 53.248C182.272 52.3893 183.205 51.5531 184.359 51.0214L184.774 50.9765C185.878 50.8547 186.645 51.4689 187.811 51.8994C190.08 52.2081 191.874 53.2674 193.177 54.9404C193.654 55.6389 194.181 56.2962 194.693 56.9706C196.931 57.0349 198.862 57.3676 200.537 57.4023C200.898 57.293 201.258 57.1882 201.611 57.0849C202.344 57.0042 203.048 56.9688 203.726 56.9619C203.916 56.9099 204.107 56.8573 204.297 56.8037L205.816 56.6367C206.127 56.6025 206.524 56.6367 206.884 56.6953L207.228 56.7607C208.47 56.6239 209.098 57.2529 210.065 57.1464C212.193 56.4925 214.279 56.1575 216.405 55.8378L218.549 55.5117C222.874 55.4539 226.786 55.4418 230.651 55.0156L231.204 54.955C232.866 54.7718 234.686 54.932 236.65 55.3232C237.999 55.2559 239.329 55.1615 240.652 55.0156L241.204 54.955C242.999 54.7571 244.978 54.9579 247.125 55.4199C250.269 56.5812 252.591 59.5289 253.293 62.5205C253.97 60.3055 254.779 58.1255 255.906 56.0888L256.23 55.5244C256.813 54.4818 256.676 53.2388 257.26 52.1962C258.259 49.8503 260.469 48.3488 262.035 46.08C267.152 39.6946 275.347 37.429 282.62 34.1337L283.321 33.8115C284.986 33.3833 286.663 33.0604 288.351 32.8437L289.074 32.7578C290.645 32.5846 293.19 32.5177 296.484 32.208L297.941 32.0595L300.841 31.7392C302.498 31.5566 304.092 32.0793 305.902 32.0195C306.332 32.1119 306.746 32.0661 307.16 32.0205C308.127 31.9139 309.462 31.3484 311.211 30.7363C313.374 30.9483 315.249 31.8241 317.268 32.0058C318.225 31.8713 319.526 31.325 321.211 30.7353ZM120.94 118.754C124.374 120.057 127.736 121.532 131.008 123.071C133.866 124.232 136.212 126.193 137.869 128.677L138.196 129.187L138.289 129.338L138.362 129.499C138.781 130.408 138.856 131.306 138.895 131.653C139.149 133.959 138.426 137.017 137.709 139.333L137.104 141.483C136.526 143.536 136.046 145.346 135.794 147.367L135.764 147.613L135.693 147.851C134.811 150.822 133.384 153.308 132.335 155.688C131.367 158.081 129.661 159.619 128.065 160.726C127.263 161.28 126.431 161.767 125.707 162.187C125.019 162.588 124.43 162.929 123.891 163.282C121.261 165.642 119.24 167.622 118.082 170.054L117.971 170.288L117.82 170.499C116.966 171.703 115.71 173.812 114.727 176.018C114.238 177.115 113.843 178.179 113.595 179.122C113.412 179.817 113.334 180.356 113.319 180.745C113.426 180.931 113.556 181.116 113.735 181.345C113.951 181.619 114.456 182.209 114.873 182.934L115.046 183.252L115.123 183.404L115.183 183.564C116.359 186.74 118.565 189.469 120.977 191.19L121.045 191.239L121.109 191.291C122.02 192.021 122.901 192.204 124.333 192.156L124.515 192.15L124.694 192.166C125.835 192.266 126.794 192.27 127.495 192.214C125.335 190.224 123.474 187.589 122.369 184.606C121.833 183.548 120.928 182.949 120.347 181.476C119.951 177.886 123.439 171.492 125.374 168.764C126.849 165.666 129.382 163.291 132.053 160.9C134.785 159.062 138.283 157.838 139.59 154.479C140.819 151.689 142.002 149.741 142.817 146.996C143.188 144.021 144.018 141.413 144.818 138.53C145.541 136.215 146.096 133.638 145.913 131.981C145.867 131.567 145.821 131.153 145.638 130.754C144.274 128.529 142.266 126.794 139.782 125.81C135.213 123.659 130.521 121.66 125.736 120.092C124.12 119.695 122.512 119.262 120.94 118.754ZM32.0909 65.0165C34.3 64.773 37.7207 65.3742 42.4444 66.3906C42.8957 66.5278 43.3508 66.6899 43.8028 66.833C44.2397 66.9128 44.6784 67.0078 45.1182 67.1142L45.3292 67.1669C45.3745 67.1701 45.4197 67.1733 45.4649 67.1748C45.687 67.2049 45.9098 67.2329 46.1309 67.2548C46.6807 67.1771 47.442 66.6935 47.9825 66.6337C48.2586 66.6033 48.5352 66.5724 48.6885 66.6953C48.9504 66.7123 49.2062 66.7349 49.4561 66.7617C49.7138 66.7179 49.9937 66.6761 50.2979 66.6425C51.9282 66.4628 53.6083 66.74 55.3048 67.1611C55.3901 67.1323 55.4793 67.0979 55.5753 67.0537C55.8766 67.0801 56.1682 67.1232 56.4512 67.1748C56.9517 67.0121 57.5411 66.6825 57.9825 66.6337C58.2586 66.6033 58.5353 66.5724 58.6885 66.6953C61.0812 66.8507 62.9677 67.4809 64.4864 67.3134C64.9004 67.2678 65.1764 67.2373 65.5753 67.0537C67.6919 67.2395 69.3329 68.1772 70.8516 68.0097C71.2657 67.9641 71.5419 67.9331 71.8028 67.7646C75.0544 68.1048 78.0444 69.8714 81.0655 70.6562C82.6602 71.179 84.3776 71.5488 85.9571 71.9335C88.3804 72.3651 90.0822 73.8544 91.4151 75.8037C92.6099 77.7681 93.5438 79.9012 93.9102 81.957C93.9396 83.4908 93.5241 84.7941 93.2774 86.3583C92.7089 87.539 91.6801 88.3517 90.6973 89.5781C89.7605 91.2179 88.5185 91.3555 87.8282 91.4316C87.414 91.4773 86.8459 91.4004 86.2784 91.3232C85.573 91.2613 84.7296 91.2143 83.9014 91.3056L82.3819 91.4726C81.5537 91.5639 80.7104 91.5179 80.0049 91.456C79.6458 91.3787 79.2931 91.2876 78.9464 91.1874C78.5174 91.3543 78.1228 91.3991 77.8282 91.4316L77.6651 91.4433C77.2713 91.458 76.7747 91.3907 76.2784 91.3232C75.573 91.2613 74.7296 91.2143 73.9014 91.3056L72.3819 91.4726C71.7608 91.5411 71.1312 91.532 70.5577 91.497L70.0049 91.456C67.8578 90.994 65.9408 90.0868 64.1622 89.165C62.6243 88.2865 61.4101 87.004 59.7227 86.4414L59.379 86.3388C57.6462 85.8312 56.0512 85.3083 54.3184 84.8007C53.7081 84.7722 53.1295 84.6943 52.5674 84.5927C51.244 85.1244 49.7985 85.2997 48.4717 85.5693C46.4009 85.7977 44.7888 87.6525 42.794 88.5712C39.786 90.4401 37.6819 92.9079 36.1915 95.8671C34.8848 99.2254 33.7167 102.569 34.0821 105.883C34.5916 109.637 37.0348 111.489 39.6319 112.167C40.5463 112.206 41.4593 112.295 42.3507 112.478C42.6368 112.472 42.9167 112.455 43.1876 112.425C43.7397 112.364 44.2922 112.302 44.8292 112.103C45.5509 112.137 46.3 112.137 47.0626 112.136C47.7628 111.987 48.464 111.879 49.1758 111.788L50.7061 111.611L52.3633 111.428C54.9112 111.147 57.8215 110.982 60.5967 111.622C60.6331 111.618 60.6696 111.614 60.7061 111.61L62.3633 111.428C67.1956 110.895 73.3317 110.777 77.377 115.781C77.5302 115.904 80.6217 121.148 80.6397 121.291C80.6702 121.567 80.7001 121.844 80.5772 121.997C80.5001 122.564 80.5613 123.117 80.6221 123.669L80.7442 124.773C80.8051 125.325 80.7276 125.893 80.3594 126.352C78.6386 129.756 75.3687 131.794 71.6866 132.619C71.2877 132.803 71.0118 132.834 70.5977 132.88C69.5286 132.998 66.5069 132.485 63.9298 131.94C63.2068 132.22 62.4559 132.447 61.6866 132.619C61.2877 132.803 61.0118 132.834 60.5977 132.88L60.4132 132.893C58.4842 132.974 52.3269 131.676 50.3848 131.081L50.046 130.969L47.1319 129.893C46.1198 129.585 45.0922 129.139 44.0801 128.831C43.0682 128.524 42.1165 128.768 41.1046 128.461C40.3987 128.284 39.7236 128.141 39.0801 128.023C38.152 128.179 37.2274 128.368 36.3028 128.556C35.3516 128.8 34.8754 129.552 33.9698 130.211C30.7618 132.801 29.1643 134.793 29.6514 139.211C29.758 140.177 30.0007 143.645 33.0655 147.359C36.2378 150.783 40.3647 150.188 44.7208 150.406C45.871 150.699 46.6227 151.175 47.8653 151.038C48.5708 151.1 49.522 150.855 50.2579 151.193C51.3477 151.502 52.385 151.752 53.3604 151.954C53.8516 151.792 54.3344 151.608 54.8145 151.404C55.7412 150.935 56.6913 150.678 57.6544 150.539L58.0674 150.487C58.7578 150.411 59.7394 150.442 60.8438 150.32C61.8103 150.214 62.6236 149.984 63.5596 149.602C63.8238 149.432 71.4135 147.339 71.5538 147.323C72.1976 147.619 72.9239 147.692 73.5577 147.654L73.8233 147.632C74.4273 147.565 75.1137 147.275 76.0157 147.122L76.4161 147.066C76.9683 147.005 77.5205 146.944 78.088 147.021C79.0383 147.04 79.9456 147.223 80.8155 147.517C81.2516 147.398 81.5284 147.326 81.5538 147.323C82.2897 147.661 83.1331 147.708 83.8233 147.632C84.5136 147.556 85.3116 147.188 86.4161 147.066C86.9683 147.005 87.5205 146.944 88.088 147.021C91.3091 147.085 94.0383 149.02 96.4757 150.848C98.8055 152.966 99.9235 155.499 100.167 157.708C100.213 158.122 100.258 158.536 100.166 158.966C100.334 159.227 100.364 159.503 100.395 159.779C100.501 160.746 100.056 161.773 99.5333 163.367C99.0713 165.514 97.5662 167.078 96.2149 168.765C94.2658 170.097 91.9491 170.632 89.9239 171.274C88.8194 171.396 87.5461 171.258 86.2579 170.98C84.8697 170.762 83.5422 171.084 82.1251 170.602C81.3745 170.838 80.6314 171.05 79.9239 171.274C78.8194 171.396 77.5461 171.258 76.2579 170.98C74.6935 170.734 73.2054 171.177 71.5801 170.378C68.4618 170.026 65.3822 169.389 62.3028 169.02C59.9171 169.351 58.2689 169.99 56.1309 171.507C54.1198 173.545 51.2963 174.556 48.9014 176.916L47.6426 178.173C45.9226 180.319 39.1862 183.857 36.7315 184.407C35.6727 184.943 34.7822 185.739 33.6778 185.861C32.4809 186.412 31.253 186.688 30.1485 186.81C28.8755 186.67 27.5565 186.117 26.0694 185.303C25.9452 185.203 25.8242 185.101 25.7051 184.998C25.0486 185.4 24.411 185.78 23.6778 185.861C22.4809 186.412 21.253 186.688 20.1485 186.81C18.8755 186.67 17.5565 186.117 16.0694 185.303C13.1571 182.969 11.6718 179.639 11.2608 175.911L11.1544 174.944C10.8689 172.356 9.90867 170.333 9.60163 168.384L9.54987 167.995C9.47376 167.305 9.41278 166.752 9.47468 166.047C8.32867 160.723 7.97831 157.547 7.85651 156.442C7.61297 154.234 7.52297 152.147 7.43268 150.061C6.77805 144.125 7.85597 138.695 7.35358 134.139L7.14069 132.206C6.91233 130.135 5.26815 128.588 3.9903 127.024L3.73932 126.712C1.85522 123.566 0.278069 120.665 0.0801438 118.87C-0.0416479 117.766 -0.224386 116.108 1.23444 114.131C3.39997 110.957 7.48226 108.691 7.71589 104.473C7.95837 103.345 7.98933 102.242 7.92194 101.336L7.88776 100.96C7.72032 99.4413 7.59835 98.3369 8.12116 96.7421C8.15056 93.682 8.55656 90.1524 9.07038 87.1191L9.29596 85.8525C10.3772 82.589 10.596 79.2975 11.3419 76.0556L11.4981 75.4081C12.2186 73.6257 12.1576 71.4379 12.5528 69.6298L12.6387 69.2734C13.592 66.5132 16.2149 66.223 18.4239 65.9794C19.6207 65.4283 20.8484 65.1536 22.0909 65.0165C23.7385 64.8349 26.0603 65.1231 29.0938 65.7031C30.0775 65.3336 31.0787 65.1282 32.0909 65.0165ZM23.336 67.9648C22.9787 67.9588 22.6755 67.9708 22.42 67.999C21.3993 68.1115 20.5046 68.3247 19.6788 68.705L19.2374 68.9081L18.753 68.9619C17.5601 69.0934 16.8089 69.1985 16.2364 69.4423C15.8714 69.5978 15.6665 69.7659 15.5118 70.1552C15.356 70.8014 15.2882 71.5385 15.1505 72.6865C15.029 73.6985 14.848 75.0198 14.3673 76.3046C13.9905 77.8274 13.758 79.3589 13.4581 81.122C13.1696 82.8181 12.821 84.674 12.2149 86.5654C11.6322 89.7108 11.152 93.5597 11.1212 96.7705L11.1163 97.2353L10.9717 97.6767C10.6674 98.6052 10.7047 99.1397 10.8692 100.632C10.9981 101.801 11.005 103.302 10.6944 104.88C10.4537 107.881 8.87781 110.065 7.44538 111.683C6.73918 112.48 5.90593 113.311 5.29987 113.946C4.63562 114.643 4.11215 115.237 3.71296 115.822L3.68171 115.868L3.6485 115.912C3.21224 116.503 3.07961 116.954 3.03034 117.278C2.97406 117.649 3.0015 117.987 3.06257 118.541C3.10116 118.891 3.34155 119.671 3.97468 120.97C4.54841 122.146 5.32161 123.507 6.20905 124.994C6.45443 125.301 6.72647 125.619 7.06354 126.013C7.42455 126.434 7.84992 126.934 8.24909 127.474C9.04292 128.547 9.91639 130.011 10.1221 131.877L10.336 133.81C10.6189 136.377 10.4536 139.147 10.3331 141.723C10.2159 144.225 10.1267 146.693 10.3624 149.226L10.4141 149.732L10.4249 149.832L10.4298 149.932C10.5206 152.03 10.6079 154.019 10.8389 156.114C10.9534 157.152 11.2893 160.221 12.4073 165.415L12.503 165.857L12.463 166.309C12.4302 166.682 12.4537 166.962 12.5313 167.666C12.6096 168.375 12.8362 169.128 13.2003 170.361C13.5383 171.506 13.9529 172.948 14.1368 174.616L14.2432 175.582C14.5783 178.621 15.7233 181.082 17.7579 182.803C18.8215 183.369 19.5826 183.663 20.1778 183.78C20.9306 183.67 21.6998 183.47 22.4229 183.137L22.8653 182.933L23.3321 182.881C23.3519 182.875 23.4465 182.841 23.6641 182.721C22.3039 180.753 21.5378 178.423 21.2608 175.911L21.1544 174.944C20.8498 172.183 19.7783 170.066 19.5499 167.995C19.4738 167.305 19.4128 166.752 19.4747 166.047C18.3287 160.723 17.9783 157.547 17.8565 156.442C17.613 154.234 17.523 152.147 17.4327 150.061C17.155 147.543 17.1922 145.116 17.2852 142.808C16.8269 141.236 16.7261 140.049 16.67 139.54C16.4272 137.338 16.6 135.41 17.2989 133.646L17.1407 132.206C16.8971 129.997 15.0427 128.385 13.7403 126.712C11.8562 123.566 10.2781 120.665 10.0801 118.87C9.95835 117.766 9.77555 116.108 11.2344 114.131C13.4 110.957 17.4823 108.691 17.7159 104.473C17.993 103.184 17.9943 101.926 17.8878 100.96C17.7203 99.4413 17.5984 98.3369 18.1212 96.7421C18.1548 93.2449 18.6797 89.1345 19.296 85.8525C20.4493 82.3715 20.621 78.8586 21.4981 75.4081C22.2666 73.5068 22.1464 71.1443 22.6387 69.2734C22.8174 68.7561 23.0537 68.3245 23.336 67.9648ZM282.577 116.471C281.76 116.401 281.174 116.441 280.838 116.478C279.986 116.572 279.267 116.759 278.611 117.091L278.536 117.129L278.46 117.163C277.846 117.432 277.22 117.668 276.684 117.871C276.121 118.085 275.647 118.266 275.209 118.46C274.314 118.857 273.885 119.178 273.658 119.461L273.525 119.627L273.369 119.773C273.318 119.821 273.176 119.957 272.949 120.571L272.933 120.614L272.916 120.656C272.572 121.508 272.085 122.197 271.694 122.702C271.497 122.957 271.292 123.204 271.126 123.406C270.949 123.621 270.806 123.797 270.674 123.97C270.165 124.635 270.119 124.887 270.134 125.141C270.324 127.238 269.667 129.073 269.516 129.777C269.49 129.898 269.47 130.022 269.46 130.138C269.453 130.22 269.453 130.282 269.454 130.324C269.472 130.369 269.539 130.548 269.745 130.938C269.89 131.213 270.057 131.509 270.273 131.895C270.477 132.262 270.711 132.685 270.952 133.151L271.082 133.387C271.76 134.553 272.843 135.574 274.342 136.79C275.698 137.89 277.593 139.284 279.085 140.956L279.378 141.294L279.436 141.363L279.489 141.435C280.371 142.624 281.291 143.382 282.997 144.749C284.309 145.735 285.233 146.902 285.912 147.77C286.601 148.652 287.014 149.182 287.461 149.577C289.565 150.785 291.355 151.749 293.108 152.579C293.735 152.875 294.347 153.034 295.225 153.218C295.961 153.372 296.96 153.555 298.071 153.894L298.555 154.05L298.729 154.108L298.894 154.187C299.341 154.403 299.724 154.636 300.024 154.825C300.374 155.046 300.523 155.149 300.759 155.29C301.116 155.504 301.335 155.591 301.601 155.633L302.082 155.709L302.514 155.933C302.633 155.994 302.913 156.08 303.643 156C303.701 155.994 303.759 155.984 303.818 155.976C303.163 155.815 302.509 155.615 301.825 155.291C299.909 154.384 297.977 153.339 295.738 152.049C294.052 150.698 293.118 148.564 291.141 147.105C289.455 145.754 288.228 144.772 287.079 143.222C284.505 140.152 280.242 138.246 278.297 134.548C277.409 132.829 276.581 131.663 276.475 130.696C276.414 130.144 276.491 129.576 276.583 129.146C276.86 127.858 277.306 126.831 277.139 125.312C276.988 122.674 279.366 121.433 280.135 119.532C280.458 118.658 280.811 118.06 281.317 117.585C281.67 117.145 282.099 116.783 282.577 116.471ZM237.984 152.692C240.328 153.743 241.85 154.436 243.702 154.532C243.877 154.515 244.048 154.498 244.214 154.484C242.203 153.827 240.109 153.08 237.984 152.692ZM196.912 88.3603C196.545 90.2348 196.3 92.0235 195.537 94.0888C194.216 96.0512 192.88 97.8755 192.004 100.068C191.71 100.585 191.399 101.085 191.078 101.573C191.417 102.584 191.749 103.522 192.09 104.483C192.393 105.338 192.704 106.213 193.023 107.153L193.345 108.118L193.405 108.305L193.442 108.497C193.625 109.462 193.755 110.591 193.874 111.403C194.006 112.305 194.158 113.114 194.407 113.899L194.424 113.951L194.439 114.003C195.238 116.876 196.102 119.715 196.98 122.594C197.635 124.744 198.297 126.918 198.935 129.117L199.563 131.326L199.594 131.438L199.616 131.554C199.933 133.174 200.28 134.939 200.479 136.74C200.537 137.266 200.538 137.758 200.533 138.087C200.532 138.207 200.528 138.325 200.525 138.407C200.701 139.835 201.174 141.298 202.039 142.932C203.777 145.819 205.48 147.736 207.405 148.961C209.273 150.149 211.586 150.835 214.822 150.862C214.84 150.86 214.857 150.856 214.875 150.853C212.809 149.301 211.068 147.151 209.423 144.403C208.366 142.424 207.739 140.536 207.525 138.603C207.51 138.465 207.572 137.76 207.496 137.069C207.313 135.412 206.993 133.77 206.672 132.129C205.051 126.299 203.169 120.637 201.548 114.807C200.905 112.781 200.83 110.833 200.494 109.054C199.653 106.491 198.872 104.481 198.03 101.919C197.909 100.814 198.477 99.6337 198.356 98.5292C198.158 96.7344 197.837 95.0927 197.639 93.2978C197.588 91.7653 197.548 90.3319 197.426 88.9228C197.24 88.7422 197.07 88.5544 196.912 88.3603ZM322.2 95.4687C321.068 95.4802 319.935 95.4928 318.811 95.5781C320.031 96.546 320.997 97.6439 321.739 98.9658C323.169 101.512 323.579 104.657 324.136 107.953L324.2 108.333L324.166 108.716C324.06 109.919 323.87 111.03 323.694 112.003C323.512 113.015 323.357 113.827 323.263 114.632L323.26 114.659L323.256 114.685C323.211 115.018 323.187 115.23 323.176 115.374C323.199 115.438 323.229 115.513 323.254 115.599C323.291 115.724 323.343 115.926 323.371 116.177C323.492 117.268 323.316 118.319 322.845 119.417C322.012 121.847 321.068 124.971 319.58 127.714C318.366 129.953 316.714 132.099 314.304 133.717C315.444 133.63 316.58 133.506 317.75 133.69C317.903 133.813 318.179 133.783 318.317 133.768C319.008 133.691 319.745 132.772 320.804 132.236C326.666 129.633 328.235 123.591 330.034 118.361C330.372 117.625 330.45 117.058 330.389 116.506C330.373 116.368 330.206 116.107 330.19 115.969C330.13 115.416 330.206 114.849 330.283 114.281C330.5 112.441 330.992 110.57 331.178 108.453C329.972 101.32 329.806 98.543 322.477 95.4384L322.2 95.4687ZM53.0176 128.664C53.5252 128.783 54.1028 128.912 54.7217 129.042C54.5075 128.967 54.2933 128.896 54.0801 128.831C53.7201 128.722 53.3677 128.683 53.0176 128.664ZM104.972 84.2119C104.386 83.958 103.913 83.8879 103.366 83.9482C102.622 84.0303 100.973 84.2883 99.2882 85.8886C96.3392 89.6379 94.7951 94.1773 95.1143 97.0722C95.1635 97.5178 95.278 97.9862 95.4522 98.6181C95.9942 99.4589 96.768 100.735 97.0548 102.21C98.2187 104.97 99.9956 107.385 102.086 110.284C105.476 113.824 110.054 115.538 115.367 116.906L116.452 117.179L116.563 117.206L116.671 117.241C117.146 117.397 117.62 117.557 118.093 117.721C115.013 116.456 112.157 114.751 109.774 112.21C107.63 109.232 105.499 106.393 104.152 103.048C104.031 101.943 103.357 100.899 102.683 99.8554C102.453 99.0423 102.224 98.2287 102.133 97.4003C101.719 93.6412 103.508 88.6536 106.474 84.6328C106.166 84.5419 105.854 84.461 105.535 84.3925L105.244 84.33L104.972 84.2119ZM175.137 54.0087C174.733 54.2632 174.31 54.6117 173.814 55.08C173.312 55.5534 172.42 56.4768 171.632 57.1669C171.497 57.3328 171.397 57.5158 171.29 57.7929C171.219 57.9787 171.153 58.1816 171.061 58.4746C170.976 58.7433 170.862 59.1076 170.725 59.4804L170.649 59.6874L170.542 59.8818C170.059 60.7643 169.891 61.698 170.015 62.8203C170.089 63.4949 170.259 64.1719 170.538 64.8564C170.925 65.761 171.01 66.7757 171.039 67.04C171.167 68.2005 171.073 69.5004 170.977 70.6347C170.878 71.8025 170.762 72.9361 170.706 74.1699L170.717 74.2587L170.713 74.4531C170.698 75.2032 170.709 75.9666 170.717 76.8115C170.724 77.6335 170.728 78.5205 170.691 79.4101C170.62 81.141 170.389 83.0995 169.586 84.9697C169.33 85.6107 169.227 86.3188 169.16 87.3388C169.101 88.2382 169.069 89.6675 168.777 91.0224L168.763 91.0888L168.745 91.1542C168.421 92.3841 167.923 93.4802 167.468 94.4033C166.98 95.3932 166.621 96.0427 166.268 96.8271C164.586 101.529 162.272 106.085 158.982 110.191L158.739 110.494L158.428 110.725C157.722 111.248 156.882 111.911 156.003 112.579C156.075 112.612 156.147 112.647 156.222 112.678C157.096 113 157.939 113.047 158.768 112.956C159.182 112.91 160.287 112.789 161.99 111.763C163.556 110.752 165.091 109.464 166.641 108.315C169.712 104.483 171.894 100.189 173.493 95.6806C174.277 93.9174 175.351 92.2614 175.844 90.3906C176.306 88.2436 175.925 86.05 176.801 83.8574C178.03 81.0666 177.65 77.6147 177.714 74.3935L177.698 74.2558C177.808 71.4488 178.239 69.0249 178.057 67.3681C178.011 66.9539 177.95 66.4018 177.767 66.0029C177.384 65.0669 177.139 64.1158 177.032 63.1494C176.85 61.4926 177.097 59.9276 177.911 58.4404C178.294 57.4049 178.459 56.3939 179.19 55.4179C178.671 55.1484 178.081 54.9638 177.406 54.872L177.08 54.8271L176.771 54.7128C176.367 54.5637 176.015 54.405 175.747 54.2822C175.448 54.1448 175.299 54.0739 175.145 54.0117C175.142 54.0106 175.139 54.0097 175.137 54.0087ZM416.26 48.3837C424.021 46.4437 445.252 44.9432 453.829 51.0712C454.8 51.7651 455.723 52.5523 456.593 53.4208C464.441 59.6806 467.671 70.4018 463.97 83.3906C459.199 100.104 445.148 107.474 431.494 106.987C421.151 107.947 410.658 105.701 403.754 100.723C397.046 95.901 388.252 84.3507 391.217 70.3144L391.367 69.6435C394.21 57.5984 408.3 50.5931 415.577 48.5644L416.26 48.3837ZM418.064 51.0507C417.678 51.1317 417.318 51.2123 416.987 51.2949L416.986 51.2939C413.805 52.0908 408.664 54.148 404.013 57.457C399.342 60.7799 395.52 65.1069 394.287 70.333L394.286 70.3349C391.371 82.6445 398.753 93.1103 404.913 97.8466L405.505 98.2871L405.509 98.29C408.486 100.437 412.283 102.049 416.508 103.045C415.204 102.357 413.947 101.583 412.754 100.723C405.94 95.8245 396.972 83.9819 400.367 69.6435C402.493 60.6353 410.91 54.4476 418.064 51.0507ZM454.926 69.0712C452.717 69.0536 450.912 70.8303 450.894 73.039C450.89 73.5078 450.825 74.4677 450.688 75.4619C450.62 75.9476 450.543 76.3892 450.462 76.7431C450.371 77.1404 450.315 77.2568 450.344 77.1953C449.932 78.0776 449.575 78.74 449.237 79.3437C448.92 79.9106 448.513 80.6068 448.154 81.3212C447.207 83.2067 447.051 83.7668 446.427 84.8486C446.035 85.5266 445.444 86.3958 444.807 87.3251C443.44 88.6559 441.897 89.8005 440.215 90.704C440.082 90.721 439.931 90.742 439.748 90.7656C439.115 90.7851 438.493 90.8159 437.815 90.8593C437.773 90.8607 437.735 90.8608 437.702 90.8613C435.877 90.2728 433.84 91.0698 432.928 92.829C431.912 94.7904 432.678 97.2044 434.64 98.2206C434.719 98.2617 434.8 98.2973 434.879 98.333C435.094 98.4999 435.362 98.6796 435.69 98.8378C435.725 98.8566 436.359 99.2248 436.998 99.331C437.16 99.358 437.569 99.4361 437.94 99.4746C438.329 99.5146 438.887 99.5405 439.477 99.3974C439.501 99.3915 439.525 99.382 439.551 99.3749C439.85 99.349 440.157 99.2835 440.465 99.1669L441.758 98.6787V98.621C441.818 98.5943 441.878 98.5641 441.939 98.5371C443.022 98.3544 444.453 97.9919 446.12 97.0556C447.431 96.3196 449.118 95.2304 450.331 93.4228C450.677 92.9072 451.179 92.1833 451.697 91.4199C455.309 87.4312 457.84 82.4664 458.743 77.0517L458.745 77.04C458.82 76.5744 458.818 76.0679 458.732 75.5644C458.831 74.642 458.888 73.7571 458.894 73.1035C458.911 70.895 457.134 69.0894 454.926 69.0712ZM288.646 35.831C287.195 36.0211 285.752 36.2961 284.316 36.6552C282.467 37.5089 280.564 38.288 278.744 39.04C276.808 39.84 274.952 40.616 273.177 41.4765C269.647 43.188 266.649 45.138 264.409 47.915C263.489 49.2161 262.377 50.3392 261.646 51.1367C260.803 52.0555 260.305 52.7009 260.02 53.372L259.956 53.5205L259.877 53.6621C259.88 53.6568 259.859 53.6935 259.823 53.8203C259.783 53.964 259.748 54.1309 259.689 54.4365C259.591 54.9331 259.411 55.983 258.847 56.9902L258.83 57.0205L258.813 57.0507C257.267 59.6673 256.319 62.6579 255.437 65.9345L255.371 66.1777L255.266 66.4062C255.187 66.5767 255.177 66.644 255.176 66.6494C255.175 66.6516 255.175 66.6552 255.175 66.6601C255.198 66.7213 255.226 66.7939 255.265 66.8945C255.311 67.0122 255.368 67.1584 255.427 67.3183C255.67 67.9749 255.972 68.9056 256.101 70.0722L256.161 70.624L256.193 70.9199L256.168 71.2158C256.06 72.4442 256.075 73.6414 256.189 74.6738C256.637 78.7408 259.195 84.2149 264.904 88.0029C267.569 89.2055 270.455 90.0687 273.399 90.6044C266.815 86.3044 263.753 79.9589 263.206 75.0029C263.069 73.7603 263.056 72.3642 263.18 70.9531L263.118 70.4013C262.936 68.7447 262.261 67.7007 262.2 67.1484C262.124 66.458 262.202 65.8902 262.54 65.1542C263.433 61.8417 264.463 58.514 266.23 55.5244C266.813 54.4818 266.676 53.2388 267.26 52.1962C268.259 49.8503 270.469 48.3488 272.035 46.08C276.236 40.8381 282.509 38.3691 288.646 35.831ZM62.8438 84.6415C63.1068 84.8057 63.35 84.9692 63.5733 85.1249C64.5286 85.7912 64.9629 86.1605 65.6055 86.5331C67.2554 87.3861 68.8064 88.0995 70.4542 88.4804C71.0355 88.5261 71.577 88.5437 72.0538 88.4912L72.9737 88.3886C71.8408 87.5798 70.7771 86.7068 69.379 86.3388C67.6462 85.8312 66.0512 85.3083 64.3184 84.8007C63.8079 84.7768 63.3189 84.719 62.8438 84.6415ZM307.011 56.3447C307.31 56.5501 307.602 56.7833 307.88 57.0498C309.846 58.2482 312.293 58.5077 314.633 58.4257C313.56 57.9406 312.308 57.8569 311.049 57.7089C309.646 57.2185 308.318 56.7448 307.011 56.3447ZM447.487 4.53413C450.923 1.91958 458.68 -1.33336 467.031 0.571235C474.265 2.22751 477.412 8.60364 477.948 11.5615C478.543 14.8149 478.306 22.2705 474 25.5712C469.578 28.9548 463.829 30.6534 456 28.5712C441.574 24.7499 439.252 10.8044 447.487 4.53413ZM472.444 9.10542C472.078 9.10542 471.794 9.21293 471.786 9.21577C471.703 9.24449 471.637 9.27363 471.599 9.29096C471.518 9.32756 471.45 9.36455 471.401 9.39252C471.35 9.42185 471.299 9.45333 471.249 9.48627L471.101 9.58979C470.606 9.95364 470.358 10.4436 470.256 10.8632C470.166 11.2329 470.187 11.5516 470.201 11.706C470.216 11.8626 470.245 12.0212 470.251 12.0556C470.257 12.0923 470.259 12.1023 470.258 12.0947L470.276 12.2831C470.285 12.3446 470.296 12.4032 470.307 12.4589C470.304 12.6213 470.321 12.788 470.364 12.957C470.394 13.0743 470.423 13.2039 470.453 13.3212C470.453 13.3253 470.454 13.3298 470.454 13.3339C470.527 13.3733 470.513 13.9423 470.513 14.0029C470.528 14.4494 470.513 14.8962 470.453 15.3427C470.453 15.4601 470.394 15.6012 470.379 15.707C470.32 15.9302 470.26 16.1419 470.186 16.3652C470.111 16.5884 470.037 16.8002 469.948 17.0117C469.916 17.0961 469.875 17.1801 469.833 17.2646C469.707 17.4217 469.577 17.5659 469.436 17.7001C468.87 18.2362 468.419 18.6669 468.023 19.0273C467.365 19.3366 466.797 19.6513 466.517 19.7919C466.366 19.8676 466.309 19.8751 465.888 20.0546C465.853 20.0692 465.778 20.0964 465.645 20.1328C465.582 20.1497 465.518 20.1654 465.446 20.1835C465.383 20.1995 465.292 20.2224 465.212 20.2441C464.935 20.3196 464.703 20.4219 464.578 20.4775C464.492 20.5159 464.48 20.522 464.435 20.5419L464.431 20.5439C464.384 20.5599 464.337 20.5783 464.29 20.5986C463.448 20.8341 462.829 21.6058 462.829 22.5234C462.829 23.3365 463.315 24.0348 464.012 24.3466C464.295 24.5663 464.593 24.6858 464.869 24.746C465.166 24.8868 465.448 24.9495 465.668 24.9765C465.971 25.0136 466.24 24.9961 466.422 24.9765C466.607 24.9565 466.777 24.9252 466.879 24.9062C466.94 24.8947 466.972 24.8884 467.009 24.8818C467.032 24.8776 467.044 24.8763 467.047 24.8759C467.554 24.8087 468.003 24.6325 468.351 24.4785L468.372 24.5205C468.639 24.3844 468.899 24.2398 469.152 24.0917C470.04 23.7741 470.928 23.286 471.724 22.5136C472.547 21.7148 473.761 20.6147 474.474 19.079C474.576 18.8585 474.685 18.5986 474.797 18.3095C474.821 18.199 474.845 18.0875 474.867 17.9746C475.318 15.663 475.228 13.3632 474.997 12.1005L474.996 12.0966C474.909 11.6189 474.72 11.0019 474.419 10.3154C474.342 10.2486 474.266 10.1882 474.193 10.1357C473.852 9.5213 473.197 9.10561 472.444 9.10542ZM453.901 4.48627C451.953 5.21901 450.363 6.11601 449.304 6.92182C446.22 9.27028 445.098 13.0263 446.131 16.6484C446.812 19.0364 448.49 21.4994 451.407 23.3749C446.401 18.2187 447.408 10.3796 452.524 5.60542C452.917 5.23939 453.379 4.86142 453.901 4.48627Z" fill="black"/>
</svg>
