<svg width="455" height="398" viewBox="0 0 455 398" fill="none" xmlns="http://www.w3.org/2000/svg">
<g clip-path="url(#clip0_149_2477)">
<path d="M112.877 7.32874C93.3201 6.75589 84.4123 12.2898 79.6516 13.9727C51.8928 23.8236 28.1906 52.3902 42.2867 82.096C44.3455 86.442 60.8997 112.913 63.4998 114.721C68.6986 118.335 99.4159 126.817 106.036 127.107C129.595 128.154 155.939 94.2091 156.788 81.1851C157.738 66.612 160.042 46.8416 151.939 33.2618C147.813 26.3215 125.435 8.45829 112.877 7.32874ZM68.3725 32.0254C95.9371 10.1359 134.182 18.9275 145.392 47.8343C153.85 74.6576 140.327 109.664 110.531 111.883C63.2961 115.383 29.8631 62.6075 68.3725 32.0254ZM261.399 39.0773C251.334 12.0618 218.029 10.2908 197.262 26.487C172.448 45.8446 179.487 76.6052 205.098 91.7322C247.625 116.872 277.34 81.9099 261.399 39.0773ZM107.794 42.6682C99.3824 33.8727 83.7919 29.9277 74.8377 40.2546C73.5268 41.7641 69.9265 43.6227 65.9659 53.7559C63.6934 62.3225 67.3828 69.3308 68.3832 71.8741C71.9371 80.9273 84.8866 83.5163 94.3967 83.2422C101.094 82.2694 108.029 78.6697 111.844 73.3242C113.797 70.598 117.091 64.2198 115.172 54.2266C111.175 45.204 109.234 44.1778 107.794 42.6682ZM235.967 38.2477C259.12 39.6037 265.881 61.4239 252.497 78.001C241.295 91.871 218.614 89.1832 206.311 78.0014C188.183 53.8059 187.887 35.432 235.967 38.2477ZM246.683 52.2888C243.534 48.9961 237.971 47.4595 234.619 51.3255C234.128 51.8905 232.78 52.5865 231.297 56.3794C230.447 59.5857 231.827 62.209 232.202 63.1613C233.532 66.5503 238.38 67.5201 241.94 67.4175C244.447 67.0533 247.044 65.7059 248.472 63.705C249.203 62.6846 250.019 57.7503 249.718 56.5557C249.577 55.9952 247.222 52.854 246.683 52.2888Z" fill="black"/>
</g>
<path d="M243.401 144.847L243.125 144.877C242.726 145.061 242.45 145.091 242.035 145.137C240.379 145.32 238.738 144.383 236.069 144.258C235.226 144.211 234.397 144.302 233.431 144.409C232.74 144.485 230.961 144.821 228.337 145.11C227.923 145.156 227.202 144.956 226.037 144.525C224.611 144.263 223.215 144.278 221.972 144.415C221.558 144.46 221.435 144.614 221.021 144.659C219.64 144.812 218.229 144.688 216.803 144.426C215.515 144.149 214.257 144.147 212.738 144.315C209.27 145.815 205.374 145.965 204.312 150.275C203.974 151.011 203.912 151.716 203.988 152.407C204.003 152.545 204.156 152.668 204.202 153.082C204.278 153.772 204.201 154.34 204.124 154.907C203.677 157.192 203.552 159.861 205.929 161.137C207.109 161.705 208.259 161.998 209.502 161.86C210.192 161.784 211.405 161.371 212.647 161.234C213.614 161.128 214.457 161.174 215.301 161.221C218.108 161.331 221.897 161.472 224.704 161.582L233.54 160.607C236.025 160.333 238.433 160.627 240.887 161.334C242.482 161.857 243.447 163.009 245.072 163.808C246.759 165.159 248.093 165.85 248.705 167.599C248.948 169.809 249.177 171.88 248.715 174.027C248.299 175.33 247.286 176.28 246.288 177.369C244.57 178.257 243.203 179.805 241.454 180.417C238.078 181.488 234.657 182.145 230.929 182.556C229.456 183.138 228.382 183.535 226.879 183.841C223.641 184.897 221.246 187.257 218.821 189.341C216.81 191.38 213.555 194.813 213.814 197.16C213.829 197.298 213.859 197.574 214.028 197.835C214.656 198.465 215.269 198.956 215.837 199.033C218.213 200.308 220.406 201.184 222.783 202.46C223.963 203.028 225.236 203.167 226.479 203.03C227.998 202.863 229.102 202.741 230.682 203.126C231.664 203.157 232.783 203.174 233.75 203.067C234.302 203.006 234.839 202.807 235.391 202.746C238.981 202.35 244.932 203.092 248.152 204.413C249.717 204.66 251.65 204.447 253.29 205.384C254.471 205.953 255.13 206.858 256.172 207.442C257.798 208.241 259.132 208.932 259.989 210.375C261.936 212.816 263.038 215.209 263.327 217.833C263.464 219.075 263.248 220.916 262.816 223.339C262.4 225.901 260.158 228.384 256.352 230.62C255.677 230.834 254.864 231.064 254.174 231.14C253.483 231.216 251.919 230.969 249.296 231.258C246.351 231.164 243.974 229.889 241.183 228.659C238.438 227.844 235.51 226.63 232.534 226.259C231.828 226.197 230.985 226.15 230.295 226.227C229.604 226.303 228.653 226.547 227.686 226.654C226.996 226.73 226.444 226.791 225.876 226.714C225.447 226.621 224.895 226.682 224.48 226.728C223.514 226.834 222.317 227.386 220.522 227.584C212.975 227.577 208.714 224.414 204.945 218.121C203.889 216.142 203.261 214.255 203.048 212.322C203.033 212.184 203.095 211.478 203.019 210.788C202.836 209.131 202.515 207.489 202.194 205.848C200.573 200.017 198.691 194.356 197.07 188.525C196.428 186.5 196.353 184.552 196.017 182.772C195.175 180.21 194.394 178.2 193.553 175.637C193.431 174.533 194 173.352 193.878 172.248C193.68 170.453 193.359 168.811 193.161 167.016C193.101 165.206 193.057 163.534 192.874 161.877C192.691 160.22 192.371 158.579 192.065 157.075C191.79 155.848 191.53 154.759 191.408 153.654C191.165 151.445 191.52 148.331 191.186 144.036C191.31 142.625 191.296 141.229 191.159 139.987C191.022 138.744 190.732 137.379 190.319 136.166C190.242 135.476 190.166 134.786 190.796 134.157C192.255 132.18 194.832 131.476 197.134 130.803C201.414 130.331 204.742 131.362 207.365 131.073C208.193 130.981 209.006 130.752 209.82 130.522L211.338 130.355C211.753 130.309 212.32 130.386 212.75 130.479C213.992 130.342 214.621 130.971 215.587 130.865C218.425 129.993 221.187 129.688 224.071 129.23C228.397 129.173 232.308 129.161 236.174 128.734L236.726 128.673C238.521 128.476 240.5 128.677 242.647 129.139C246.143 130.43 248.625 133.929 248.991 137.243L249.082 138.071C248.267 140.817 246.086 143.852 243.401 144.847Z" fill="black"/>
<path d="M173.236 148.112L173.221 147.974C173.33 145.167 173.762 142.743 173.579 141.087C173.534 140.672 173.473 140.12 173.289 139.721C172.906 138.785 172.662 137.834 172.555 136.867C172.372 135.211 172.619 133.646 173.433 132.159C173.864 130.993 174.018 129.859 175.016 128.77C176.551 127.483 177.887 125.659 179.882 124.74L180.296 124.694C181.401 124.573 182.167 125.187 183.333 125.617C185.603 125.926 187.396 126.986 188.699 128.659C190.032 130.608 191.748 132.236 192.452 134.813C192.818 136.869 193.523 138.189 193.66 139.431C193.706 139.846 193.766 140.398 193.674 140.827L193.857 142.484C194.591 145.338 195.109 148.774 194.554 152.609C193.907 155.615 193.338 158.053 192.583 161.35C192.121 163.498 191.92 165.476 191.059 167.807C189.738 169.769 188.402 171.594 187.526 173.786C185.068 178.11 181.507 181.298 179.355 185.867C177.45 190.13 175.499 193.978 173.302 198.133C172.579 200.449 171.58 202.795 171.455 205.464C171.086 205.924 171.408 206.308 171.039 206.768C170.732 207.78 170.517 208.363 170.071 209.39C169.011 211.184 166.571 211.872 165.511 213.666C164.053 215.643 163.269 217.407 161.978 219.645C160.749 222.436 159.903 224.905 158.505 227.435C158.335 229.689 157.873 231.837 157.119 233.876C156.964 236.269 156.057 238.186 155.611 240.471C155.071 243.185 154.394 245.915 153.717 248.645C153.625 249.074 153.67 249.489 153.716 249.903C153.762 250.317 153.945 250.716 153.991 251.13C154.037 251.544 154.098 252.097 154.005 252.526C153.205 255.409 151.73 258.507 150.179 260.914C148.029 262.967 144.839 263.179 142.383 264.987C140.91 265.569 139.774 266.672 138.301 267.254C135.247 268.709 134.142 268.831 133.59 268.892C132.624 268.998 131.366 268.997 129.955 268.873C128.145 268.933 126.442 268.701 124.756 267.35C121.874 265.292 119.284 262.084 117.891 258.325C117.355 257.266 116.451 256.667 115.869 255.194C115.473 251.604 118.961 245.211 120.896 242.482C122.371 239.385 124.904 237.009 127.575 234.618C130.307 232.78 133.805 231.556 135.112 228.197C136.342 225.407 137.524 223.46 138.34 220.715C138.71 217.739 139.541 215.132 140.341 212.249C141.064 209.933 141.618 207.357 141.435 205.7C141.39 205.286 141.344 204.871 141.16 204.472C139.797 202.247 137.789 200.512 135.305 199.528C130.735 197.377 126.043 195.379 121.259 193.81C115.37 192.364 109.573 190.487 105.297 185.928C103.152 182.95 101.022 180.111 99.675 176.766C99.5532 175.661 98.8792 174.617 98.2051 173.574C97.9757 172.761 97.7463 171.947 97.6549 171.119C97.2134 167.115 99.2734 161.717 102.59 157.578C104.985 155.218 107.455 154.806 108.56 154.684C109.664 154.563 110.661 154.732 111.688 155.178C118.559 156.656 122.819 162.335 127.371 166.864C130.283 169.198 133.396 170.811 135.955 173.743C136.767 174.772 138.071 175.187 139.144 176.047C140.891 177.95 142.976 179.118 144.999 180.991C145.49 181.636 146.118 182.265 147.176 182.987C148.954 183.909 149.843 185.628 151.744 186.396C152.618 186.719 153.462 186.766 154.29 186.674C154.704 186.629 155.809 186.507 157.513 185.481C159.078 184.47 160.613 183.182 162.163 182.033C165.234 178.201 167.416 173.908 169.015 169.399C169.799 167.636 170.874 165.98 171.366 164.109C171.828 161.962 171.447 159.768 172.323 157.575C173.552 154.785 173.172 151.333 173.236 148.112Z" fill="black"/>
<path d="M51.3415 141.01L51.6177 140.979C52.1699 140.918 52.9527 140.413 53.5049 140.352C53.7811 140.321 54.0572 140.291 54.2105 140.414C56.6033 140.569 58.4895 141.2 60.0083 141.032C60.4225 140.987 60.6986 140.956 61.0976 140.772C63.2143 140.958 64.8548 141.895 66.3735 141.728C66.7877 141.682 67.0639 141.652 67.3248 141.483C70.5764 141.823 73.5661 143.59 76.5873 144.375C78.1822 144.898 79.8999 145.267 81.4795 145.652C83.9028 146.083 85.6042 147.573 86.9371 149.522C88.132 151.486 89.0659 153.619 89.4323 155.675C89.4617 157.209 89.0465 158.513 88.7997 160.077C88.2312 161.258 87.2028 162.07 86.22 163.296C85.2829 164.937 84.0403 165.074 83.35 165.15C82.9358 165.196 82.3683 165.118 81.8008 165.041C81.0953 164.979 80.2516 164.933 79.4232 165.024L77.9045 165.191C77.0761 165.283 76.2325 165.236 75.5269 165.174C73.3798 164.712 71.4631 163.805 69.6845 162.884C68.044 161.947 66.772 160.55 64.901 160.057C63.1681 159.549 61.5732 159.027 59.8403 158.519C57.1713 158.394 55.1014 157.365 52.4324 157.24C50.9137 157.407 49.7015 157.82 48.6122 158.08C47.1544 158.8 45.4976 158.983 43.9941 159.288C41.9231 159.516 40.3109 161.371 38.316 162.29C35.3079 164.159 33.2044 166.627 31.714 169.586C30.4073 172.944 29.2387 176.287 29.6041 179.601C30.3511 185.108 35.2586 186.524 38.7102 186.143C39.2625 186.082 39.8148 186.021 40.3518 185.822C43.0208 185.947 46.0582 185.612 48.8033 186.427C49.0947 186.535 49.5241 186.627 50.2144 186.551C52.2245 185.771 54.1575 185.558 56.2285 185.329L57.8853 185.147C62.7176 184.614 68.8535 184.496 72.8989 189.5C73.0522 189.623 76.1464 194.872 76.1616 195.01C76.192 195.286 76.2225 195.562 76.0996 195.715C76.0225 196.283 76.0834 196.835 76.1443 197.387L76.2661 198.492C76.327 199.044 76.2498 199.612 75.8813 200.071C74.1604 203.475 70.8914 205.513 67.2093 206.338C66.8103 206.522 66.5342 206.552 66.12 206.598C64.3251 206.796 57.0249 205.225 55.5681 204.687L52.6545 203.611C51.6423 203.303 50.615 202.857 49.6028 202.55C48.5907 202.242 47.6395 202.487 46.6273 202.179C41.597 200.917 38.1454 201.298 36.3505 201.496C34.8318 201.663 33.3282 201.969 31.8247 202.274C30.8735 202.519 30.3973 203.27 29.4918 203.929C26.2837 206.519 24.6867 208.511 25.1739 212.929C25.2805 213.896 25.523 217.363 28.5878 221.078C31.7602 224.501 35.8869 223.906 40.2431 224.124C41.3934 224.417 42.1446 224.893 43.3872 224.756C44.0928 224.818 45.044 224.573 45.78 224.911C50.3961 226.219 54.0619 226.514 56.1329 226.285C57.6517 226.118 59.0019 225.689 60.3369 225.123C61.3958 224.587 62.4851 224.327 63.5896 224.205C64.2799 224.129 65.2616 224.161 66.3662 224.039C67.3326 223.932 68.1458 223.703 69.0819 223.32C69.3428 223.152 76.9375 221.057 77.0756 221.041C77.8116 221.379 78.6552 221.426 79.3455 221.35C80.0359 221.274 80.8338 220.906 81.9384 220.785C82.4906 220.724 83.0429 220.663 83.6104 220.74C86.8316 220.804 89.5604 222.739 91.9978 224.566C94.3277 226.685 95.4453 229.217 95.6889 231.426C95.7346 231.84 95.7802 232.255 95.6879 232.684C95.8564 232.945 95.8868 233.221 95.9173 233.497C96.0238 234.464 95.5781 235.491 95.0553 237.086C94.5933 239.233 93.0887 240.796 91.7374 242.483C89.7882 243.816 87.4715 244.351 85.4462 244.993C84.3417 245.115 83.0686 244.976 81.7803 244.699C80.2159 244.452 78.7276 244.895 77.1023 244.096C72.7157 243.602 68.4062 242.54 64.0652 242.46C62.2399 242.381 60.4298 242.441 58.4969 242.654C55.7355 242.959 53.9863 243.571 51.6534 245.226C49.6422 247.264 46.8189 248.274 44.424 250.634L43.1651 251.891C41.4453 254.037 34.7084 257.575 32.2536 258.125C31.1948 258.661 30.3044 259.458 29.1999 259.58C28.0029 260.131 26.7756 260.406 25.671 260.528C24.398 260.389 23.0793 259.836 21.592 259.021C18.6795 256.687 17.1943 253.357 16.7833 249.63L16.6767 248.663C16.3722 245.902 15.3002 243.784 15.0719 241.713C14.9958 241.023 14.9349 240.47 14.9968 239.765C13.8508 234.441 13.5007 231.266 13.3789 230.161C13.1353 227.952 13.045 225.866 12.9547 223.78C12.3 217.843 13.3783 212.413 12.8759 207.857L12.6628 205.924C12.4192 203.715 10.5645 202.103 9.26204 200.43C7.37793 197.284 5.80039 194.383 5.60248 192.588C5.48069 191.484 5.298 189.827 6.75689 187.85C8.92239 184.676 13.0046 182.409 13.2382 178.191C13.5154 176.903 13.5164 175.645 13.4098 174.679C13.2424 173.16 13.1206 172.055 13.6434 170.46C13.677 166.963 14.202 162.853 14.8183 159.571C15.9717 156.089 16.1434 152.577 17.0206 149.126C17.7891 147.225 17.6684 144.862 18.1608 142.991C19.1142 140.231 21.7374 139.942 23.9465 139.698C25.1434 139.147 26.3708 138.872 27.6134 138.735C29.8225 138.491 33.2427 139.092 37.9664 140.109C38.9785 140.416 40.0059 140.862 40.9876 140.894C41.555 140.971 42.1225 141.048 42.6748 140.987C43.2271 140.926 44.1631 140.543 45.8199 140.361C47.6148 140.163 49.4705 140.517 51.3415 141.01Z" fill="black"/>
<path d="M317.999 169.157L317.722 169.187C316.327 169.201 314.931 169.215 313.55 169.368C311.203 169.627 309.039 170.284 307.383 170.467C305.588 170.665 303.762 170.587 301.907 170.232C300.756 169.94 299.438 169.387 298.149 169.109C295.757 168.954 293.441 168.231 291.232 168.475C289.437 168.673 287.428 168.195 285.587 167.979C279.989 167.898 274.13 166.727 268.978 164.361C262.355 160.06 259.277 153.692 258.729 148.721C258.592 147.479 258.578 146.083 258.702 144.672L258.641 144.119C258.458 142.462 257.784 141.419 257.723 140.867C257.647 140.176 257.724 139.609 258.062 138.873C258.955 135.56 259.985 132.232 261.752 129.243C262.335 128.2 262.198 126.957 262.782 125.915C263.781 123.569 265.991 122.067 267.558 119.798C272.84 113.207 281.401 111.005 288.844 107.529C290.746 107.04 292.664 106.689 294.597 106.476C296.392 106.278 299.46 106.219 303.464 105.778L306.363 105.458C308.02 105.275 309.615 105.798 311.425 105.738C311.854 105.831 312.268 105.785 312.683 105.739C313.649 105.633 314.984 105.066 316.733 104.454C319.418 104.717 321.656 106.008 324.279 105.718C324.97 105.642 325.828 105.827 326.564 106.165C334.093 109.807 333.848 108.855 336.695 116.926C336.863 117.187 336.894 117.463 336.924 117.74C336.985 118.292 336.785 119.013 336.493 120.163L336.66 121.682C337.116 127.081 332.617 131.91 327.968 134.099C325.222 134.542 323.442 134.878 322.752 134.954C319.714 135.289 315.127 135.515 311.509 133.119C310.237 131.722 308.412 131.644 306.572 131.428C303.229 130.259 300.315 129.183 297.078 128.981C295.974 129.103 294.824 128.81 293.704 128.794C293.413 128.686 293.136 128.717 292.998 128.732C291.342 128.915 289.837 130.478 287.827 131.259C283.132 133.034 282.56 137.988 282.88 140.888C282.956 141.578 283.185 142.391 283.399 143.066C284.118 145.782 287.077 147.272 288.824 149.176C291.323 151.555 294.973 151.712 298.286 152.604C302.764 153.927 306.491 154.774 310.357 154.348L311.323 154.241C316.155 153.708 320.511 155.185 325.173 155.649C333.625 156.254 338.942 162.655 341.574 170.051C341.819 171.002 341.926 171.968 342.032 172.935C342.139 173.901 342.199 175.711 342.488 178.335C342.195 179.485 341.918 180.773 342.04 181.878C342.285 182.829 342.376 183.657 342.483 184.624C342.985 189.18 341.324 194.394 339.77 200.575C339.108 203.442 337.832 205.819 337.17 208.687C335.619 211.094 334.313 214.452 333.037 216.829C331.178 220.248 328.507 222.639 325.575 225.198C324.178 226.47 323.472 227.666 322.06 228.8C320.387 230.102 317.917 230.514 315.891 231.157L315.063 231.248C313.682 231.4 311.565 232.472 309.494 232.701C308.527 232.807 307.545 232.776 306.656 232.315C305.092 232.068 304.295 231.178 303.114 230.609C300.936 229.871 299.264 229.916 297.348 229.009C295.431 228.102 293.499 227.058 291.261 225.767C289.575 224.416 288.641 222.283 286.663 220.824C284.977 219.473 283.751 218.49 282.601 216.94C280.027 213.87 275.764 211.964 273.819 208.266C272.931 206.547 272.104 205.381 271.997 204.414C271.936 203.862 272.013 203.294 272.106 202.865C272.383 201.577 272.829 200.549 272.661 199.031C272.51 196.392 274.889 195.152 275.657 193.25C275.98 192.376 276.333 191.778 276.84 191.303C278.191 189.617 280.646 189.067 282.779 188.133C283.838 187.597 284.927 187.337 286.032 187.215C286.998 187.109 288.946 187.033 291.691 187.849C293.394 188.08 294.359 189.232 295.447 190.229C298.59 192.119 300.291 194.866 302.16 197.874C302.972 198.903 302.848 200.314 303.522 201.357C304.104 202.83 304.64 203.889 305.359 205.347C306.033 206.391 307.367 207.082 308.671 207.497C310.205 207.468 311.708 207.162 313.273 207.409C313.426 207.532 313.702 207.502 313.84 207.486C314.531 207.41 315.268 206.49 316.327 205.954C322.188 203.352 323.758 197.309 325.557 192.08C325.895 191.344 325.972 190.777 325.911 190.224C325.896 190.086 325.728 189.825 325.712 189.687C325.652 189.135 325.729 188.567 325.806 188C326.022 186.159 326.515 184.288 326.7 182.172C325.495 175.038 325.328 172.261 317.999 169.157Z" fill="black"/>
<path d="M385.628 263.513C382.928 264.166 380.557 270.314 381.309 273.419L381.407 273.824C381.753 277.027 380.786 280.119 381.571 283.359C382.625 286.534 388.365 284.859 390.12 284.434L393.765 283.552C394.575 283.356 395.25 283.193 395.823 283.197C396.26 283.234 396.8 283.103 397.34 282.973C397.881 282.842 399.128 282.683 400.082 281.309C400.496 280.065 400.909 278.822 400.648 277.742C400.582 277.472 400.517 277.202 400.317 276.964C400.051 276.457 396.146 271.543 395.811 271.338C394.604 270.487 394.008 269.202 393.611 268.155C392.716 266.227 391.105 265.474 389.223 264.786C388.115 264.34 387.211 263.558 385.628 263.513ZM368.241 223.56L368.479 223.36C368.851 223.127 369.391 222.996 369.796 222.898C371.281 222.539 373.028 223.259 374.648 222.867C375.053 222.769 375.323 222.704 375.56 222.503C376.067 222.238 376.607 222.107 377.012 222.009C378.227 221.715 379.541 221.826 380.817 222.374C382.567 222.522 384.151 222.568 385.185 223.89C388.763 227.454 390.651 231.713 392.81 235.907C396.845 241.362 400.508 247.049 403.594 253.305C405.618 257.531 408.656 261.227 411.289 265.02C411.783 266.472 412.077 267.687 413.013 268.604C413.582 269.181 414.216 270.028 414.849 270.875L415.013 271.55C415.241 272.495 415.102 273.1 415.233 273.64C415.331 274.045 415.531 274.283 415.899 274.622C417.367 276.554 417.955 278.984 419.591 281.018C420.625 282.339 421.32 284.029 422.15 285.686C424.221 292.473 426.125 299.158 429.006 305.75C430.866 309.301 433.061 313.057 435.429 316.343C436.226 317.865 437.465 318.851 437.726 319.931C437.792 320.201 437.857 320.471 437.787 320.774L437.983 321.584C439.258 326.849 437.448 330.003 432.588 331.179C431.913 331.342 431.373 331.473 430.665 331.501C429.013 331.758 428.076 330.842 426.865 330.563C426.092 330.321 425.352 330.215 424.849 329.908C421.9 327.763 418.579 325.851 417.991 323.421C417.893 323.016 417.828 322.746 417.865 322.309C417.723 318.77 417.266 316.88 417.168 316.475C416.841 315.125 416.244 313.84 415.512 312.588C414.813 311.471 414.282 310.456 414.021 309.376C413.498 307.216 412.91 304.786 411.339 303.022C409.835 301.529 407.446 301.107 406.366 301.368C405.961 301.466 405.453 301.732 405.081 301.965C403.015 303.465 402.392 305.617 400.596 307.052C399.339 308.356 398.264 308.045 396.332 309.513C393.996 311.079 392.833 313.361 391.904 316.015C391.22 317.324 390.229 319.136 389.816 320.379C389.5 322.028 389.822 323.951 390.247 325.706C390.851 330.562 390.686 334.603 386.017 337.162C384.253 338.732 382.666 339.259 381.856 339.455C379.291 340.076 373.192 340.266 370.872 339.541C367.612 338.472 367.233 335.134 365.127 332.928C364.494 332.081 363.623 331.435 363.361 330.355C362.675 327.52 361.98 325.83 361.752 324.885C361.523 323.94 361.429 322.962 361.335 321.984C360.749 314.838 359.353 307.887 360.652 300.855C360.526 299.743 360.097 298.56 360.273 297.517C360.319 295.934 360.798 294.961 360.941 293.783C361.339 290.113 360.592 286.436 361.461 282.938C361.868 278.124 361.869 273.407 362.882 268.732C363.321 264.052 364.669 259.582 364.2 254.693C365.064 251.768 364.574 249.743 364.326 246.945C364.363 246.508 364.265 246.103 364.167 245.698C363.873 244.482 361.42 239.074 361.42 239.074C361.257 238.399 361.196 237.556 361.405 236.648C361.516 235.335 361.058 233.445 361.239 231.829C361.489 229.91 362.713 228.471 363.937 227.031C365.193 225.727 366.584 224.39 368.241 223.56Z" fill="black"/>
<path d="M277.495 315.265L277.267 314.319C276.58 311.484 278.12 308.396 278.313 305.063C277.692 302.497 277.231 301.18 277.133 300.775C276.871 299.695 276.745 298.582 276.754 297.437C276.263 295.412 274.428 293.141 273.868 291.418C273.569 290.776 273.075 289.324 272.519 287.028C272.556 286.591 272.458 286.186 272.36 285.781C271.968 284.161 270.766 282.737 270.341 280.982L270.145 280.172C270.028 277.913 269.333 276.224 270.328 273.839C270.299 273.131 270.406 272.391 270.648 271.618C271.061 270.375 272.113 269.406 272.159 267.822C271.995 267.147 271.697 266.505 271.664 266.37C271.566 265.965 271.636 265.662 271.706 265.36C271.882 264.317 272.324 263.781 272.901 263.212C274.697 261.777 275.88 261.348 276.285 261.25C276.96 261.087 277.667 261.058 278.44 261.3C281.435 261.862 284.294 262.456 287.223 262.747C288.871 263.063 290.119 262.904 291.735 263.085C292.778 263.261 300.591 263.657 301.401 263.461C304.539 262.844 310.917 261.443 320.232 259.189C322.49 259.071 324.548 258.716 326.932 259.711C327.701 260.525 329.354 260.268 330.29 261.185C332.298 262.986 332.486 264.941 332.714 265.886C333.76 270.206 332.658 273.331 327.998 274.745C327.896 274.912 327.626 274.978 327.491 275.01C327.086 275.109 326.513 275.104 325.875 274.83C323.589 274.24 321.466 274.325 318.803 274.541C316.884 274.291 314.728 274.241 312.81 273.99C312.037 273.749 311.227 273.945 310.282 274.174C307.177 274.925 304.113 274.666 301.315 274.915C299.257 275.27 297.539 275.257 296.999 275.387C296.054 275.616 295.342 276.217 294.83 277.056C293.511 282.234 296.421 289.533 296.55 294.79L296.713 295.465C296.876 296.14 297.175 296.782 297.473 297.424C298.139 298.406 298.638 299.286 299.583 299.057C299.718 299.025 299.988 298.959 300.091 298.792C300.258 298.894 300.528 298.829 300.933 298.731C301.338 298.633 301.981 298.334 302.758 298.003C303.368 297.57 304.145 297.239 304.82 297.075C305.495 296.912 307.213 296.925 309.406 296.537C310.048 296.239 310.858 296.043 311.533 295.879C312.343 295.683 313.153 295.487 313.861 295.459C315.444 295.504 316.888 296.155 318.537 296.471C321.461 297.335 322.286 299.565 322.646 301.05C322.777 301.59 322.772 302.163 322.801 302.871C322.746 305.599 321.412 308.352 319.252 308.874C318.982 308.94 318.712 309.005 318.274 308.968C316.356 308.718 314.097 308.836 311.737 309.121C309.819 308.871 307.593 309.124 305.47 309.209C305.167 309.139 304.897 309.204 304.627 309.27C304.087 309.4 303.613 309.801 303.073 309.932C302.667 310.03 302.397 310.095 301.96 310.058C301.522 310.021 301.084 309.984 300.679 310.082C300.274 310.18 300.037 310.381 299.665 310.614C297.361 312.315 295.286 314.96 295.092 318.294C294.96 322.471 295.662 327.732 299.788 330.02C300.962 330.736 302.042 330.475 302.987 330.246C303.527 330.116 305.724 329.155 306.669 328.926C307.074 328.828 307.344 328.763 307.647 328.833C309.165 328.608 310.608 329.259 312.126 329.035C313.206 328.773 314.282 329.085 315.46 329.228C316.168 329.2 316.843 329.037 317.518 328.873L319.678 328.351C320.353 328.187 321.028 328.024 321.736 327.995C324.129 327.845 326.354 327.592 328.649 327.037C330.674 326.547 332.802 325.889 334.729 324.994C338.914 323.981 342.801 322.326 346.627 319.828C347.474 319.194 348.153 318.458 349.233 318.196C350.178 317.968 351.184 318.582 351.957 318.823C352.26 318.893 352.53 318.828 352.8 318.762C353.205 318.664 353.442 318.464 353.577 318.431C353.847 318.366 354.117 318.3 354.42 318.37C357.549 318.899 361.811 321.155 364.052 323.328C364.816 324.715 364.775 325.725 365.539 327.112C366.206 328.094 366.668 329.412 367.334 330.394C367.497 331.069 367.391 331.809 367.419 332.517L367.746 333.867C367.877 334.407 367.872 334.98 367.835 335.417C366.975 337.769 365.915 339.884 364.552 341.928C364.008 342.632 363.198 342.828 362.383 343.597C362.011 343.83 361.504 344.095 361.099 344.193C360.964 344.226 360.726 344.426 357.63 344.032C357.057 344.028 356.484 344.024 355.944 344.155C353.649 344.71 351.526 344.795 349.407 344.307C349.24 344.205 348.937 344.136 348.532 344.234C348.262 344.299 347.992 344.364 347.62 344.597C346.539 344.859 345.296 344.445 344.118 344.301C342.4 344.288 340.882 344.513 339.229 344.77C335.859 345.014 332.655 345.361 329.452 345.707C325.672 346.622 323.68 347.247 323.005 347.41C321.654 347.737 320.137 347.962 318.586 348.051C316.021 348.672 313.804 347.779 311.109 347.86L310.704 347.958C309.488 348.252 309.103 350.203 308.42 351.512C307.146 355.107 308.122 359.73 305.605 362.912C304.479 364.756 302.384 365.549 301.304 365.81C299.414 366.268 296.15 365.772 295.153 364.012C294.388 362.625 293.652 361.946 292.888 360.559C291.96 358.497 291.764 357.687 290.869 355.76C290.514 353.702 290.387 352.589 290.289 352.184C290.093 351.374 289.762 350.597 289.431 349.819L287.699 342.664C286.404 340.262 285.913 338.237 285.685 337.292C285.456 336.347 285.195 335.267 285.101 334.289L284.872 333.344C284.48 331.724 284.628 329.973 284.073 327.678C283.243 326.021 282.949 324.806 282.785 324.131C282.622 323.456 282.491 322.916 282.463 322.208C280.897 319.872 278.586 318.002 277.495 315.265Z" fill="black"/>
<path d="M152.68 280.589C154.84 280.067 157 279.544 159.123 279.459C160.203 279.197 161.185 278.531 162.265 278.27C163.75 277.91 164.994 278.324 166.479 277.964C167.726 277.805 169.076 277.479 170.291 277.185C171.507 276.89 173.904 276.167 177.684 275.252C179.034 274.926 180.519 274.566 181.869 274.24C183.452 274.285 184.835 274.093 186.185 273.767C186.725 273.636 188.48 273.211 191.622 272.022C194.965 271.07 197.965 266.342 197.116 262.832C196.752 261.92 196.491 260.84 196.262 259.895L195.837 258.14C195.543 256.925 194.979 255.775 194.043 254.858C193.409 254.011 193.012 252.964 192.784 252.019C192.686 251.614 192.821 251.581 192.723 251.176C192.494 250.231 192.13 249.319 191.496 248.472C190.397 246.88 189.735 245.325 189.506 244.38C189.375 243.84 189.244 243.3 189.249 242.727L189.266 240.437C189.238 239.729 189.447 238.821 189.656 237.913C190.376 236.166 192.238 235.001 193.993 234.576C194.738 234.11 195.548 233.914 196.358 233.718C200.948 232.607 204.228 235.529 206.558 239.253C208.161 241.152 208.986 243.381 209.509 245.541C209.742 245.914 209.807 246.184 209.905 246.589C210.134 247.534 209.888 248.88 209.875 250.598C209.817 253.899 210.196 257.237 210.947 260.342L211.176 261.287C212.627 265.509 217.178 269.553 221.527 269.215C224.534 268.058 227.611 266.599 230.454 264.768C232.795 262.629 235.467 261.268 238.441 259.976C239.423 259.31 240.54 258.611 241.62 258.349C241.858 258.149 242.128 258.084 242.398 258.018C242.803 257.92 243.105 257.99 244.083 257.896C245.462 258.277 246.849 257.513 248.562 258.098C254.653 259.054 258.419 264.574 259.301 268.219C259.562 269.299 260.351 271.966 258.402 275.725C256.928 279.083 254.117 281.05 251.822 281.605C251.147 281.768 250.607 281.899 250.034 281.895C245.849 282.908 243.452 283.631 243.047 283.729C241.021 284.219 239.066 284.406 237.148 284.156C235.425 284.716 233.838 285.243 232.083 285.668C231.138 285.896 230.565 285.892 230.025 286.023C228.135 286.48 226.277 287.073 224.62 287.902C219.166 291.938 219.116 294.094 218.393 300.557C218.544 302.95 218.326 305.003 218.411 307.127C218.505 308.104 218.701 308.914 218.93 309.859L219.42 311.884C219.681 312.964 219.808 314.077 219.799 315.223C220.065 315.73 220.196 316.27 220.294 316.675C220.457 317.35 220.551 318.328 220.3 320.246C220.189 321.559 220.181 322.705 220.475 323.92C220.573 324.325 221.035 325.642 221.823 328.31C222.653 329.967 223.859 330.818 224.35 332.843C224.709 334.328 225.948 335.314 226.209 336.395C226.275 336.665 226.34 336.935 226.27 337.237C226.234 337.675 226.299 337.945 226.397 338.35C226.495 338.755 226.626 339.295 227.292 340.277C227.46 340.379 227.525 340.649 227.558 340.784C227.786 341.729 227.242 342.433 227.471 343.378C227.503 343.513 227.569 343.783 227.737 343.885C228.902 345.747 230.169 347.441 231.134 349.065C231.6 349.81 231.931 350.587 232.16 351.532C232.388 352.477 232.441 354.466 232.522 357.161C233.286 358.548 234.055 359.363 234.316 360.443L234.447 360.983C235.203 363.515 235.665 364.833 235.697 364.968C235.959 366.048 235.95 367.193 235.806 368.371C235.985 371.472 236.02 375.751 232.907 377.648C232.06 378.282 231.38 379.018 230.803 379.586L228.896 382.334C228.384 383.173 227.505 383.671 226.559 383.9L226.154 383.998C224.739 384.055 223.356 384.247 222.006 384.573C221.601 384.671 221.229 384.904 221.094 384.937C219.609 385.297 218.193 385.353 216.68 385.005C215.195 385.364 214.553 385.663 214.418 385.695C213.742 385.859 213.17 385.855 212.532 385.58C206.245 383.815 199.324 381.202 197.625 374.182C197.299 372.832 197.209 371.281 197.255 369.698C197.44 367.51 197.322 365.252 197.744 362.863C198.421 357.983 200.243 353.112 201.526 348.371C202.246 346.624 203.805 345.39 204.055 343.471C204.478 341.082 204.663 338.894 204.447 336.231C204.087 334.746 204.231 333.568 204.277 331.985L203.754 329.824C203.591 329.149 203.259 328.372 202.961 327.73C201.687 322.464 202.433 317.282 201.797 312.291C201.814 310 201.161 307.3 200.899 306.22C199.985 302.44 197.578 295.448 193.197 295.651L192.792 295.749C191.846 295.977 191.302 296.681 190.39 297.044C189.85 297.175 189.24 297.609 188.565 297.772C180.968 300.039 176.41 301.285 175.195 301.579C171.82 302.396 168.514 302.91 165.111 303.02C161.777 302.826 157.866 303.201 154.676 301.829C150.541 300.686 148.178 296.828 145.643 293.44C145.475 293.337 145.312 292.662 145.018 291.447C145.17 289.124 144.819 286.493 145.814 284.109C146.195 282.73 147.144 281.929 148.494 281.602C148.494 281.602 149.067 281.607 150.012 281.378C150.957 281.149 151.902 280.92 152.68 280.589Z" fill="black"/>
<path d="M431.586 220.899C432.889 220.545 434.414 219.969 435.45 221.097C435.534 221.203 435.709 221.321 435.922 221.425C436.479 221.629 436.692 221.963 436.989 222.403C437.21 222.642 437.408 222.935 437.545 223.298C437.591 223.419 437.621 223.499 437.629 223.635C438.017 224.547 438.223 224.976 438.268 225.097C438.42 225.499 438.497 225.931 438.443 226.366C438.496 226.852 438.252 227.129 438.107 227.552C437.787 228.087 437.581 228.81 437.207 229.319C436.223 230.75 436.604 230.836 436.62 230.877C436.817 231.4 437.557 231.628 438.639 231.725C439.149 231.808 439.599 231.961 440.003 232.223C440.696 232.559 441.283 233.074 441.45 233.517C441.527 233.719 441.549 233.895 441.511 234.139C441.595 235.167 441.206 235.406 440.489 235.815C440.466 235.869 440.39 235.898 440.352 235.913C440.314 235.927 440.161 235.985 439.963 235.921C439.544 235.849 439.14 235.818 438.614 235.694C438.233 235.608 437.982 235.289 437.532 235.136C437.106 234.929 436.603 234.751 436.153 234.598C434.606 234.308 433.318 233.782 431.817 233.382C431.619 233.319 431.436 233.296 431.283 233.354C431.017 233.454 430.651 233.869 430.414 234.511C430.223 235.504 429.857 236.379 429.575 237.361C429.536 237.836 429.01 238.173 428.629 238.317C427.829 238.619 427.097 238.067 426.747 237.14C426.671 236.938 426.618 236.682 426.564 236.426C426.45 235.779 426.664 235.191 426.771 234.552C426.893 233.954 426.932 233.479 426.794 233.116C426.749 232.995 426.703 232.874 426.619 232.768C426.261 232.397 425.964 231.956 425.782 231.473C425.705 231.271 425.644 231.11 425.606 230.894C425.493 229.326 426.019 227.837 426.736 226.507C427.079 226.148 427.346 225.816 427.529 225.379C427.69 224.996 427.888 224.599 428.14 224.227C428.59 223.689 428.841 223.087 429.306 222.589C430.076 221.976 430.633 221.259 431.281 221.014L431.586 220.899ZM450.772 232.251L450.787 232.291C450.779 233.538 450.504 234.655 449.978 235.682C449.833 236.336 449.642 236.868 449.345 237.349C449.047 237.83 448.552 238.017 448.201 238.472C447.942 238.708 447.797 239.131 447.553 239.408C447.179 239.687 446.943 239.868 446.569 240.148C446.409 240.3 446.272 240.398 446.081 240.47C445.929 240.528 445.578 240.522 445.007 240.738C444.443 241.089 443.741 241.308 443.139 241.674C442.849 241.83 442.659 242.132 442.239 242.29C440.982 242.766 439.716 243.336 438.459 243.811C437.963 243.998 437.658 244.344 437.315 244.474L437.124 244.546C437.01 244.589 437.018 244.494 436.903 244.537L436.751 244.595C436.56 244.667 436.377 244.874 436.072 244.989C436.011 245.058 435.935 245.087 435.859 245.116C435.592 245.217 435.379 245.113 435.074 245.228L434.655 245.387C434.037 245.482 433.473 245.603 432.894 245.453C431.82 245.261 430.707 245.313 429.678 245.011C429.183 244.968 428.87 244.718 428.367 244.77C427.445 244.75 426.599 244.241 425.761 243.867C425.22 243.703 424.671 243.634 424.199 243.306C423.361 242.932 422.744 242.336 422.035 241.729C421.448 241.445 420.953 241.171 420.351 240.846C420.054 240.636 419.947 240.354 419.65 240.144C419.041 239.684 417.563 238.308 417.289 237.583L417.197 237.341C417.152 237.221 417.121 237.14 417.053 237.074C416.938 236.887 416.786 236.714 416.74 236.593C416.58 236.285 416.497 235.948 416.245 235.629C416.123 235.537 416.04 235.431 415.994 235.31C415.918 235.108 415.956 234.864 415.88 234.662C415.918 234.417 415.865 234.161 415.773 233.92C415.758 233.879 415.705 233.853 415.659 233.732C415.583 233.531 415.53 233.275 415.515 233.004C415.507 232.869 415.515 232.774 415.469 232.653C415.423 232.532 415.286 232.4 415.165 232.078C415.058 231.335 414.815 230.69 414.685 230.002C414.64 228.961 414.45 227.881 414.626 226.848C414.847 226.166 415.061 225.348 415.511 224.81C416.311 224.277 417.241 223.972 417.981 223.278C418.24 223.042 418.324 222.688 418.568 222.411C418.941 221.902 419.498 221.415 419.872 220.905C420.749 219.883 421.854 219.005 423.074 218.544C423.272 218.377 424.85 217.367 425.041 217.295C425.445 217.096 426.23 216.753 427.488 216.278C427.945 216.105 428.265 215.8 428.562 215.549C429.309 215.221 429.752 215.008 429.79 214.993C430.133 214.864 430.491 214.774 430.842 214.78C430.895 214.806 430.971 214.777 431.009 214.763C431.124 214.719 431.192 214.555 431.383 214.483C431.65 214.383 431.954 214.498 432.259 214.382C433.349 214.155 434.424 214.117 435.499 214.309C435.963 214.272 436.306 214.142 436.657 214.148C437.137 214.151 437.495 214.061 437.991 214.104C438.821 214.343 439.538 214.164 440.369 214.173C442.236 214.388 444.011 215.283 445.497 216.563C446.327 217.493 447.089 218.586 447.561 219.835C447.614 219.861 447.645 219.942 447.66 219.982C447.736 220.183 447.637 220.497 447.713 220.699C447.728 220.739 447.759 220.819 447.812 220.845L447.919 221.127C448.261 222.61 448.764 223.939 449.312 225.39C449.616 226.196 449.273 227.016 449.432 228.015C449.516 228.582 449.676 229.12 449.874 229.644C449.996 229.966 450.186 230.354 450.369 230.838C450.536 231.281 450.681 231.779 450.772 232.251ZM444 222.976L443.254 221.002C443.011 220.357 442.554 219.839 441.937 219.474C440.588 218.096 438.988 218.01 437.212 217.806C436.648 217.697 436.107 217.533 435.49 217.628C435.375 217.671 435.238 217.769 435.085 217.827C435.063 217.882 434.986 217.91 434.948 217.925C434.796 217.982 434.544 217.893 434.232 217.873C433.813 217.801 433.363 217.879 432.944 218.038C432.586 218.127 432.204 218.271 431.823 218.415C431.061 218.703 429.879 219.15 428.515 220.034C427.768 220.362 426.998 220.745 426.236 221.033C425.854 221.177 425.595 221.413 425.473 221.782C425.237 222.193 424.901 222.228 424.528 222.507C424.025 223.02 423.521 223.532 423.01 224.14C422.53 224.828 422.194 225.784 421.881 226.685L421.957 227.577C421.988 227.888 422.056 228.184 422.163 228.466C422.185 228.872 422.269 229.209 422.261 229.534C422.154 230.173 422.162 230.769 422.039 231.367C421.971 231.532 421.894 231.791 421.971 231.992C422.168 232.516 422.145 233.031 422.214 233.558C422.313 233.935 422.435 234.257 422.556 234.579C422.754 235.103 423.028 236.059 424.011 236.931C424.582 237.405 425.108 237.99 425.641 238.479C426.502 239.028 427.356 239.442 428.286 239.598C429.832 240.348 431.631 240.958 433.315 240.92C433.719 240.952 434.108 240.713 434.459 240.718C434.771 240.738 435.068 240.718 435.335 240.617C435.465 240.614 435.541 240.585 435.655 240.542C436.151 240.355 436.425 239.929 436.73 239.814C436.921 239.742 437.088 239.724 437.309 239.733C438.354 239.384 439.116 239.327 439.421 239.211C439.764 239.082 440.076 238.872 440.374 238.621C440.64 238.52 440.77 238.517 440.808 238.503C440.923 238.46 440.984 238.391 441.083 238.307C441.182 238.224 441.357 238.111 441.624 238.01C442.561 237.61 443.568 237.276 444.551 236.766C444.696 236.573 444.909 236.447 445.131 236.225C445.992 235.853 446.564 235.637 446.45 234.529C446.457 234.434 446.427 234.354 446.397 234.273C446.336 234.112 446.13 233.913 446.008 233.591C445.886 233.269 445.94 232.834 445.818 232.512C445.613 231.622 445.781 230.684 445.545 229.714C445.408 229.351 445.347 228.96 445.324 228.554C445.294 227.783 445.241 227.066 445.097 226.338C445.082 225.837 445.006 225.405 444.838 224.962C444.762 224.761 444.427 224.105 444 222.976ZM430.585 228.046L430.737 228.449C431.041 229.255 431.514 229.353 432.085 229.137C432.619 228.935 433.214 228.434 433.801 228.028C434.174 227.518 434.358 226.851 434.579 226.168C434.564 225.898 434.511 225.642 434.434 225.44C434.252 224.957 433.863 224.044 432.735 224.286C432.362 224.566 432.08 224.857 431.813 225.188C431.142 225.948 430.128 226.837 430.585 228.046Z" fill="black"/>
<defs>
<clipPath id="clip0_149_2477">
<rect width="259.952" height="121.199" fill="white" transform="matrix(-0.996223 -0.0868301 -0.0868301 0.996223 302.494 22.5715)"/>
</clipPath>
</defs>
</svg>
